# Blender 5.0.1
# www.blender.org
mtllib Hookobj_2.mtl
o Mari_FishingRod01
v 0.114265 -0.062623 -0.242019
v 0.111093 -0.192789 -0.206402
v 0.109996 -0.146910 -0.155235
v 0.108838 -0.175089 -0.280440
v 0.089200 -0.110670 -0.430022
v 0.108290 -0.181703 -0.323956
v 0.085115 0.047496 -0.267795
v 0.083017 0.012138 -0.408267
v 0.054404 0.125299 -0.284711
v 0.054056 0.115269 -0.325982
v 0.085427 0.081642 -0.122272
v 0.054762 0.135621 -0.242237
v 0.092432 -0.017508 -0.046686
v 0.110105 -0.129369 -0.108613
v 0.210327 -0.063287 -0.236984
v 0.198075 -0.037406 -0.132362
v 0.163601 -0.146850 -0.154604
v 0.163601 -0.192973 -0.205564
v 0.176963 0.047662 -0.264810
v 0.164710 0.066969 -0.186756
v 0.106205 0.126991 -0.286194
v 0.164710 0.026046 -0.352194
v 0.142736 0.012062 -0.408727
v 0.144144 -0.111002 -0.429885
v 0.198075 -0.092258 -0.354110
v 0.163601 -0.175540 -0.279699
v 0.163601 -0.182328 -0.323191
v 0.106205 0.116793 -0.327425
v 0.142736 0.082737 -0.123010
v 0.106205 0.137488 -0.243762
v 0.144144 -0.016272 -0.046920
v 0.163601 -0.129113 -0.108057
v 0.108290 -0.181703 -0.323956
v 0.108838 -0.175089 -0.280440
v 0.089200 -0.110670 -0.430022
v 0.083017 0.012138 -0.408267
v 0.054056 0.115269 -0.325982
v 0.054404 0.125299 -0.284711
v 0.054762 0.135621 -0.242237
v 0.085427 0.081642 -0.122272
v 0.092432 -0.017508 -0.046686
v 0.109996 -0.146910 -0.155235
v 0.111093 -0.192789 -0.206402
v 0.110105 -0.129369 -0.108613
v 0.051646 0.163639 0.192487
v -0.042455 0.163639 0.192487
v -0.028674 0.093315 0.185294
v 0.037865 0.093315 0.185294
v 0.098697 0.144070 0.113377
v 0.071135 0.079477 0.129355
v 0.051646 0.124501 0.034267
v 0.037865 0.065640 0.073416
v -0.042455 0.124501 0.034267
v -0.028674 0.065640 0.073416
v -0.089506 0.144070 0.113377
v -0.061944 0.079477 0.129355
v -0.042455 0.163639 0.192487
v -0.028674 0.093315 0.185294
v 0.037865 0.222500 0.153338
v -0.028674 0.222500 0.153338
v 0.071135 0.208663 0.097399
v 0.037865 0.194826 0.041460
v -0.028674 0.194826 0.041460
v -0.061944 0.208663 0.097399
v -0.028674 0.222500 0.153338
v 0.004595 0.052723 0.135973
v 0.004595 0.052723 0.135973
v 0.004595 0.052723 0.135973
v 0.004595 0.052723 0.135973
v 0.004595 0.235418 0.090781
v 0.004595 0.235418 0.090781
v 0.004595 0.235418 0.090781
v 0.004595 0.235418 0.090781
v 0.004595 0.235418 0.090781
v 0.004595 0.235418 0.090781
v 0.004595 0.052723 0.135973
v 0.004595 0.052723 0.135973
v 0.047367 0.327225 0.655818
v -0.038176 0.327225 0.655818
v -0.025649 0.263296 0.649279
v 0.034840 0.263296 0.649279
v 0.090139 0.309436 0.583902
v 0.065084 0.250717 0.598427
v 0.047367 0.291647 0.511987
v 0.034840 0.238138 0.547575
v -0.038176 0.291647 0.511987
v -0.025649 0.238138 0.547575
v -0.080948 0.309436 0.583902
v -0.055893 0.250717 0.598427
v -0.038176 0.327225 0.655818
v -0.025649 0.263296 0.649279
v 0.034840 0.380734 0.620229
v -0.025649 0.380734 0.620229
v 0.065084 0.368155 0.569377
v 0.034840 0.355576 0.518526
v -0.025649 0.355576 0.518526
v -0.055893 0.368155 0.569377
v -0.025649 0.380734 0.620229
v 0.004595 0.226395 0.604444
v 0.004595 0.226395 0.604444
v 0.004595 0.226395 0.604444
v 0.004595 0.226395 0.604444
v 0.004595 0.392477 0.563361
v 0.004595 0.392477 0.563361
v 0.004595 0.392477 0.563361
v 0.004595 0.392477 0.563361
v 0.004595 0.392477 0.563361
v 0.004595 0.392477 0.563361
v 0.004595 0.226395 0.604444
v 0.004595 0.226395 0.604444
v 0.032846 0.287928 1.095573
v -0.023655 0.287928 1.095573
v -0.015381 0.245703 1.091254
v 0.024572 0.245703 1.091254
v 0.061097 0.276178 1.048073
v 0.044548 0.237395 1.057667
v 0.032846 0.264429 1.000574
v 0.024572 0.229087 1.024079
v -0.023655 0.264429 1.000574
v -0.015381 0.229087 1.024079
v -0.051906 0.276178 1.048073
v -0.035357 0.237395 1.057667
v -0.023655 0.287928 1.095573
v -0.015381 0.245703 1.091254
v 0.024572 0.323269 1.072067
v -0.015381 0.323269 1.072067
v 0.044548 0.314961 1.038480
v 0.024572 0.306652 1.004892
v -0.015381 0.306652 1.004892
v -0.035357 0.314961 1.038480
v -0.015381 0.323269 1.072067
v 0.004595 0.221330 1.061641
v 0.004595 0.221330 1.061641
v 0.004595 0.221330 1.061641
v 0.004595 0.221330 1.061641
v 0.004595 0.331025 1.034506
v 0.004595 0.331025 1.034506
v 0.004595 0.331025 1.034506
v 0.004595 0.331025 1.034506
v 0.004595 0.331025 1.034506
v 0.004595 0.331025 1.034506
v 0.004595 0.221330 1.061641
v 0.004595 0.221330 1.061641
v 0.052778 0.211616 0.237649
v 0.004595 0.170311 0.262456
v 0.004595 -0.006420 -0.091979
v 0.052778 0.034886 -0.116786
v 0.004595 0.252921 0.212841
v 0.004595 0.076192 -0.141594
v -0.043587 0.211616 0.237649
v -0.043587 0.034886 -0.116786
v 0.004595 0.170311 0.262456
v 0.004595 -0.006420 -0.091979
v 0.046150 0.313255 0.513653
v 0.004595 0.272283 0.520586
v 0.004595 0.354227 0.506721
v -0.036959 0.313255 0.513653
v 0.004595 0.272283 0.520586
v 0.034788 0.336192 0.823855
v 0.004595 0.306436 0.818740
v 0.004595 0.365948 0.828971
v -0.025597 0.336192 0.823855
v 0.004595 0.306436 0.818740
v 0.018692 0.279752 1.058516
v 0.004595 0.265859 1.056127
v 0.004595 0.293645 1.060904
v -0.009501 0.279752 1.058516
v 0.004595 0.265859 1.056127
v -0.043587 -0.017541 -0.328732
v 0.004595 -0.065686 -0.330634
v -0.030238 -0.010631 -0.827242
v 0.004595 0.024175 -0.825868
v 0.004595 0.030604 -0.326832
v 0.052778 -0.017541 -0.328732
v 0.004595 -0.065686 -0.330634
v 0.004595 -0.045437 -0.828617
v 0.039429 -0.010631 -0.827242
v 0.004595 -0.045437 -0.828617
v 0.021874 -0.234988 -0.201870
v 0.006663 -0.263139 -0.194907
v 0.006663 -0.286325 -0.298707
v 0.021874 -0.258175 -0.305670
v 0.007350 -0.184917 -0.088452
v 0.021874 -0.164560 -0.103193
v 0.007441 -0.000928 0.097296
v 0.021874 0.015143 0.081563
v 0.006663 0.074024 0.143512
v 0.021874 0.111178 0.136569
v 0.008302 0.001599 0.248338
v 0.021874 0.029716 0.253588
v 0.007225 -0.019450 0.382366
v 0.021874 0.006840 0.380071
v 0.007859 0.056419 0.526051
v 0.021874 0.073029 0.511310
v 0.007976 0.181180 0.583933
v 0.021874 0.194257 0.561567
v 0.006663 0.218544 0.600764
v 0.021874 0.264604 0.592413
v 0.006456 0.154672 0.668917
v 0.021874 0.173457 0.681159
v 0.006663 0.090060 0.757763
v 0.021874 0.116648 0.757944
v 0.006663 0.084692 0.845543
v 0.021874 0.111280 0.845724
v 0.006663 0.146311 0.946829
v 0.021874 0.169355 0.933565
v 0.006663 0.241473 1.040989
v 0.021874 0.264517 1.027726
v -0.008547 0.194257 0.561567
v -0.008547 0.073029 0.511310
v 0.007976 0.181180 0.583933
v 0.007859 0.056419 0.526051
v -0.008547 0.006840 0.380071
v 0.007225 -0.019450 0.382366
v -0.008547 0.029716 0.253588
v 0.008302 0.001599 0.248338
v -0.008547 0.111178 0.136569
v 0.006663 0.074024 0.143512
v -0.008547 0.015143 0.081563
v 0.007441 -0.000928 0.097296
v -0.008547 -0.164560 -0.103193
v 0.007350 -0.184917 -0.088452
v -0.008547 -0.234988 -0.201870
v 0.006663 -0.263139 -0.194907
v 0.006663 -0.286325 -0.298707
v -0.008547 -0.258175 -0.305670
v 0.006663 0.218544 0.600764
v -0.008547 0.264604 0.592413
v 0.006456 0.154672 0.668917
v -0.008547 0.173457 0.681159
v 0.006663 0.090060 0.757763
v -0.008547 0.116648 0.757944
v 0.006663 0.084692 0.845543
v -0.008547 0.111280 0.845724
v 0.006663 0.146311 0.946829
v -0.008547 0.169355 0.933565
v 0.006663 0.241473 1.040989
v -0.008547 0.264517 1.027726
v 0.004711 0.242727 1.047497
v 0.015332 0.245254 1.057711
v 0.005038 -0.024933 1.124308
v 0.005364 0.247670 1.067478
v -0.005257 0.245143 1.057265
v 0.004711 0.242727 1.047497
v 0.075477 0.027210 -0.131368
v -0.066286 0.027210 -0.131368
v -0.045525 -0.078733 -0.142204
v 0.054716 -0.078733 -0.142204
v 0.146359 -0.002269 -0.250546
v 0.104837 -0.099578 -0.226476
v 0.075477 -0.031749 -0.369725
v 0.054716 -0.120424 -0.310748
v -0.066286 -0.031749 -0.369725
v -0.045525 -0.120424 -0.310748
v -0.137168 -0.002269 -0.250546
v -0.095646 -0.099578 -0.226476
v -0.066286 0.027210 -0.131368
v -0.045525 -0.078733 -0.142204
v 0.054716 0.115885 -0.190345
v -0.045525 0.115885 -0.190345
v 0.104837 0.095040 -0.274617
v 0.054716 0.074194 -0.358889
v -0.045525 0.074194 -0.358889
v -0.095646 0.095040 -0.274617
v -0.045525 0.115885 -0.190345
v 0.004595 -0.139885 -0.216506
v 0.004595 -0.139885 -0.216506
v 0.004595 -0.139885 -0.216506
v 0.004595 -0.139885 -0.216506
v 0.004595 0.135346 -0.284587
v 0.004595 0.135346 -0.284587
v 0.004595 0.135346 -0.284587
v 0.004595 0.135346 -0.284587
v 0.004595 0.135346 -0.284587
v 0.004595 0.135346 -0.284587
v 0.004595 -0.139885 -0.216506
v 0.004595 -0.139885 -0.216506
v 0.035201 0.042330 -0.899634
v -0.026010 0.042330 -0.899634
v -0.026010 0.040957 -0.808200
v 0.035201 0.040957 -0.808200
v 0.065806 -0.010679 -0.899504
v 0.065806 -0.012053 -0.808070
v 0.035201 -0.063689 -0.899374
v 0.035201 -0.065062 -0.807940
v -0.026010 -0.063689 -0.899374
v -0.026010 -0.065062 -0.807940
v -0.056615 -0.010679 -0.899504
v -0.056615 -0.012053 -0.808070
v -0.026010 0.042330 -0.899634
v -0.026010 0.040957 -0.808200
v -0.026010 0.040957 -0.808200
v 0.004595 -0.012053 -0.808070
v 0.035201 0.040957 -0.808200
v 0.065806 -0.012053 -0.808070
v 0.035201 -0.065062 -0.807940
v -0.026010 -0.065062 -0.807940
v -0.056615 -0.012053 -0.808070
v 0.035201 0.042330 -0.899634
v 0.004595 -0.012894 -0.916042
v -0.026010 0.042330 -0.899634
v 0.065806 -0.010679 -0.899504
v 0.035201 -0.063689 -0.899374
v -0.026010 -0.063689 -0.899374
v -0.056615 -0.010679 -0.899504
v -0.060170 0.029238 -0.174550
v -0.060170 -0.093174 -0.136919
v -0.060170 -0.100835 -0.167890
v -0.060170 0.016992 -0.228488
v -0.060170 -0.174928 -0.215244
v -0.060170 -0.187530 -0.185934
v -0.043635 -0.241135 -0.364553
v -0.060170 -0.174928 -0.215244
v -0.060170 -0.187530 -0.185934
v -0.043635 -0.282708 -0.316182
v -0.089532 0.029238 -0.174550
v -0.089532 0.016992 -0.228488
v -0.089532 -0.100835 -0.167890
v -0.089532 -0.093174 -0.136919
v -0.089532 -0.174928 -0.215244
v -0.089532 -0.187530 -0.185934
v -0.089532 -0.241135 -0.364553
v -0.089532 -0.282708 -0.316182
v -0.060170 0.029238 -0.174550
v -0.089532 0.029238 -0.174550
v -0.089532 -0.093174 -0.136919
v -0.060170 -0.093174 -0.136919
v -0.089532 -0.187530 -0.185934
v -0.060170 -0.187530 -0.185934
v -0.060170 0.016992 -0.228488
v -0.089532 0.016992 -0.228488
v -0.089532 0.029238 -0.174550
v -0.060170 0.029238 -0.174550
v -0.060170 -0.100835 -0.167890
v -0.089532 -0.100835 -0.167890
v -0.089532 0.016992 -0.228488
v -0.060170 0.016992 -0.228488
v -0.060170 -0.174928 -0.215244
v -0.089532 -0.174928 -0.215244
v -0.089532 -0.100835 -0.167890
v -0.060170 -0.100835 -0.167890
v -0.043635 -0.241135 -0.364553
v -0.089532 -0.241135 -0.364553
v -0.089532 -0.174928 -0.215244
v -0.060170 -0.174928 -0.215244
v -0.043635 -0.282708 -0.316182
v -0.089532 -0.282708 -0.316182
v -0.089532 -0.241135 -0.364553
v -0.043635 -0.241135 -0.364553
v -0.060170 -0.187530 -0.185934
v -0.089532 -0.187530 -0.185934
v -0.089532 -0.282708 -0.316182
v -0.043635 -0.282708 -0.316182
v 0.064872 -0.214595 -0.228310
v 0.064872 -0.287246 -0.239305
v 0.094970 -0.287246 -0.239305
v 0.094970 -0.214595 -0.228310
v 0.064872 -0.155447 -0.271908
v 0.094970 -0.155447 -0.271908
v 0.064872 -0.144452 -0.344560
v 0.094970 -0.144452 -0.344560
v 0.064872 -0.188049 -0.403707
v 0.094970 -0.188049 -0.403707
v 0.064872 -0.260701 -0.414702
v 0.094970 -0.260701 -0.414702
v 0.064872 -0.319849 -0.371105
v 0.094970 -0.319849 -0.371105
v 0.064872 -0.330844 -0.298453
v 0.094970 -0.330844 -0.298453
v 0.064872 -0.287246 -0.239305
v 0.094970 -0.287246 -0.239305
v 0.094970 -0.287246 -0.239305
v 0.094970 -0.237648 -0.321506
v 0.094970 -0.214595 -0.228310
v 0.094970 -0.155447 -0.271908
v 0.094970 -0.144452 -0.344560
v 0.094970 -0.188049 -0.403707
v 0.094970 -0.260701 -0.414702
v 0.094970 -0.319849 -0.371105
v 0.094970 -0.330844 -0.298453
v 0.064872 -0.214595 -0.228310
v 0.064872 -0.237648 -0.321506
v 0.064872 -0.287246 -0.239305
v 0.064872 -0.155447 -0.271908
v 0.064872 -0.144452 -0.344560
v 0.064872 -0.188049 -0.403707
v 0.064872 -0.260701 -0.414702
v 0.064872 -0.319849 -0.371105
v 0.064872 -0.330844 -0.298453
v -0.024210 -0.194054 -0.276247
v -0.024210 -0.254799 -0.261221
v 0.066292 -0.254799 -0.261221
v 0.066292 -0.194054 -0.276247
v -0.024210 -0.176695 -0.336365
v 0.066292 -0.176695 -0.336365
v -0.024210 -0.220080 -0.381458
v 0.066292 -0.220080 -0.381458
v -0.024210 -0.280823 -0.366432
v 0.066292 -0.280823 -0.366432
v -0.024210 -0.298182 -0.306314
v 0.066292 -0.298182 -0.306314
v -0.024210 -0.254799 -0.261221
v 0.066292 -0.254799 -0.261221
v 0.066292 -0.254799 -0.261221
v 0.066292 -0.237439 -0.321339
v 0.066292 -0.194054 -0.276247
v 0.066292 -0.176695 -0.336365
v 0.066292 -0.220080 -0.381458
v 0.066292 -0.280823 -0.366432
v 0.066292 -0.298182 -0.306314
v -0.024210 -0.194054 -0.276247
v -0.024210 -0.237439 -0.321339
v -0.024210 -0.254799 -0.261221
v -0.024210 -0.176695 -0.336365
v -0.024210 -0.220080 -0.381458
v -0.024210 -0.280823 -0.366432
v -0.024210 -0.298182 -0.306314
v -0.049114 -0.214595 -0.228310
v -0.049114 -0.287246 -0.239305
v -0.019016 -0.287246 -0.239305
v -0.019016 -0.214595 -0.228310
v -0.049114 -0.155447 -0.271908
v -0.019016 -0.155447 -0.271908
v -0.049114 -0.144452 -0.344560
v -0.019016 -0.144452 -0.344560
v -0.049114 -0.188049 -0.403707
v -0.019016 -0.188049 -0.403707
v -0.049114 -0.260701 -0.414702
v -0.019016 -0.260701 -0.414702
v -0.049114 -0.319849 -0.371105
v -0.019016 -0.319849 -0.371105
v -0.049114 -0.330844 -0.298453
v -0.019016 -0.330844 -0.298453
v -0.049114 -0.287246 -0.239305
v -0.019016 -0.287246 -0.239305
v -0.019016 -0.287246 -0.239305
v -0.019016 -0.237648 -0.321506
v -0.019016 -0.214595 -0.228310
v -0.019016 -0.155447 -0.271908
v -0.019016 -0.144452 -0.344560
v -0.019016 -0.188049 -0.403707
v -0.019016 -0.260701 -0.414702
v -0.019016 -0.319849 -0.371105
v -0.019016 -0.330844 -0.298453
v -0.049114 -0.214595 -0.228310
v -0.049114 -0.237648 -0.321506
v -0.049114 -0.287246 -0.239305
v -0.049114 -0.155447 -0.271908
v -0.049114 -0.144452 -0.344560
v -0.049114 -0.188049 -0.403707
v -0.049114 -0.260701 -0.414702
v -0.049114 -0.319849 -0.371105
v -0.049114 -0.330844 -0.298453
v -0.101902 -0.192789 -0.206402
v -0.105074 -0.062623 -0.242019
v -0.100805 -0.146910 -0.155235
v -0.099647 -0.175089 -0.280440
v -0.080010 -0.110670 -0.430022
v -0.099099 -0.181703 -0.323956
v -0.075924 0.047496 -0.267795
v -0.073826 0.012138 -0.408267
v -0.045213 0.125299 -0.284711
v -0.044866 0.115269 -0.325982
v -0.076236 0.081642 -0.122272
v -0.045571 0.135621 -0.242237
v -0.083241 -0.017508 -0.046686
v -0.100914 -0.129369 -0.108613
v -0.201137 -0.063287 -0.236984
v -0.154410 -0.192973 -0.205564
v -0.154410 -0.146850 -0.154604
v -0.188884 -0.037406 -0.132362
v -0.167772 0.047662 -0.264810
v -0.155519 0.066969 -0.186756
v -0.097014 0.126991 -0.286194
v -0.155519 0.026046 -0.352194
v -0.133546 0.012062 -0.408727
v -0.134953 -0.111002 -0.429885
v -0.188884 -0.092258 -0.354110
v -0.154410 -0.175540 -0.279699
v -0.154410 -0.182328 -0.323191
v -0.097014 0.116793 -0.327425
v -0.133546 0.082737 -0.123010
v -0.097014 0.137488 -0.243762
v -0.134953 -0.016272 -0.046920
v -0.154410 -0.129113 -0.108057
v -0.099099 -0.181703 -0.323956
v -0.099647 -0.175089 -0.280440
v -0.080010 -0.110670 -0.430022
v -0.073826 0.012138 -0.408267
v -0.044866 0.115269 -0.325982
v -0.045213 0.125299 -0.284711
v -0.101902 -0.192789 -0.206402
v -0.100805 -0.146910 -0.155235
v -0.045571 0.135621 -0.242237
v -0.076236 0.081642 -0.122272
v -0.083241 -0.017508 -0.046686
v -0.100914 -0.129369 -0.108613
vn 0.9910 0.1258 -0.0462
vn 0.9994 -0.0282 0.0217
vn 0.9997 -0.0247 -0.0014
vn 0.9967 0.0162 -0.0790
vn 0.9901 0.0925 -0.1057
vn 0.9790 0.1994 -0.0426
vn 0.9613 0.2656 -0.0730
vn 0.9904 0.1303 -0.0470
vn 0.9347 0.3436 -0.0914
vn 0.9381 0.3346 -0.0892
vn 0.9905 0.1334 -0.0340
vn 0.9899 0.1353 0.0431
vn 0.9964 0.0595 0.0609
vn 0.9994 -0.0286 0.0193
vn 0.9460 0.0757 0.3151
vn 0.9325 -0.3034 0.1959
vn 0.9368 -0.3353 0.0996
vn 0.8789 0.4647 -0.1076
vn 0.8374 0.5359 0.1075
vn 0.8056 0.5753 -0.1412
vn 0.8295 0.4302 -0.3562
vn 0.8863 0.2548 -0.3866
vn 0.8739 -0.1009 -0.4755
vn 0.9216 -0.1507 -0.3578
vn 0.9066 -0.3968 -0.1434
vn 0.9759 0.2158 -0.0337
vn 0.9137 0.3945 -0.0976
vn 0.9041 0.3780 0.1991
vn 0.9137 0.3944 -0.0976
vn 0.8739 0.1667 0.4567
vn 0.9206 -0.2717 0.2806
vn -0.0068 -0.9710 -0.2389
vn -0.0087 -0.9812 -0.1926
vn -0.0086 -0.9991 -0.0406
vn -0.0067 -0.9993 -0.0364
vn -0.0086 -0.9675 0.2527
vn -0.0031 -0.8315 -0.5555
vn -0.0036 -0.8316 -0.5553
vn 0.0035 0.1746 -0.9846
vn -0.0050 0.4287 -0.9034
vn 0.0004 0.1731 -0.9849
vn -0.0106 0.3829 -0.9237
vn -0.0347 0.8519 -0.5225
vn -0.0408 0.8186 -0.5729
vn -0.0375 0.9709 -0.2366
vn -0.0396 0.9702 -0.2390
vn -0.0328 0.9968 0.0732
vn -0.0315 0.9930 0.1138
vn -0.0083 0.7925 0.6098
vn -0.0078 0.7684 0.6399
vn -0.0084 0.6084 0.7936
vn -0.0110 0.6092 0.7929
vn -0.0041 -0.8542 0.5199
vn -0.0065 -0.8540 0.5203
vn -0.0042 -0.7639 0.6454
vn -0.0058 -0.9706 0.2406
vn -0.0005 -0.7460 0.6660
vn 0.0101 -0.4812 0.8766
vn 0.0155 -0.4824 0.8758
vn -0.0000 0.2401 0.9707
vn -0.0000 -0.3852 0.9228
vn 0.8660 0.1201 0.4854
vn 0.6957 -0.4816 0.5329
vn 0.6957 -0.4817 0.5329
vn 0.8660 -0.1201 -0.4854
vn 0.6957 -0.6746 -0.2469
vn -0.0000 -0.2401 -0.9707
vn -0.0000 -0.7710 -0.6368
vn -0.8660 -0.1201 -0.4854
vn -0.6957 -0.6746 -0.2469
vn -0.8660 0.1201 0.4854
vn -0.6957 -0.4816 0.5329
vn -0.0000 0.7710 0.6368
vn 0.6957 0.6746 0.2469
vn 0.6957 0.4816 -0.5329
vn 0.6957 0.4817 -0.5329
vn -0.0000 0.3852 -0.9228
vn -0.6957 0.4816 -0.5329
vn -0.6957 0.6745 0.2469
vn -0.6957 0.6746 0.2469
vn 0.3737 -0.9275 0.0072
vn -0.0000 -0.9793 -0.2022
vn -0.3737 -0.9275 0.0072
vn -0.3737 -0.8239 0.4261
vn -0.0000 0.9793 0.2022
vn 0.3737 0.9275 -0.0072
vn 0.3737 0.8239 -0.4260
vn -0.0000 0.7721 -0.6355
vn -0.3737 0.8239 -0.4260
vn -0.3737 0.9275 -0.0072
vn 0.3737 -0.8239 0.4261
vn -0.0000 -0.7721 0.6355
vn 0.6957 -0.6745 -0.2469
vn -0.6957 -0.6745 -0.2469
vn 0.6957 0.6745 0.2469
vn 0.3737 0.8239 -0.4261
vn -0.3737 0.8239 -0.4261
vn -0.0000 -0.7710 -0.6369
vn -0.8660 -0.1200 -0.4854
vn 0.3737 -0.8239 0.4260
vn 0.7046 -0.6475 0.2904
vn 0.7042 -0.6494 0.2872
vn 0.7014 -0.6667 0.2522
vn 0.7003 -0.6723 0.2401
vn 0.7036 0.6541 -0.2775
vn 0.7034 0.6565 -0.2724
vn 0.7013 0.6668 -0.2519
vn 0.7003 0.6725 -0.2397
vn -0.7032 0.6568 -0.2722
vn -0.7038 0.6541 -0.2772
vn -0.7000 0.6728 -0.2394
vn -0.7015 0.6668 -0.2516
vn -0.7044 -0.6490 0.2875
vn -0.7044 -0.6475 0.2908
vn -0.7001 -0.6726 0.2398
vn -0.7015 -0.6667 0.2519
vn 0.7063 -0.6871 0.1702
vn 0.7054 -0.6871 0.1742
vn 0.7068 0.6956 -0.1285
vn 0.7068 0.6949 -0.1325
vn -0.7068 0.6947 -0.1334
vn -0.7069 0.6955 -0.1292
vn -0.7061 -0.6862 0.1748
vn -0.7055 -0.6878 0.1711
vn 0.7044 -0.7095 -0.0207
vn 0.7030 -0.7111 -0.0126
vn 0.7072 0.7006 0.0950
vn 0.7067 0.7023 0.0856
vn -0.7070 0.7020 0.0862
vn -0.7069 0.7008 0.0955
vn -0.7039 -0.7101 -0.0144
vn -0.7037 -0.7102 -0.0223
vn 0.7071 -0.6970 -0.1191
vn 0.7040 0.6780 0.2114
vn -0.7040 0.6780 0.2114
vn -0.7071 -0.6970 -0.1191
vn -0.7028 -0.7068 0.0802
vn -0.7040 -0.7071 0.0661
vn -0.7071 -0.7065 -0.0287
vn -0.7066 0.7075 -0.0091
vn -0.7025 0.7065 -0.0859
vn -0.7014 0.7061 -0.0973
vn 0.7024 0.7067 -0.0857
vn 0.7016 0.7060 -0.0968
vn 0.7038 -0.7073 0.0659
vn 0.7030 -0.7067 0.0798
vn 0.7071 -0.7065 -0.0287
vn 0.7066 0.7075 -0.0091
vn 0.8812 -0.4265 0.2040
vn 0.8831 -0.4315 0.1844
vn 0.8855 -0.4534 0.1013
vn 0.8657 -0.3838 0.3213
vn 0.8645 -0.3834 0.3250
vn 0.8407 -0.3389 0.4224
vn 0.8410 -0.3307 0.4283
vn 0.9267 -0.3644 0.0925
vn 0.9291 -0.3620 0.0759
vn 0.8997 -0.4093 -0.1519
vn 0.8971 -0.4057 -0.1752
vn 0.8772 -0.4751 0.0695
vn 0.8729 -0.4813 0.0802
vn 0.8465 -0.3746 0.3782
vn 0.8481 -0.3610 0.3879
vn 0.8759 -0.1801 0.4476
vn 0.8760 -0.1827 0.4464
vn 0.9525 -0.2956 0.0734
vn 0.9483 -0.3118 0.0598
vn 0.8267 -0.4281 -0.3651
vn 0.8207 -0.4288 -0.3776
vn 0.8585 -0.4891 -0.1541
vn 0.8483 -0.4839 -0.2149
vn 0.8629 -0.4944 0.1051
vn 0.8605 -0.4867 0.1504
vn 0.8623 -0.3953 0.3166
vn 0.8647 -0.3850 0.3227
vn 0.8600 -0.3589 0.3627
vn -0.0000 0.3923 -0.9198
vn -0.0000 0.6804 -0.7328
vn -0.0000 0.9896 -0.1436
vn -0.8382 -0.2290 0.4949
vn -0.8468 -0.2184 0.4850
vn -0.8072 -0.4020 0.4323
vn -0.8068 -0.4140 0.4216
vn -0.0000 0.9236 0.3835
vn -0.8557 -0.5099 0.0886
vn -0.8590 -0.5065 0.0747
vn -0.0000 0.8207 0.5713
vn -0.0000 0.9236 0.3834
vn -0.8546 -0.4744 -0.2111
vn -0.8600 -0.4766 -0.1822
vn -0.9257 -0.3694 0.0819
vn -0.0000 0.4970 -0.8677
vn -0.0000 0.6129 -0.7902
vn -0.9250 -0.3642 0.1085
vn -0.8175 -0.3578 0.4514
vn -0.0000 0.7676 -0.6409
vn -0.8146 -0.3686 0.4479
vn -0.8436 -0.4095 0.3474
vn -0.0000 0.9132 -0.4076
vn -0.8465 -0.4073 0.3427
vn -0.8795 -0.4271 0.2098
vn -0.0000 0.9759 -0.2180
vn -0.8828 -0.4303 0.1886
vn -0.8855 -0.4534 0.1013
vn -0.9484 -0.3071 0.0784
vn -0.9487 -0.3106 0.0591
vn -0.0000 0.4016 -0.9158
vn -0.8332 -0.4216 -0.3578
vn -0.0000 0.6976 0.7165
vn -0.0000 0.7532 0.6578
vn -0.8275 -0.4222 -0.3702
vn -0.8591 -0.4884 -0.1532
vn -0.8484 -0.4839 -0.2149
vn -0.0000 0.9397 0.3420
vn -0.8629 -0.4943 0.1051
vn -0.8605 -0.4867 0.1504
vn -0.0000 0.9660 -0.2586
vn -0.8623 -0.3953 0.3165
vn -0.8647 -0.3850 0.3227
vn -0.0000 0.7729 -0.6345
vn -0.0000 0.7729 -0.6346
vn -0.8600 -0.3589 0.3627
vn -0.0000 0.7034 -0.7108
vn 0.7036 -0.1952 -0.6833
vn 0.7101 0.1429 0.6894
vn -0.7035 0.1458 0.6955
vn -0.7102 -0.1950 -0.6765
vn -0.3737 -0.8239 0.4260
vn -0.0000 0.9999 0.0150
vn 0.8660 0.5000 0.0075
vn 0.8660 -0.5000 -0.0075
vn -0.0000 -0.9999 -0.0150
vn -0.8660 -0.5000 -0.0075
vn -0.8660 0.5000 0.0075
vn -0.0000 -0.0025 -1.0000
vn 0.1260 0.2177 -0.9678
vn -0.0000 -0.0132 -0.9999
vn -0.1260 0.2177 -0.9678
vn 0.2608 -0.0004 -0.9654
vn 0.1352 -0.2344 -0.9627
vn -0.1352 -0.2344 -0.9627
vn -0.2608 -0.0004 -0.9654
vn -1.0000 -0.0000 -0.0000
vn -0.9942 -0.0846 -0.0667
vn -0.9921 -0.1106 -0.0586
vn -0.9906 -0.1256 -0.0540
vn -0.9945 -0.0794 -0.0682
vn -0.0000 -0.2938 -0.9559
vn -0.0000 0.0903 -0.9959
vn -0.0000 0.4610 -0.8874
vn -0.0000 0.9752 -0.2214
vn -0.0000 -0.4574 -0.8893
vn -0.0000 0.5385 -0.8426
vn -0.0000 -0.9142 0.4054
vn -0.0000 -0.7584 -0.6518
vn -0.0000 -0.8074 0.5900
vn -0.0000 -0.1496 0.9887
vn -0.0000 0.8562 0.5166
vn -0.0000 0.9707 -0.2401
vn -0.0000 0.5166 -0.8562
vn -0.0000 -0.8562 -0.5166
vn -0.0000 -0.9707 0.2401
vn -0.0000 -0.8050 0.5933
vn 1.0000 -0.0000 -0.0000
vn -0.0000 0.9608 0.2774
vn -0.0000 0.7206 -0.6933
vn -0.0000 -0.9608 -0.2774
vn -0.0000 -0.7206 0.6933
vn -0.9997 -0.0247 -0.0014
vn -0.9994 -0.0282 0.0217
vn -0.9910 0.1258 -0.0462
vn -0.9967 0.0162 -0.0790
vn -0.9901 0.0925 -0.1057
vn -0.9790 0.1994 -0.0426
vn -0.9613 0.2656 -0.0730
vn -0.9904 0.1303 -0.0470
vn -0.9347 0.3436 -0.0913
vn -0.9381 0.3346 -0.0892
vn -0.9905 0.1334 -0.0340
vn -0.9899 0.1353 0.0431
vn -0.9964 0.0595 0.0609
vn -0.9994 -0.0286 0.0193
vn -0.9368 -0.3353 0.0996
vn -0.9325 -0.3034 0.1959
vn -0.9460 0.0757 0.3151
vn -0.8789 0.4647 -0.1076
vn -0.8374 0.5359 0.1075
vn -0.8056 0.5753 -0.1412
vn -0.8295 0.4302 -0.3562
vn -0.8864 0.2548 -0.3866
vn -0.8739 -0.1009 -0.4755
vn -0.9216 -0.1507 -0.3578
vn -0.9066 -0.3968 -0.1434
vn -0.9759 0.2158 -0.0337
vn -0.9137 0.3945 -0.0976
vn -0.9042 0.3780 0.1991
vn -0.8739 0.1667 0.4567
vn -0.9206 -0.2717 0.2806
vn 0.0087 -0.9812 -0.1926
vn 0.0068 -0.9710 -0.2389
vn 0.0086 -0.9991 -0.0406
vn 0.0067 -0.9993 -0.0364
vn 0.0086 -0.9675 0.2527
vn 0.0036 -0.8316 -0.5553
vn 0.0031 -0.8315 -0.5555
vn 0.0050 0.4287 -0.9034
vn -0.0035 0.1746 -0.9846
vn -0.0004 0.1731 -0.9849
vn 0.0106 0.3829 -0.9237
vn 0.0347 0.8519 -0.5225
vn 0.0408 0.8186 -0.5729
vn 0.0396 0.9702 -0.2390
vn 0.0375 0.9709 -0.2366
vn 0.0058 -0.9706 0.2406
vn 0.0065 -0.8540 0.5203
vn 0.0041 -0.8542 0.5199
vn 0.0042 -0.7639 0.6454
vn 0.0315 0.9930 0.1138
vn 0.0328 0.9968 0.0732
vn 0.0083 0.7925 0.6098
vn 0.0078 0.7684 0.6399
vn 0.0110 0.6092 0.7929
vn 0.0084 0.6084 0.7936
vn 0.0005 -0.7460 0.6660
vn -0.0101 -0.4812 0.8766
vn -0.0155 -0.4824 0.8758
vt 0.403076 0.375000
vt 0.423096 0.343506
vt 0.404053 0.333496
vt 0.383057 0.344238
vt 0.342773 0.375244
vt 0.369629 0.345703
vt 0.403320 0.410889
vt 0.358643 0.410645
vt 0.403809 0.437256
vt 0.390625 0.437256
vt 0.449463 0.410400
vt 0.417480 0.437256
vt 0.465088 0.375000
vt 0.438232 0.345459
vt 0.755859 0.732422
vt 0.666016 0.735352
vt 0.695801 0.633789
vt 0.755859 0.611328
vt 0.756836 0.833496
vt 0.685059 0.832031
vt 0.759766 0.932129
vt 0.836914 0.830566
vt 0.897949 0.840332
vt 0.940918 0.736816
vt 0.855957 0.734863
vt 0.823242 0.636230
vt 0.862793 0.647461
vt 0.800781 0.929687
vt 0.617676 0.842285
vt 0.717285 0.930664
vt 0.572754 0.738281
vt 0.650879 0.648926
vt 0.901367 0.609863
vt 0.849121 0.582031
vt 0.993164 0.734863
vt 0.941895 0.880371
vt 0.814941 0.981445
vt 0.759766 0.986816
vt 0.702148 0.980957
vt 0.574707 0.880371
vt 0.523438 0.735352
vt 0.672852 0.580078
vt 0.757324 0.561035
vt 0.614258 0.609863
vt 0.073547 0.820801
vt 0.020111 0.820801
vt 0.020111 0.740723
vt 0.073547 0.740723
vt 0.126953 0.820801
vt 0.126953 0.740723
vt 0.180298 0.820801
vt 0.180298 0.740723
vt 0.233765 0.820801
vt 0.233765 0.740723
vt 0.287109 0.820801
vt 0.287109 0.740723
vt 0.340576 0.820801
vt 0.340576 0.740723
vt 0.073547 0.901367
vt 0.020111 0.901367
vt 0.126953 0.901367
vt 0.180298 0.901367
vt 0.233765 0.901367
vt 0.287109 0.901367
vt 0.340576 0.901367
vt 0.153564 0.660645
vt 0.207031 0.660645
vt 0.260498 0.660645
vt 0.313721 0.660645
vt 0.046814 0.981445
vt 0.100220 0.981445
vt 0.153564 0.981445
vt 0.207031 0.981445
vt 0.260498 0.981445
vt 0.313721 0.981445
vt 0.100220 0.660645
vt 0.046814 0.660645
vt 0.452393 0.051758
vt 0.452393 0.010582
vt 0.636719 0.010582
vt 0.636719 0.051758
vt 0.452393 0.096497
vt 0.636719 0.096497
vt 0.452393 0.147217
vt 0.636719 0.147217
vt 0.452393 0.187988
vt 0.636719 0.187988
vt 0.282227 0.051758
vt 0.282227 0.010582
vt 0.282227 0.096497
vt 0.282227 0.147217
vt 0.282227 0.187988
vt 0.131470 0.051758
vt 0.131470 0.010582
vt 0.131470 0.096497
vt 0.131470 0.147217
vt 0.131470 0.187988
vt 0.003836 0.051758
vt 0.003836 0.010582
vt 0.003836 0.096497
vt 0.003836 0.147217
vt 0.003836 0.187988
vt 0.809082 0.147217
vt 0.809082 0.187988
vt 0.991699 0.147217
vt 0.991699 0.096497
vt 0.809082 0.096497
vt 0.809082 0.051758
vt 0.809082 0.010582
vt 0.991699 0.010582
vt 0.991699 0.051758
vt 0.991699 0.187988
vt 0.069519 0.276611
vt 0.069519 0.297363
vt 0.006382 0.297363
vt 0.006382 0.276611
vt 0.141724 0.297363
vt 0.141724 0.276611
vt 0.265869 0.297363
vt 0.265869 0.276611
vt 0.320068 0.297363
vt 0.320068 0.276611
vt 0.397949 0.297363
vt 0.397949 0.276611
vt 0.477051 0.297363
vt 0.477051 0.276611
vt 0.566406 0.297363
vt 0.566406 0.276611
vt 0.651855 0.297363
vt 0.651855 0.276611
vt 0.681641 0.297363
vt 0.681641 0.276611
vt 0.735840 0.297363
vt 0.735840 0.276611
vt 0.797852 0.297363
vt 0.797852 0.276611
vt 0.845703 0.297363
vt 0.845703 0.276611
vt 0.907227 0.297363
vt 0.907227 0.276611
vt 0.988281 0.297363
vt 0.988281 0.276611
vt 0.651855 0.251709
vt 0.566406 0.251709
vt 0.651855 0.231567
vt 0.566406 0.231567
vt 0.477051 0.251709
vt 0.477051 0.231567
vt 0.397949 0.251709
vt 0.397949 0.231567
vt 0.320068 0.251709
vt 0.320068 0.231567
vt 0.265869 0.251709
vt 0.265869 0.231567
vt 0.141724 0.251709
vt 0.141724 0.231567
vt 0.069519 0.251709
vt 0.069519 0.231567
vt 0.006382 0.231567
vt 0.006382 0.251709
vt 0.681641 0.231567
vt 0.681641 0.251709
vt 0.735840 0.231567
vt 0.735840 0.251709
vt 0.797852 0.231567
vt 0.797852 0.251709
vt 0.845703 0.231567
vt 0.845703 0.251709
vt 0.907227 0.231567
vt 0.907227 0.251709
vt 0.988281 0.231567
vt 0.988281 0.251709
vt 0.845215 0.311523
vt 0.844238 0.335205
vt 0.406006 0.312988
vt 0.842773 0.357422
vt 0.839844 0.380859
vt 0.835938 0.402832
vt 0.087036 0.637207
vt 0.028397 0.637207
vt 0.028152 0.549316
vt 0.086792 0.549316
vt 0.145630 0.637207
vt 0.145508 0.549316
vt 0.204346 0.637207
vt 0.204102 0.549316
vt 0.262939 0.637207
vt 0.262695 0.549316
vt 0.321533 0.637207
vt 0.321289 0.549316
vt 0.380371 0.637207
vt 0.380127 0.549316
vt 0.383789 0.445557
vt 0.331299 0.445557
vt 0.357666 0.490967
vt 0.305176 0.490967
vt 0.331299 0.536621
vt 0.383789 0.536621
vt 0.409912 0.490967
vt 0.828125 0.516602
vt 0.853516 0.471191
vt 0.878418 0.516602
vt 0.802734 0.472900
vt 0.828125 0.429199
vt 0.878418 0.429199
vt 0.903809 0.472900
vt 0.503418 0.924316
vt 0.475342 0.823730
vt 0.457520 0.839844
vt 0.534180 0.896484
vt 0.482178 0.759277
vt 0.458496 0.759766
vt 0.549805 0.659180
vt 0.503906 0.645508
vt 0.412354 0.668945
vt 0.453613 0.676758
vt 0.411133 0.771484
vt 0.389404 0.761719
vt 0.416504 0.843750
vt 0.393311 0.837891
vt 0.465088 0.960937
vt 0.416504 0.958496
vt 0.390625 0.663574
vt 0.367432 0.759277
vt 0.371094 0.840820
vt 0.548828 0.912598
vt 0.518555 0.940430
vt 0.432861 0.776367
vt 0.473877 0.685547
vt 0.438232 0.837891
vt 0.497559 0.947754
vt 0.514160 0.612793
vt 0.559570 0.626465
vt 0.382080 0.965332
vt 0.063904 0.533691
vt 0.029495 0.535645
vt 0.029510 0.469482
vt 0.063904 0.471436
vt 0.095154 0.533691
vt 0.095154 0.471436
vt 0.126343 0.533691
vt 0.126343 0.471436
vt 0.157593 0.533691
vt 0.157593 0.471436
vt 0.188843 0.533691
vt 0.188843 0.471436
vt 0.220093 0.533691
vt 0.220093 0.471436
vt 0.251221 0.533691
vt 0.251221 0.471436
vt 0.285645 0.535645
vt 0.285645 0.469482
vt 0.978027 0.511719
vt 0.940430 0.549316
vt 0.940430 0.496582
vt 0.903320 0.511719
vt 0.887695 0.549316
vt 0.903320 0.586914
vt 0.940430 0.602051
vt 0.978027 0.586914
vt 0.993652 0.549316
vt 0.905273 0.420654
vt 0.942383 0.405518
vt 0.905273 0.366455
vt 0.868652 0.405518
vt 0.853516 0.368652
vt 0.868652 0.331787
vt 0.905273 0.316406
vt 0.942383 0.331787
vt 0.957520 0.368652
vt 0.075012 0.371094
vt 0.034424 0.371338
vt 0.034149 0.312744
vt 0.074707 0.312500
vt 0.115601 0.371094
vt 0.115356 0.312256
vt 0.156250 0.370850
vt 0.155884 0.312012
vt 0.196777 0.370605
vt 0.196533 0.311768
vt 0.237427 0.370361
vt 0.237183 0.311768
vt 0.278076 0.370117
vt 0.277588 0.311523
vt 0.755859 0.435303
vt 0.725098 0.489014
vt 0.693848 0.435303
vt 0.663086 0.489014
vt 0.693848 0.542480
vt 0.755859 0.542480
vt 0.787109 0.489014
vt 0.497314 0.471436
vt 0.526855 0.419922
vt 0.556641 0.471436
vt 0.467529 0.419922
vt 0.497314 0.368408
vt 0.556641 0.368408
vt 0.586426 0.419922
vt 0.063049 0.452148
vt 0.031738 0.455322
vt 0.031738 0.385254
vt 0.063049 0.388428
vt 0.090454 0.452148
vt 0.090454 0.388428
vt 0.117859 0.452148
vt 0.117859 0.388428
vt 0.145264 0.452148
vt 0.145264 0.388428
vt 0.172729 0.452148
vt 0.172729 0.388428
vt 0.200073 0.452148
vt 0.200073 0.388428
vt 0.227539 0.452148
vt 0.227417 0.388428
vt 0.258789 0.455322
vt 0.258789 0.385254
vt 0.509277 0.508301
vt 0.462891 0.489502
vt 0.462891 0.552246
vt 0.416748 0.508301
vt 0.397705 0.554687
vt 0.416748 0.601074
vt 0.462891 0.620117
vt 0.509277 0.601074
vt 0.528320 0.554687
vt 0.598145 0.594238
vt 0.598145 0.530762
vt 0.641602 0.576660
vt 0.555176 0.576660
vt 0.537109 0.533203
vt 0.555176 0.489990
vt 0.598145 0.472168
vt 0.641602 0.489990
vt 0.659668 0.533203
s 1
f 1/1/1 3/2/2 2/3/3
f 1/1/1 2/3/3 4/4/4
f 1/1/1 4/4/4 5/5/5
f 5/5/5 4/4/4 6/6/6
f 5/5/5 7/7/7 1/1/1
f 8/8/8 7/7/7 5/5/5
f 8/8/8 9/9/9 7/7/7
f 10/10/10 9/9/9 8/8/8
f 9/9/9 11/11/11 7/7/7
f 12/12/10 11/11/11 9/9/9
f 11/11/11 13/13/12 7/7/7
f 7/7/7 13/13/12 1/1/1
f 13/13/12 14/14/13 1/1/1
f 1/1/1 14/14/13 3/2/2
f 15/15/14 16/16/15 17/17/16
f 18/18/17 15/15/14 17/17/16
f 15/15/14 19/19/18 16/16/15
f 19/19/18 20/20/19 16/16/15
f 19/19/18 21/21/20 20/20/19
f 19/19/18 22/22/21 21/21/20
f 22/22/21 23/23/22 21/21/20
f 24/24/23 23/23/22 22/22/21
f 25/25/24 24/24/23 22/22/21
f 25/25/24 22/22/21 19/19/18
f 15/15/14 25/25/24 19/19/18
f 25/25/24 15/15/14 18/18/17
f 26/26/25 25/25/24 18/18/17
f 24/24/23 25/25/24 26/26/25
f 27/27/26 24/24/23 26/26/25
f 23/23/22 28/28/27 21/21/20
f 20/20/19 21/21/20 29/29/28
f 21/21/20 30/30/29 29/29/28
f 20/20/19 29/29/28 31/31/30
f 16/16/15 20/20/19 31/31/30
f 17/17/16 16/16/15 32/32/31
f 16/16/15 31/31/30 32/32/31
f 33/33/32 27/27/33 26/26/34
f 34/34/35 33/33/32 26/26/34
f 34/34/35 26/26/34 18/18/36
f 35/35/37 24/24/38 27/27/33
f 33/33/32 35/35/37 27/27/33
f 35/35/39 36/36/40 24/24/41
f 36/36/40 23/23/42 24/24/41
f 36/36/40 37/37/43 23/23/42
f 37/37/43 28/28/44 23/23/42
f 38/38/45 21/21/46 28/28/44
f 37/37/43 38/38/45 28/28/44
f 38/38/45 39/39/47 21/21/46
f 39/39/47 30/30/48 21/21/46
f 39/39/47 40/40/49 30/30/48
f 40/40/49 29/29/50 30/30/48
f 41/41/51 31/31/52 29/29/50
f 40/40/49 41/41/51 29/29/50
f 42/42/53 17/17/54 32/32/55
f 43/43/56 34/34/35 18/18/36
f 43/43/56 18/18/36 17/17/54
f 42/42/53 43/43/56 17/17/54
f 44/44/57 42/42/53 32/32/55
f 44/44/57 32/32/55 31/31/58
f 41/41/59 44/44/57 31/31/58
f 45/45/60 46/46/60 47/47/61
f 48/48/61 45/45/60 47/47/61
f 49/49/62 45/45/62 48/48/63
f 50/50/64 49/49/62 48/48/63
f 51/51/65 49/49/65 50/50/66
f 52/52/66 51/51/65 50/50/66
f 53/53/67 51/51/67 52/52/68
f 54/54/68 53/53/67 52/52/68
f 55/55/69 53/53/69 54/54/70
f 56/56/70 55/55/69 54/54/70
f 57/57/71 55/55/71 56/56/72
f 58/58/72 57/57/71 56/56/72
f 45/45/60 59/59/73 46/46/60
f 59/59/73 60/60/73 46/46/60
f 49/49/62 61/61/74 45/45/62
f 61/61/74 59/59/74 45/45/62
f 51/51/65 62/62/75 49/49/65
f 62/62/75 61/61/76 49/49/65
f 53/53/67 63/63/77 51/51/67
f 63/63/77 62/62/77 51/51/67
f 64/64/78 63/63/78 53/53/69
f 55/55/69 64/64/78 53/53/69
f 57/57/71 65/65/79 55/55/71
f 65/65/79 64/64/80 55/55/71
f 50/50/66 66/66/81 52/52/66
f 52/52/68 67/67/82 54/54/68
f 54/54/70 68/68/83 56/56/70
f 56/56/72 69/69/84 58/58/72
f 59/59/73 70/70/85 60/60/73
f 61/61/74 71/71/86 59/59/74
f 62/62/75 72/72/87 61/61/76
f 63/63/77 73/73/88 62/62/77
f 64/64/78 74/74/89 63/63/78
f 65/65/79 75/75/90 64/64/80
f 48/48/63 76/76/91 50/50/64
f 47/47/61 77/77/92 48/48/61
f 78/45/60 79/46/60 80/47/61
f 81/48/61 78/45/60 80/47/61
f 82/49/62 78/45/62 81/48/63
f 83/50/63 82/49/62 81/48/63
f 84/51/65 82/49/65 83/50/93
f 85/52/93 84/51/65 83/50/93
f 86/53/67 84/51/67 85/52/68
f 87/54/68 86/53/67 85/52/68
f 88/55/69 86/53/69 87/54/94
f 89/56/94 88/55/69 87/54/94
f 90/57/71 88/55/71 89/56/72
f 91/58/72 90/57/71 89/56/72
f 78/45/60 92/59/73 79/46/60
f 92/59/73 93/60/73 79/46/60
f 82/49/62 94/61/95 78/45/62
f 94/61/95 92/59/95 78/45/62
f 95/62/75 94/61/75 82/49/65
f 84/51/65 95/62/75 82/49/65
f 86/53/67 96/63/77 84/51/67
f 96/63/77 95/62/77 84/51/67
f 88/55/69 97/64/78 86/53/69
f 97/64/78 96/63/78 86/53/69
f 90/57/71 98/65/79 88/55/71
f 98/65/79 97/64/79 88/55/71
f 83/50/93 99/66/81 85/52/93
f 85/52/68 100/67/82 87/54/68
f 87/54/94 101/68/83 89/56/94
f 89/56/72 102/69/84 91/58/72
f 92/59/73 103/70/85 93/60/73
f 94/61/95 104/71/86 92/59/95
f 95/62/75 105/72/96 94/61/75
f 96/63/77 106/73/88 95/62/77
f 97/64/78 107/74/97 96/63/78
f 98/65/79 108/75/90 97/64/79
f 81/48/63 109/76/91 83/50/63
f 80/47/61 110/77/92 81/48/61
f 111/45/60 112/46/60 113/47/61
f 114/48/61 111/45/60 113/47/61
f 115/49/62 111/45/62 114/48/63
f 116/50/63 115/49/62 114/48/63
f 117/51/65 115/49/65 116/50/93
f 118/52/93 117/51/65 116/50/93
f 119/53/67 117/51/67 118/52/98
f 120/54/68 119/53/67 118/52/98
f 121/55/69 119/53/99 120/54/94
f 122/56/70 121/55/69 120/54/94
f 123/57/71 121/55/71 122/56/72
f 124/58/72 123/57/71 122/56/72
f 111/45/60 125/59/73 112/46/60
f 125/59/73 126/60/73 112/46/60
f 127/61/74 125/59/74 111/45/62
f 115/49/62 127/61/74 111/45/62
f 117/51/65 128/62/75 115/49/65
f 128/62/75 127/61/76 115/49/65
f 119/53/67 129/63/77 117/51/67
f 129/63/77 128/62/77 117/51/67
f 121/55/69 130/64/78 119/53/99
f 130/64/78 129/63/78 119/53/99
f 131/65/79 130/64/80 121/55/71
f 123/57/71 131/65/79 121/55/71
f 116/50/93 132/66/81 118/52/93
f 118/52/98 133/67/82 120/54/68
f 120/54/94 134/68/83 122/56/70
f 122/56/72 135/69/84 124/58/72
f 125/59/73 136/70/85 126/60/73
f 127/61/74 137/71/86 125/59/74
f 128/62/75 138/72/96 127/61/76
f 129/63/77 139/73/88 128/62/77
f 130/64/78 140/74/97 129/63/78
f 131/65/79 141/75/90 130/64/80
f 114/48/63 142/76/100 116/50/63
f 113/47/61 143/77/92 114/48/61
f 144/78/101 145/79/102 146/80/103
f 147/81/104 144/78/101 146/80/103
f 148/82/105 144/78/106 147/81/107
f 149/83/108 148/82/105 147/81/107
f 150/84/109 148/82/110 149/83/111
f 151/85/112 150/84/109 149/83/111
f 152/86/113 150/84/114 151/85/115
f 153/87/116 152/86/113 151/85/115
f 144/78/101 154/88/117 145/79/102
f 154/88/117 155/89/118 145/79/102
f 156/90/119 154/88/120 144/78/106
f 148/82/105 156/90/119 144/78/106
f 150/84/109 157/91/121 148/82/110
f 157/91/121 156/90/122 148/82/110
f 152/86/113 158/92/123 150/84/114
f 158/92/123 157/91/124 150/84/114
f 154/88/117 159/93/125 155/89/118
f 159/93/125 160/94/126 155/89/118
f 161/95/127 159/93/128 154/88/120
f 156/90/119 161/95/127 154/88/120
f 157/91/121 162/96/129 156/90/122
f 162/96/129 161/95/130 156/90/122
f 158/92/123 163/97/131 157/91/124
f 163/97/131 162/96/132 157/91/124
f 159/93/125 164/98/133 160/94/126
f 164/98/133 165/99/133 160/94/126
f 166/100/134 164/98/134 159/93/128
f 161/95/127 166/100/134 159/93/128
f 162/96/129 167/101/135 161/95/130
f 167/101/135 166/100/135 161/95/130
f 163/97/131 168/102/136 162/96/132
f 168/102/136 167/101/136 162/96/132
f 151/85/115 169/103/137 153/87/116
f 169/103/137 170/104/138 153/87/116
f 169/103/137 171/105/139 170/104/138
f 172/106/140 171/105/140 169/103/141
f 173/107/142 169/103/141 151/85/112
f 149/83/111 173/107/142 151/85/112
f 173/107/142 172/106/140 169/103/141
f 174/108/143 173/107/144 149/83/108
f 147/81/107 174/108/143 149/83/108
f 146/80/103 175/109/145 147/81/104
f 175/109/145 174/108/146 147/81/104
f 175/109/145 176/110/147 174/108/146
f 177/111/148 172/106/148 173/107/144
f 174/108/143 177/111/148 173/107/144
f 176/110/147 177/111/147 174/108/146
f 171/105/139 178/112/139 170/104/138
f 179/113/149 180/114/150 181/115/151
f 182/116/151 179/113/149 181/115/151
f 183/117/152 180/114/150 179/113/149
f 184/118/153 183/117/152 179/113/149
f 185/119/154 183/117/152 184/118/153
f 186/120/155 185/119/154 184/118/153
f 187/121/156 185/119/154 186/120/155
f 188/122/157 187/121/156 186/120/155
f 189/123/158 187/121/156 188/122/157
f 190/124/159 189/123/158 188/122/157
f 191/125/160 189/123/158 190/124/159
f 192/126/161 191/125/160 190/124/159
f 193/127/162 191/125/160 192/126/161
f 194/128/163 193/127/162 192/126/161
f 195/129/164 193/127/162 194/128/163
f 196/130/165 195/129/164 194/128/163
f 197/131/166 195/129/164 196/130/165
f 198/132/167 197/131/166 196/130/165
f 199/133/168 197/131/166 198/132/167
f 200/134/169 199/133/168 198/132/167
f 201/135/170 199/133/168 200/134/169
f 202/136/171 201/135/170 200/134/169
f 203/137/172 201/135/170 202/136/171
f 204/138/173 203/137/172 202/136/171
f 205/139/174 203/137/172 204/138/173
f 206/140/175 205/139/174 204/138/173
f 207/141/176 205/139/174 206/140/175
f 208/142/176 207/141/176 206/140/175
f 196/130/177 194/128/178 209/143/177
f 194/128/178 192/126/179 210/144/178
f 194/128/178 210/144/178 209/143/177
f 211/145/180 209/143/181 210/144/182
f 212/146/183 211/145/180 210/144/182
f 192/126/179 190/124/184 213/147/179
f 192/126/179 213/147/179 210/144/178
f 212/146/183 210/144/182 213/147/185
f 214/148/186 212/146/183 213/147/185
f 190/124/184 188/122/187 215/149/188
f 214/148/186 213/147/185 215/149/189
f 190/124/184 215/149/188 213/147/179
f 216/150/190 214/148/186 215/149/189
f 216/150/190 215/149/189 217/151/191
f 188/122/187 217/151/187 215/149/188
f 188/122/192 186/120/193 217/151/192
f 218/152/194 216/150/190 217/151/191
f 218/152/194 217/151/191 219/153/195
f 186/120/193 219/153/193 217/151/192
f 186/120/193 184/118/196 219/153/193
f 220/154/197 218/152/194 219/153/195
f 184/118/196 221/155/196 219/153/193
f 220/154/197 219/153/195 221/155/198
f 184/118/196 179/113/199 221/155/196
f 222/156/200 220/154/197 221/155/198
f 222/156/200 221/155/198 223/157/201
f 179/113/199 182/116/202 223/157/199
f 179/113/199 223/157/199 221/155/196
f 224/158/203 222/156/200 223/157/201
f 224/158/203 223/157/201 225/159/204
f 223/157/201 226/160/204 225/159/204
f 182/116/202 226/160/202 223/157/199
f 211/145/180 227/161/205 209/143/181
f 227/161/205 228/162/206 209/143/181
f 198/132/207 196/130/177 228/162/207
f 196/130/177 209/143/177 228/162/207
f 227/161/205 229/163/208 228/162/206
f 198/132/209 228/162/209 230/164/210
f 229/163/208 230/164/211 228/162/206
f 200/134/210 198/132/209 230/164/210
f 229/163/208 231/165/212 230/164/211
f 231/165/212 232/166/213 230/164/211
f 200/134/210 230/164/210 232/166/214
f 202/136/214 200/134/210 232/166/214
f 231/165/212 233/167/215 232/166/213
f 233/167/215 234/168/216 232/166/213
f 204/138/217 202/136/214 234/168/217
f 202/136/214 232/166/214 234/168/217
f 233/167/215 235/169/218 234/168/216
f 235/169/218 236/170/219 234/168/216
f 206/140/220 204/138/217 236/170/221
f 204/138/217 234/168/217 236/170/221
f 235/169/218 237/171/222 236/170/219
f 237/171/222 238/172/222 236/170/219
f 206/140/220 236/170/221 238/172/223
f 208/142/223 206/140/220 238/172/223
f 239/173/224 240/174/224 241/175/224
f 240/174/225 242/176/225 241/175/225
f 243/177/226 241/175/226 242/176/226
f 243/177/227 244/178/227 241/175/227
f 245/45/60 246/46/60 247/47/61
f 248/48/61 245/45/60 247/47/61
f 249/49/62 245/45/62 248/48/63
f 250/50/64 249/49/62 248/48/63
f 251/51/65 249/49/65 250/50/93
f 252/52/93 251/51/65 250/50/93
f 253/53/67 251/51/67 252/52/68
f 254/54/68 253/53/67 252/52/68
f 255/55/69 253/53/69 254/54/94
f 256/56/94 255/55/69 254/54/94
f 257/57/71 255/55/71 256/56/72
f 258/58/72 257/57/71 256/56/72
f 245/45/60 259/59/73 246/46/60
f 259/59/73 260/60/73 246/46/60
f 249/49/62 261/61/74 245/45/62
f 261/61/74 259/59/74 245/45/62
f 262/62/75 261/61/76 249/49/65
f 251/51/65 262/62/75 249/49/65
f 253/53/67 263/63/77 251/51/67
f 263/63/77 262/62/77 251/51/67
f 255/55/69 264/64/78 253/53/69
f 264/64/78 263/63/78 253/53/69
f 257/57/71 265/65/79 255/55/71
f 265/65/79 264/64/80 255/55/71
f 250/50/93 266/66/81 252/52/93
f 252/52/68 267/67/82 254/54/68
f 254/54/94 268/68/83 256/56/94
f 256/56/72 269/69/228 258/58/72
f 259/59/73 270/70/85 260/60/73
f 261/61/74 271/71/86 259/59/74
f 262/62/75 272/72/87 261/61/76
f 263/63/77 273/73/88 262/62/77
f 264/64/78 274/74/97 263/63/78
f 265/65/79 275/75/90 264/64/80
f 248/48/63 276/76/100 250/50/64
f 247/47/61 277/77/92 248/48/61
f 278/179/229 279/180/229 280/181/229
f 281/182/229 278/179/229 280/181/229
f 282/183/230 278/179/230 281/182/230
f 283/184/230 282/183/230 281/182/230
f 284/185/231 282/183/231 283/184/231
f 285/186/231 284/185/231 283/184/231
f 286/187/232 284/185/232 285/186/232
f 287/188/232 286/187/232 285/186/232
f 288/189/233 286/187/233 287/188/233
f 289/190/233 288/189/233 287/188/233
f 290/191/234 288/189/234 289/190/234
f 291/192/234 290/191/234 289/190/234
f 292/193/235 294/194/235 293/195/235
f 294/194/235 295/196/235 293/195/235
f 295/196/235 296/197/235 293/195/235
f 296/197/235 297/198/235 293/195/235
f 297/198/235 298/199/235 293/195/235
f 298/199/235 292/193/235 293/195/235
f 299/200/236 300/201/237 301/202/238
f 302/203/239 300/201/237 299/200/236
f 303/204/240 300/201/237 302/203/239
f 304/205/241 300/201/237 303/204/240
f 301/202/238 300/201/237 305/206/242
f 305/206/242 300/201/237 304/205/241
f 306/207/243 308/208/243 307/209/243
f 309/210/243 308/208/243 306/207/243
f 310/211/243 307/209/243 308/208/243
f 311/212/243 307/209/243 310/211/243
f 312/213/244 314/212/245 313/211/246
f 315/214/247 314/212/245 312/213/244
f 316/215/243 317/216/243 318/217/243
f 319/218/243 316/215/243 318/217/243
f 318/217/243 320/219/243 319/218/243
f 320/219/243 321/220/243 319/218/243
f 320/219/243 322/221/243 321/220/243
f 322/221/243 323/222/243 321/220/243
f 324/223/248 326/218/249 325/215/248
f 327/224/249 326/218/249 324/223/248
f 327/224/249 328/220/250 326/218/249
f 329/225/250 328/220/250 327/224/249
f 330/210/251 331/226/251 332/227/251
f 333/207/251 330/210/251 332/227/251
f 334/228/252 335/217/252 336/216/252
f 337/229/252 334/228/252 336/216/252
f 338/230/253 339/219/253 340/217/253
f 341/228/253 338/230/253 340/217/253
f 342/231/254 344/219/254 343/221/254
f 345/230/254 344/219/254 342/231/254
f 346/214/255 347/232/255 348/233/255
f 349/213/255 346/214/255 348/233/255
f 350/225/256 351/220/256 352/222/256
f 353/234/256 350/225/256 352/222/256
f 354/235/60 355/236/257 356/237/257
f 357/238/60 354/235/60 356/237/257
f 358/239/258 354/235/60 357/238/60
f 359/240/258 358/239/258 357/238/60
f 360/241/259 358/239/258 359/240/258
f 361/242/259 360/241/259 359/240/258
f 362/243/260 360/241/259 361/242/259
f 363/244/260 362/243/260 361/242/259
f 364/245/67 362/243/260 363/244/260
f 365/246/67 364/245/67 363/244/260
f 366/247/261 364/245/67 365/246/67
f 367/248/261 366/247/261 365/246/67
f 368/249/262 366/247/261 367/248/261
f 369/250/262 368/249/262 367/248/261
f 370/251/263 368/249/262 369/250/262
f 371/252/263 370/251/263 369/250/262
f 372/253/264 373/254/264 374/255/264
f 374/255/264 373/254/264 375/256/264
f 375/256/264 373/254/264 376/257/264
f 376/257/264 373/254/264 377/258/264
f 377/258/264 373/254/264 378/259/264
f 378/259/264 373/254/264 379/260/264
f 380/261/264 373/254/264 372/253/264
f 379/260/264 373/254/264 380/261/264
f 381/262/264 383/263/264 382/264/264
f 384/265/264 381/262/264 382/264/264
f 385/266/264 384/265/264 382/264/264
f 386/267/264 385/266/264 382/264/264
f 387/268/264 386/267/264 382/264/264
f 388/269/264 387/268/264 382/264/264
f 383/263/264 389/270/264 382/264/264
f 389/270/264 388/269/264 382/264/264
f 390/271/60 391/272/60 392/273/60
f 393/274/60 390/271/60 392/273/60
f 394/275/265 390/271/265 393/274/265
f 395/276/265 394/275/265 393/274/265
f 396/277/266 394/275/266 395/276/266
f 397/278/266 396/277/266 395/276/266
f 398/279/67 396/277/67 397/278/67
f 399/280/67 398/279/67 397/278/67
f 400/281/267 398/279/267 399/280/267
f 401/282/267 400/281/267 399/280/267
f 402/283/268 400/281/268 401/282/268
f 403/284/268 402/283/268 401/282/268
f 404/285/264 405/286/264 406/287/264
f 406/287/264 405/286/264 407/288/264
f 407/288/264 405/286/264 408/289/264
f 408/289/264 405/286/264 409/290/264
f 410/291/264 405/286/264 404/285/264
f 409/290/264 405/286/264 410/291/264
f 411/292/243 412/293/243 413/294/243
f 414/295/243 412/293/243 411/292/243
f 415/296/243 412/293/243 414/295/243
f 416/297/243 412/293/243 415/296/243
f 413/294/243 412/293/243 417/298/243
f 417/298/243 412/293/243 416/297/243
f 418/299/60 419/300/257 420/301/257
f 421/302/60 418/299/60 420/301/257
f 422/303/258 418/299/60 421/302/60
f 423/304/258 422/303/258 421/302/60
f 424/305/259 422/303/258 423/304/258
f 425/306/259 424/305/259 423/304/258
f 426/307/260 424/305/259 425/306/259
f 427/308/260 426/307/260 425/306/259
f 428/309/67 426/307/260 427/308/260
f 429/310/67 428/309/67 427/308/260
f 430/311/261 428/309/67 429/310/67
f 431/312/261 430/311/261 429/310/67
f 432/313/262 430/311/261 431/312/261
f 433/314/262 432/313/262 431/312/261
f 434/315/263 432/313/262 433/314/262
f 435/316/263 434/315/263 433/314/262
f 436/317/243 438/318/243 437/319/243
f 438/318/243 439/320/243 437/319/243
f 439/320/243 440/321/243 437/319/243
f 440/321/243 441/322/243 437/319/243
f 441/322/243 442/323/243 437/319/243
f 442/323/243 443/324/243 437/319/243
f 443/324/243 444/325/243 437/319/243
f 444/325/243 436/317/243 437/319/243
f 445/326/243 446/327/243 447/328/243
f 448/329/243 446/327/243 445/326/243
f 449/330/243 446/327/243 448/329/243
f 450/331/243 446/327/243 449/330/243
f 451/332/243 446/327/243 450/331/243
f 452/333/243 446/327/243 451/332/243
f 447/328/243 446/327/243 453/334/243
f 453/334/243 446/327/243 452/333/243
f 454/3/269 456/2/270 455/1/271
f 457/4/272 454/3/269 455/1/271
f 458/5/273 457/4/272 455/1/271
f 459/6/274 457/4/272 458/5/273
f 455/1/271 460/7/275 458/5/273
f 458/5/273 460/7/275 461/8/276
f 460/7/275 462/9/277 461/8/276
f 461/8/276 462/9/277 463/10/278
f 460/7/275 464/11/279 462/9/277
f 462/9/277 464/11/279 465/12/278
f 455/1/271 466/13/280 460/7/275
f 460/7/275 466/13/280 464/11/279
f 456/2/270 467/14/281 455/1/271
f 455/1/271 467/14/281 466/13/280
f 468/15/282 469/18/283 470/17/284
f 471/16/285 468/15/282 470/17/284
f 472/19/286 468/15/282 471/16/285
f 473/20/287 472/19/286 471/16/285
f 474/21/288 472/19/286 473/20/287
f 475/22/289 472/19/286 474/21/288
f 476/23/290 475/22/289 474/21/288
f 476/23/290 477/24/291 475/22/289
f 478/25/292 468/15/282 472/19/286
f 475/22/289 478/25/292 472/19/286
f 468/15/282 478/25/292 469/18/283
f 477/24/291 478/25/292 475/22/289
f 478/25/292 477/24/291 479/26/293
f 478/25/292 479/26/293 469/18/283
f 477/24/291 480/27/294 479/26/293
f 481/28/295 476/23/290 474/21/288
f 474/21/288 473/20/287 482/29/296
f 483/30/295 474/21/288 482/29/296
f 473/20/287 471/16/285 484/31/297
f 482/29/296 473/20/287 484/31/297
f 471/16/285 470/17/284 485/32/298
f 484/31/297 471/16/285 485/32/298
f 480/27/299 486/33/300 479/26/301
f 486/33/300 487/34/302 479/26/301
f 479/26/301 487/34/302 469/18/303
f 477/24/304 488/35/305 480/27/299
f 488/35/305 486/33/300 480/27/299
f 489/36/306 488/35/307 477/24/308
f 476/23/309 489/36/306 477/24/308
f 490/37/310 489/36/306 476/23/309
f 481/28/311 490/37/310 476/23/309
f 474/21/312 491/38/313 481/28/311
f 491/38/313 490/37/310 481/28/311
f 487/34/302 492/43/314 469/18/303
f 469/18/303 492/43/314 470/17/315
f 470/17/315 493/42/316 485/32/317
f 492/43/314 493/42/316 470/17/315
f 483/30/318 494/39/319 474/21/312
f 494/39/319 491/38/313 474/21/312
f 495/40/320 494/39/319 483/30/318
f 482/29/321 495/40/320 483/30/318
f 484/31/322 496/41/323 482/29/321
f 496/41/323 495/40/320 482/29/321
f 493/42/316 497/44/324 485/32/317
f 485/32/317 497/44/324 484/31/325
f 497/44/324 496/41/326 484/31/325
