# Blender 5.0.1
# www.blender.org
mtllib Hookobj.mtl
o _2_0_node
v 5.523580 42.910240 0.753892
v 5.223680 42.610340 -0.000003
v 6.398780 41.192551 0.753892
v 5.979880 41.126209 -0.000003
v 3.805890 43.785450 0.753892
v 3.739542 43.366550 -0.000003
v 1.901820 43.483868 0.753892
v 2.094370 43.105980 -0.000003
v 0.538660 42.120708 0.753892
v 0.916550 41.928158 -0.000003
v 0.237080 40.216640 0.753892
v 0.655980 40.282990 -0.000003
v 1.112290 38.498959 0.753892
v 1.412180 38.798847 -0.000003
v 2.829973 37.623749 0.753892
v 2.896318 38.042648 -0.000003
v 4.734040 37.925327 0.753892
v 4.541490 38.303219 -0.000003
v 6.097200 39.288490 0.753892
v 5.719310 39.481037 -0.000003
v 6.398780 41.192551 0.753892
v 5.979880 41.126209 -0.000003
v 6.102840 43.489510 0.739392
v 7.207890 41.320709 0.739392
v 3.934040 44.594559 0.739392
v 1.529910 44.213787 0.739391
v -0.191260 42.492619 0.739392
v -0.572030 40.088497 0.739392
v 0.533020 37.919689 0.739392
v 2.701820 36.814640 0.739392
v 5.105950 37.195419 0.739392
v 6.827110 38.916580 0.739392
v 7.207890 41.320709 0.739392
v 6.385570 43.772228 -0.000003
v 7.602810 41.383259 -0.000003
v 3.996589 44.989468 -0.000003
v 1.348390 44.570038 -0.000003
v -0.547510 42.674137 -0.000003
v -0.966940 40.025940 -0.000003
v 0.250300 37.636971 -0.000003
v 2.639273 36.419727 -0.000003
v 5.287470 36.839161 -0.000003
v 7.183370 38.735058 -0.000003
v 7.602810 41.383259 -0.000003
v 6.102840 43.489510 -0.739398
v 7.207890 41.320709 -0.739398
v 3.934040 44.594559 -0.739398
v 1.529910 44.213787 -0.739397
v -0.191260 42.492619 -0.739398
v -0.572030 40.088497 -0.739398
v 0.533020 37.919689 -0.739398
v 2.701820 36.814640 -0.739398
v 5.105950 37.195419 -0.739398
v 6.827110 38.916580 -0.739398
v 7.207890 41.320709 -0.739398
v 5.523580 42.910240 -0.753898
v 6.398780 41.192551 -0.753898
v 3.805890 43.785450 -0.753898
v 1.901820 43.483868 -0.753898
v 0.538660 42.120708 -0.753898
v 0.237080 40.216640 -0.753898
v 1.112290 38.498959 -0.753898
v 2.829973 37.623749 -0.753898
v 4.734040 37.925327 -0.753898
v 6.097200 39.288490 -0.753898
v 6.398780 41.192551 -0.753898
v 5.979880 41.126209 -0.000003
v 5.223680 42.610340 -0.000003
v 3.739542 43.366550 -0.000003
v 2.094370 43.105980 -0.000003
v 0.916550 41.928158 -0.000003
v 0.655980 40.282990 -0.000003
v 1.412180 38.798847 -0.000003
v 2.896318 38.042648 -0.000003
v 4.541490 38.303219 -0.000003
v 5.719310 39.481037 -0.000003
v 5.979880 41.126209 -0.000003
vn -0.4084 0.2698 -0.8720
vn 0.4776 -0.1840 -0.8591
vn -0.1719 0.4583 -0.8720
vn 0.4946 0.1318 -0.8591
vn -0.4540 0.8910 -0.0000
vn -0.4890 -0.0218 -0.8720
vn -0.8910 0.4540 -0.0000
vn 0.2782 -0.4296 -0.8591
vn 0.9877 0.1563 -0.0000
vn 0.8910 -0.4540 -0.0000
vn 0.1564 0.9877 -0.0000
vn -0.9877 -0.1565 -0.0000
vn 0.4540 -0.8910 -0.0000
vn 0.1304 0.4718 -0.8720
vn -0.0274 -0.5111 -0.8591
vn 0.5111 0.0273 0.8591
vn -0.1564 -0.9877 -0.0000
vn 0.4296 -0.2782 0.8591
vn 0.1840 -0.4776 0.8591
vn 0.7071 0.7071 -0.0000
vn 0.3828 0.3051 -0.8720
vn -0.1319 -0.4945 0.8591
vn -0.3226 -0.3973 -0.8591
vn -0.7071 -0.7071 -0.0000
vn -0.4718 -0.1303 0.8720
vn 0.9877 0.1565 -0.0000
vn -0.2698 0.4084 0.8720
vn -0.4583 0.1719 0.8720
vn -0.4945 -0.1318 -0.8591
vn -0.3974 -0.3226 0.8591
vn -0.9877 -0.1564 -0.0000
vn 0.4890 0.0218 -0.8720
vn 0.0218 0.4890 0.8720
vn -0.4776 0.1840 -0.8591
vn -0.5111 -0.0274 0.8591
vn 0.1565 0.9877 -0.0000
vn 0.4084 -0.2697 -0.8720
vn 0.3051 0.3828 0.8720
vn -0.2782 0.4296 -0.8591
vn -0.4296 0.2782 0.8591
vn 0.1719 -0.4583 -0.8720
vn 0.4718 0.1303 0.8720
vn 0.0274 0.5111 -0.8591
vn -0.1840 0.4776 0.8591
vn 0.9877 0.1564 -0.0000
vn -0.1303 -0.4718 -0.8720
vn 0.4583 -0.1719 0.8720
vn 0.3226 0.3973 -0.8591
vn 0.1319 0.4945 0.8591
vn -0.3828 -0.3051 -0.8720
vn 0.2698 -0.4084 0.8720
vn 0.4946 0.1320 -0.8591
vn 0.3974 0.3226 0.8591
vn -0.4890 -0.0219 -0.8720
vn -0.0218 -0.4890 0.8720
vn 0.5111 0.0275 0.8591
vn -0.1565 -0.9877 -0.0000
vn -0.3051 -0.3828 0.8720
vn -0.4718 -0.1304 0.8720
vt 0.042348 0.195171
vt 0.074367 0.195171
vt 0.042348 0.283516
vt 0.074367 0.106827
vt 0.010329 0.283516
vt 0.042348 0.106827
vt 0.010329 0.195171
vt 0.074367 0.283516
vt 0.106386 0.106827
vt 0.106386 0.195171
vt 0.010329 0.371860
vt 0.010329 0.106827
vt 0.106386 0.283516
vt 0.042348 0.371860
vt 0.074367 0.371860
vt 0.138406 0.106827
vt 0.106386 0.371860
vt 0.138405 0.195171
vt 0.138406 0.283516
vt 0.010329 0.460204
vt 0.042348 0.460204
vt 0.138406 0.371860
vt 0.074367 0.460204
vt 0.106386 0.460204
vt 0.170425 0.106827
vt 0.010329 0.548549
vt 0.170425 0.283516
vt 0.170425 0.195171
vt 0.074367 0.548549
vt 0.138406 0.460204
vt 0.106386 0.548549
vt 0.042348 0.548549
vt 0.202444 0.195172
vt 0.170425 0.371860
vt 0.202444 0.283516
vt 0.202444 0.106827
vt 0.074367 0.636893
vt 0.138406 0.548549
vt 0.106386 0.636893
vt 0.010329 0.636893
vt 0.202444 0.371860
vt 0.042348 0.636893
vt 0.170425 0.460204
vt 0.074367 0.725237
vt 0.138406 0.636893
vt 0.106386 0.725237
vt 0.010329 0.725237
vt 0.042348 0.725237
vt 0.202444 0.460204
vt 0.170425 0.548549
vt 0.074367 0.813582
vt 0.138406 0.725237
vt 0.106386 0.813582
vt 0.010329 0.813582
vt 0.202444 0.548549
vt 0.042348 0.813582
vt 0.170425 0.636893
vt 0.074367 0.901926
vt 0.138405 0.813582
vt 0.106386 0.901926
vt 0.010329 0.901926
vt 0.042348 0.901926
vt 0.202444 0.636893
vt 0.170425 0.725237
vt 0.074367 0.990270
vt 0.138405 0.901926
vt 0.106386 0.990270
vt 0.010329 0.990270
vt 0.202444 0.725237
vt 0.042348 0.990270
vt 0.170425 0.813582
vt 0.138405 0.990270
vt 0.202444 0.813582
vt 0.170425 0.901926
vt 0.170425 0.990270
vt 0.202444 0.901926
vt 0.202444 0.990270
s 1
usemtl mFook_mat
f 65/1/1 54/2/2 64/3/3
f 65/1/1 55/4/4 54/2/2
f 65/1/1 64/3/3 75/5/5
f 65/1/1 66/6/6 55/4/4
f 65/1/1 75/5/5 76/7/7
f 65/1/1 76/7/7 66/6/6
f 54/2/2 53/8/8 64/3/3
f 54/2/2 55/4/4 44/9/9
f 54/2/2 43/10/10 53/8/8
f 54/2/2 44/9/9 43/10/10
f 75/5/5 64/3/3 74/11/11
f 76/7/7 77/12/12 66/6/6
f 53/8/8 43/10/10 42/13/13
f 53/8/8 63/14/14 64/3/3
f 53/8/8 42/13/13 52/15/15
f 53/8/8 52/15/15 63/14/14
f 64/3/3 63/14/14 74/11/11
f 44/9/9 33/16/16 43/10/10
f 42/13/13 41/17/17 52/15/15
f 42/13/13 43/10/10 32/18/18
f 42/13/13 31/19/19 41/17/17
f 42/13/13 32/18/18 31/19/19
f 43/10/10 33/16/16 32/18/18
f 63/14/14 73/20/20 74/11/11
f 63/14/14 52/15/15 62/21/21
f 63/14/14 62/21/21 73/20/20
f 41/17/17 31/19/19 30/22/22
f 41/17/17 51/23/23 52/15/15
f 41/17/17 30/22/22 40/24/24
f 41/17/17 40/24/24 51/23/23
f 52/15/15 51/23/23 62/21/21
f 33/16/16 21/25/25 32/18/18
f 73/20/20 62/21/21 72/26/26
f 31/19/19 17/27/27 30/22/22
f 31/19/19 32/18/18 19/28/28
f 31/19/19 19/28/28 17/27/27
f 32/18/18 21/25/25 19/28/28
f 40/24/24 50/29/29 51/23/23
f 40/24/24 30/22/22 29/30/30
f 40/24/24 39/31/31 50/29/29
f 40/24/24 29/30/30 39/31/31
f 62/21/21 61/32/32 72/26/26
f 62/21/21 51/23/23 61/32/32
f 51/23/23 50/29/29 61/32/32
f 17/27/27 19/28/28 20/33/7
f 17/27/27 15/34/33 30/22/22
f 17/27/27 20/33/7 18/35/5
f 17/27/27 18/35/5 15/34/33
f 30/22/22 15/34/33 29/30/30
f 21/25/25 22/36/31 19/28/28
f 19/28/28 22/36/31 20/33/7
f 39/31/31 49/37/34 50/29/29
f 39/31/31 29/30/30 28/38/35
f 39/31/31 38/39/7 49/37/34
f 39/31/31 28/38/35 38/39/7
f 72/26/26 61/32/32 71/40/10
f 18/35/5 16/41/36 15/34/33
f 50/29/29 49/37/34 60/42/37
f 50/29/29 60/42/37 61/32/32
f 61/32/32 60/42/37 71/40/10
f 29/30/30 13/43/38 28/38/35
f 29/30/30 15/34/33 13/43/38
f 15/34/33 16/41/36 13/43/38
f 38/39/7 48/44/39 49/37/34
f 38/39/7 28/38/35 27/45/40
f 38/39/7 37/46/5 48/44/39
f 38/39/7 27/45/40 37/46/5
f 60/42/37 70/47/13 71/40/10
f 60/42/37 49/37/34 59/48/41
f 60/42/37 59/48/41 70/47/13
f 49/37/34 48/44/39 59/48/41
f 16/41/36 14/49/20 13/43/38
f 28/38/35 11/50/42 27/45/40
f 28/38/35 13/43/38 11/50/42
f 13/43/38 14/49/20 11/50/42
f 37/46/5 47/51/43 48/44/39
f 37/46/5 27/45/40 26/52/44
f 37/46/5 36/53/11 47/51/43
f 37/46/5 26/52/44 36/53/11
f 70/47/13 59/48/41 69/54/17
f 14/49/20 12/55/45 11/50/42
f 48/44/39 47/51/43 58/56/46
f 48/44/39 58/56/46 59/48/41
f 59/48/41 58/56/46 69/54/17
f 27/45/40 9/57/47 26/52/44
f 27/45/40 11/50/42 9/57/47
f 11/50/42 12/55/45 9/57/47
f 36/53/11 45/58/48 47/51/43
f 36/53/11 26/52/44 25/59/49
f 36/53/11 34/60/20 45/58/48
f 36/53/11 25/59/49 34/60/20
f 58/56/46 68/61/24 69/54/17
f 58/56/46 47/51/43 56/62/50
f 58/56/46 56/62/50 68/61/24
f 47/51/43 45/58/48 56/62/50
f 12/55/45 10/63/10 9/57/47
f 26/52/44 7/64/51 25/59/49
f 26/52/44 9/57/47 7/64/51
f 9/57/47 10/63/10 7/64/51
f 34/60/20 46/65/52 45/58/48
f 34/60/20 25/59/49 23/66/53
f 34/60/20 35/67/26 46/65/52
f 34/60/20 23/66/53 35/67/26
f 68/61/24 56/62/50 67/68/31
f 10/63/10 8/69/13 7/64/51
f 45/58/48 46/65/52 57/70/54
f 45/58/48 57/70/54 56/62/50
f 56/62/50 57/70/54 67/68/31
f 25/59/49 5/71/55 23/66/53
f 25/59/49 7/64/51 5/71/55
f 7/64/51 8/69/13 5/71/55
f 35/67/26 23/66/53 24/72/56
f 8/69/13 6/73/57 5/71/55
f 23/66/53 1/74/58 24/72/56
f 23/66/53 5/71/55 1/74/58
f 5/71/55 6/73/57 1/74/58
f 24/72/56 1/74/58 3/75/59
f 6/73/57 2/76/24 1/74/58
f 1/74/58 2/76/24 3/75/59
f 2/76/24 4/77/31 3/75/59
o _0_0_node
v 8.050690 26.820398 1.613658
v 8.704200 22.793398 1.613658
v 9.418090 27.237097 2.294018
v 10.223001 23.011999 2.294018
v 5.606980 32.749001 1.657857
v 5.032730 34.745701 2.246477
v 5.606980 32.749001 -1.657862
v 5.032730 34.745701 -2.246483
v 8.160680 30.473398 2.311517
v 6.857730 33.331001 2.518237
v 6.967370 29.930197 1.620908
v 5.606980 32.749001 1.657857
v 5.800210 31.372898 -0.000002
v 6.486840 29.665497 -0.000002
v 7.489370 26.657198 -0.000002
v 8.080230 22.704597 -0.000002
v 12.337500 23.319298 -0.000002
v 11.450399 27.814898 -0.000002
v 11.701400 23.230598 1.613658
v 10.804800 27.655798 1.613658
v 6.742260 4.509229 2.294020
v 8.951799 7.624349 2.294019
v 5.788590 5.640069 1.613660
v 7.648330 8.407479 1.613659
v 8.527300 11.815799 1.613659
v 10.024600 11.359999 2.294019
v 8.916950 17.389097 1.613659
v 10.449300 17.292097 2.294019
v 8.293310 17.428598 -0.000001
v 7.917930 12.001299 -0.000001
v 7.117820 8.726199 -0.000001
v 5.400460 6.100319 -0.000000
v 11.981600 17.195097 1.613659
v 12.605200 17.155598 -0.000001
v 11.521800 10.904099 1.613659
v 10.255300 6.841229 1.613660
v 12.131200 10.718598 -0.000001
v 10.785800 6.522499 -0.000000
v 8.084070 2.918139 -0.000000
v 7.695930 3.378389 1.613660
v -8.404429 9.023449 1.611939
v -9.578650 8.408499 2.290399
v -6.464860 6.143309 1.613660
v -7.480690 5.158239 2.294019
v -4.279960 2.942469 2.294020
v -3.676900 4.259879 1.613660
v 3.407510 2.560519 2.294020
v 2.938730 3.938379 1.613660
v -0.470152 2.042209 2.294020
v -0.396249 3.486639 1.613660
v 2.747950 4.499149 -0.000000
v -0.366172 4.074509 -0.000000
v -3.431460 4.796049 -0.000000
v -6.051430 6.544219 -0.000000
v -7.925150 9.273739 -0.000001
v 3.876280 1.182669 1.613660
v 4.067070 0.621889 -0.000000
v -0.574132 0.009901 -0.000000
v -0.544054 0.597773 1.613660
v -8.496530 4.173169 1.613660
v -8.909960 3.772259 -0.000000
v -4.883010 1.625059 1.613660
v -5.128450 1.088889 -0.000000
v -10.753500 7.793719 1.611939
v -11.232500 7.543479 -0.000001
v -9.325950 24.878798 0.458739
v -9.127230 24.840597 0.291923
v -9.151120 26.303999 -0.000002
v -9.369960 12.280199 1.557269
v -10.512600 11.987399 2.174149
v -8.860760 12.395498 -0.000001
v -10.142600 21.222298 1.101818
v -9.382750 21.133999 0.760431
v -9.750400 23.018297 0.809616
v -9.280490 22.938097 0.546113
v -9.375780 19.784698 0.893694
v -10.359000 19.820797 1.298138
v -9.026060 19.811598 -0.000001
v -8.501100 17.675999 -0.000001
v -8.947450 17.549097 1.021239
v -9.104030 21.118397 -0.000002
v -9.035370 24.822098 -0.000002
v -11.674001 11.687199 1.555079
v -12.173400 11.565000 -0.000001
v -11.867200 14.722698 1.386089
v -12.363800 14.654299 -0.000001
v -10.729199 14.954000 1.932529
v -9.604800 24.949398 -0.000002
v -9.517280 24.928097 0.285434
v -11.668500 17.506697 1.109989
v -10.571799 17.443098 1.608589
v -11.225300 19.887999 0.886029
v -11.052299 21.368000 -0.000002
v -10.797800 21.326397 0.750529
v -10.308400 23.153000 -0.000002
v -10.146299 23.112999 0.539171
v -11.557799 19.919298 -0.000002
v -12.095200 17.482098 -0.000001
v 5.184650 36.921799 2.901847
v 5.985260 35.208900 2.849827
v 6.128990 37.283897 2.376537
v 6.969320 35.696400 2.245897
v 8.135859 33.937199 1.658297
v 9.461510 30.974897 1.620908
v 9.087001 32.848900 -0.000002
v 10.087100 31.120697 -0.000002
v 5.800210 31.372898 -0.000002
v 3.652840 37.900101 2.055057
v 4.408490 38.586201 2.526657
v 3.044210 39.205299 1.375197
v 3.738030 40.024002 1.699297
v 4.821080 40.082001 1.375817
v 5.429680 38.776798 2.055327
v 3.341710 40.873898 -0.000003
v 2.680970 39.984299 -0.000003
v 4.457850 40.860897 -0.000003
v 5.032730 34.745701 2.246477
v 4.347350 36.404800 2.376457
v -9.488840 15.387299 1.523209
v -9.134950 15.054898 -0.000001
v -9.095990 22.903000 -0.000002
v -5.962530 13.366899 -0.000001
v -6.556800 13.742000 0.773271
v -9.134950 15.054898 -0.000001
v 10.223001 23.011999 -2.294022
v 8.704200 22.793398 -1.613662
v 9.418090 27.237097 -2.294022
v 8.050690 26.820398 -1.613662
v 8.080230 22.704597 -0.000002
v 7.489370 26.657198 -0.000002
v 8.135859 33.937199 1.658297
v 8.135859 33.937199 -1.658302
v 6.969320 35.696400 2.245897
v 6.969320 35.696400 -2.245903
v 6.128990 37.283897 -2.376543
v 5.184650 36.921799 -2.901853
v 5.429680 38.776798 -2.055333
v 4.408490 38.586201 -2.526663
v 3.738030 40.024002 -1.699303
v 4.821080 40.082001 -1.375823
v 5.985260 35.208900 -2.849833
v 6.969320 35.696400 -2.245903
v 6.857730 33.331001 -2.518243
v 8.135859 33.937199 -1.658302
v 11.701400 23.230598 -1.613662
v 10.804800 27.655798 -1.613662
v 9.461510 30.974897 -1.620912
v 9.087001 32.848900 -0.000002
v 8.160680 30.473398 -2.311522
v 8.527300 11.815799 -1.613661
v 10.024600 11.359999 -2.294021
v 7.648320 8.407469 -1.613661
v 8.951790 7.624349 -2.294020
v 5.788590 5.640069 -1.613660
v 6.742260 4.509229 -2.294020
v 8.916950 17.389097 -1.613661
v 10.449300 17.292097 -2.294021
v 8.293310 17.428598 -0.000001
v 7.917930 12.001299 -0.000001
v 7.117820 8.726199 -0.000001
v 5.400460 6.100319 -0.000000
v 11.981600 17.195097 -1.613661
v 11.521800 10.904099 -1.613661
v 10.255300 6.841229 -1.613660
v 7.695930 3.378379 -1.613660
v -6.464860 6.143309 -1.613660
v -3.676900 4.259879 -1.613660
v -7.480690 5.158239 -2.294020
v -4.279960 2.942469 -2.294020
v -8.404429 9.023449 -1.611941
v -9.578650 8.408499 -2.290401
v 2.938730 3.938379 -1.613660
v 3.407510 2.560519 -2.294020
v -0.396251 3.486639 -1.613660
v -0.470152 2.042209 -2.294020
v 2.747950 4.499149 -0.000000
v -0.366172 4.074509 -0.000000
v -3.431460 4.796049 -0.000000
v -6.051430 6.544219 -0.000000
v -7.925150 9.273739 -0.000001
v 3.876280 1.182669 -1.613660
v -0.544056 0.597773 -1.613660
v -8.496530 4.173169 -1.613660
v -4.883010 1.625059 -1.613660
v -10.753500 7.793719 -1.611941
v -9.127230 24.840597 -0.291927
v -9.325950 24.878798 -0.458742
v -10.512600 11.987399 -2.174151
v -9.369960 12.280199 -1.557271
v -8.860760 12.395498 -0.000001
v -6.556800 13.742000 -0.773273
v -8.108490 14.589199 -1.371451
v -7.919260 15.448000 -0.913950
v -5.962530 13.366899 -0.000001
v -7.638730 15.645598 -0.000001
v -9.382750 21.133999 -0.760435
v -9.375780 19.784698 -0.893696
v -10.142600 21.222298 -1.101822
v -10.359000 19.820797 -1.298141
v -9.095990 22.903000 -0.000002
v -9.104030 21.118397 -0.000002
v -9.280490 22.938097 -0.546117
v -9.026060 19.811598 -0.000001
v -9.035370 24.822098 -0.000002
v -11.674001 11.687199 -1.555081
v -11.867200 14.722698 -1.386091
v -10.729199 14.954000 -1.932531
v -9.517280 24.928097 -0.285438
v -11.668500 17.506697 -1.109991
v -11.225300 19.887999 -0.886032
v -10.571899 17.441198 -1.608821
v -10.797800 21.326397 -0.750533
v -10.146299 23.112999 -0.539175
v -9.750400 23.018297 -0.809620
v 9.087001 32.848900 -0.000002
v 5.032730 34.745701 -2.246483
v 4.347350 36.404800 -2.376463
v 5.606980 32.749001 -1.657862
v 6.967370 29.930197 -1.620912
v 5.606980 32.749001 -1.657862
v 5.800210 31.372898 -0.000002
v 6.486840 29.665497 -0.000002
v 3.044210 39.205299 -1.375203
v 3.652840 37.900101 -2.055063
v 2.680970 39.984299 -0.000003
v 3.341710 40.873898 -0.000003
v 4.457850 40.860897 -0.000003
v 5.606980 32.749001 -1.657862
v 2.680970 39.984299 -0.000003
v 3.044210 39.205299 -1.375203
v 3.044210 39.205299 1.375197
v 4.821080 40.082001 1.375817
v 4.821080 40.082001 -1.375823
v 4.457850 40.860897 -0.000003
v -9.488840 15.387299 -1.523211
v -9.134950 15.054898 -0.000001
v -5.962530 13.366899 -0.000001
v -9.134950 15.054898 -0.000001
v -6.556800 13.742000 -0.773273
v -8.950910 17.554998 -1.021561
v -8.501100 17.675999 -0.000001
v -7.915680 15.441798 0.913623
v -7.638730 15.645598 -0.000001
v -8.108490 14.589199 1.371449
v -9.488840 15.387299 1.523209
v -8.108490 14.589199 -1.371451
v -9.488840 15.387299 -1.523211
v 4.347350 36.404800 -2.376463
v 4.347350 36.404800 2.376457
v 3.652840 37.900101 -2.055063
v 3.652840 37.900101 2.055057
v 5.429680 38.776798 2.055327
v 5.429680 38.776798 -2.055333
v 6.128990 37.283897 2.376537
v 6.128990 37.283897 -2.376543
v -6.556800 13.742000 0.773271
v -8.108490 14.589199 1.371449
v -5.962530 13.366899 -0.000001
vn -0.8865 0.3545 0.2973
vn -0.8851 0.3332 0.3249
vn -0.8904 0.3273 0.3162
vn -0.8865 0.3545 -0.2973
vn -0.8904 0.3286 -0.3148
vn -0.8860 0.3308 -0.3249
vn -0.9157 0.3469 0.2030
vn -0.8840 0.4129 -0.2193
vn -0.9205 0.2816 0.2709
vn -0.9209 0.2863 -0.2645
vn -0.8947 0.3253 0.3061
vn -0.8947 0.3253 -0.3061
vn -0.9073 0.2455 0.3414
vn -0.9077 0.2465 -0.3396
vn -0.8958 0.2634 0.3581
vn -0.9015 0.2429 -0.3581
vn -0.4166 0.2435 0.8759
vn -0.5932 0.3305 0.7341
vn -0.5515 0.3518 0.7563
vn -0.4246 0.2272 0.8764
vn -0.4397 0.2281 0.8687
vn -0.5691 0.1990 0.7978
vn -0.4615 0.1819 -0.8683
vn -0.5482 0.3458 -0.7615
vn -0.5980 0.2808 -0.7507
vn -0.4421 0.2172 -0.8703
vn -0.4239 0.2256 -0.8772
vn -0.5785 0.2586 -0.7736
vn -0.9053 0.3006 0.3000
vn -0.9052 0.3006 -0.3004
vn -0.5928 0.3095 -0.7435
vn -0.5931 0.3095 0.7433
vn -0.9255 0.1444 0.3503
vn -0.4037 0.1859 0.8958
vn -0.4418 0.2413 0.8641
vn -0.4054 0.1540 0.9011
vn -0.4456 0.1204 0.8871
vn -0.4025 0.1845 -0.8966
vn -0.4231 0.1037 -0.9001
vn -0.9258 0.1449 -0.3492
vn -0.4456 0.1204 -0.8871
vn -0.4045 0.1534 -0.9016
vn 0.5516 0.1051 0.8274
vn 0.4859 0.0472 0.8728
vn 0.6448 0.0699 0.7611
vn 0.4088 0.0651 0.9103
vn 0.4136 0.0664 0.9080
vn 0.5616 0.0413 -0.8263
vn 0.6490 0.1244 -0.7506
vn 0.4808 0.0644 -0.8744
vn 0.4099 0.0753 -0.9090
vn 0.4110 0.0757 -0.9085
vn 0.6522 0.1562 0.7418
vn 0.6189 0.0759 0.7818
vn 0.6525 0.1561 -0.7415
vn 0.6111 0.1141 -0.7833
vn 0.9526 0.0720 0.2955
vn 0.9652 0.0444 0.2576
vn 0.9999 0.0139 0.0001
vn 0.9528 0.0720 -0.2950
vn 0.9999 0.0139 -0.0001
vn 0.9676 0.0058 -0.2525
vn -0.4540 0.0568 0.8892
vn -0.9198 0.1575 0.3595
vn -0.4469 0.0657 0.8922
vn -0.9412 0.0325 0.3362
vn -0.9232 0.1361 -0.3595
vn 0.4103 0.0116 0.9119
vn 0.3589 0.1246 0.9250
vn 0.3707 0.1425 0.9178
vn 0.3707 0.1425 -0.9178
vn 0.3925 0.1502 -0.9074
vn 0.3599 0.0525 -0.9315
vn -0.4593 0.0609 -0.8862
vn 0.3220 0.1665 -0.9320
vn 0.3264 0.0501 -0.9439
vn 0.3407 0.0892 -0.9359
vn 0.9997 -0.0237 0.0001
vn 0.9524 -0.0043 0.3048
vn 0.9997 -0.0237 -0.0001
vn 0.9536 -0.0213 -0.3002
vn -0.4663 -0.0588 0.8827
vn 0.3360 0.0937 0.9372
vn 0.3265 0.0499 0.9439
vn 0.4552 0.1518 0.8774
vn 0.4278 0.1040 0.8979
vn -0.9419 0.0174 -0.3353
vn -0.9374 0.0338 0.3466
vn -0.9380 0.0043 -0.3466
vn -0.4450 0.0803 -0.8919
vn 0.9289 0.0966 0.3576
vn 0.9934 0.1144 0.0001
vn 0.9409 0.0297 0.3373
vn 0.2981 0.1455 0.9434
vn 0.9483 0.3175 -0.0003
vn 0.8837 0.2686 0.3834
vn 0.3692 0.2744 -0.8879
vn 0.8786 0.2510 -0.4062
vn 0.9235 0.1619 -0.3478
vn 0.9483 0.3175 -0.0004
vn 0.8133 0.4717 -0.3407
vn 0.9422 0.0210 -0.3344
vn 0.9999 0.0140 -0.0001
vn 0.9934 0.1145 -0.0001
vn 0.9999 0.0140 0.0001
vn 0.4132 0.1746 0.8938
vn -0.4588 -0.0499 0.8871
vn 0.4342 0.1681 0.8850
vn -0.4450 -0.1285 0.8863
vn -0.9415 -0.1226 0.3139
vn -0.4712 -0.0564 -0.8802
vn 0.4278 0.1040 -0.8979
vn 0.4593 0.1491 -0.8757
vn 0.8043 0.4843 0.3442
vn 0.8461 0.5331 0.0001
vn 0.3815 0.2631 0.8861
vn 0.8461 0.5331 -0.0000
vn 0.4064 0.3583 -0.8405
vn 0.7142 0.5629 -0.4159
vn 0.4799 0.2263 -0.8476
vn 0.9344 0.1687 0.3139
vn 0.8479 0.4307 0.3091
vn 0.9230 0.3849 0.0001
vn 0.9896 0.1442 0.0001
vn 0.9820 0.0879 0.1673
vn -0.4024 -0.1953 0.8944
vn 0.3243 0.2772 0.9044
vn -0.2875 -0.3471 0.8927
vn 0.2952 0.3491 0.8894
vn -0.9399 -0.1445 -0.3093
vn -0.9366 -0.1211 0.3288
vn -0.9317 -0.1544 -0.3288
vn -0.8887 -0.3356 0.3123
vn -0.4575 -0.0285 -0.8888
vn 0.9344 0.1687 -0.3139
vn 0.9820 0.0877 -0.1674
vn 0.9896 0.1442 -0.0001
vn 0.4089 0.1749 -0.8957
vn 0.9230 0.3849 -0.0001
vn 0.8498 0.4292 -0.3059
vn 0.7140 0.5630 0.4162
vn 0.8055 0.5925 0.0001
vn 0.8055 0.5926 -0.0001
vn 0.9955 0.0946 0.0001
vn 0.4068 0.3591 0.8400
vn 0.4800 0.2267 0.8475
vn 0.7487 0.6630 0.0001
vn 0.6494 0.6884 0.3232
vn -0.2832 -0.3122 0.9068
vn 0.1948 0.3694 0.9086
vn -0.1333 -0.4216 0.8969
vn 0.1437 0.4259 0.8933
vn -0.8726 -0.3849 -0.3009
vn -0.8759 -0.3315 0.3506
vn -0.8514 -0.3901 -0.3505
vn -0.7115 -0.6213 0.3282
vn 0.9955 0.0946 -0.0001
vn 0.4104 0.2413 -0.8794
vn -0.4194 -0.2140 -0.8822
vn -0.4124 -0.1487 -0.8988
vn 0.7487 0.6629 -0.0001
vn 0.4546 0.8907 0.0001
vn 0.3555 0.8747 0.3295
vn -0.1433 -0.3890 0.9100
vn 0.0486 0.4146 0.9087
vn 0.0346 -0.4459 0.8944
vn -0.0245 0.4545 0.8904
vn -0.6715 -0.6704 -0.3156
vn -0.7022 -0.6028 0.3787
vn -0.6449 -0.6638 -0.3787
vn -0.4173 -0.8444 0.3360
vn 0.3185 0.2754 -0.9070
vn -0.2961 -0.3504 -0.8886
vn 0.3020 0.3498 -0.8868
vn -0.3147 -0.2660 -0.9112
vn 0.6526 0.6873 -0.3189
vn 0.1094 0.9940 0.0001
vn 0.0202 0.9439 0.3297
vn 0.0080 -0.4156 0.9095
vn -0.1074 0.4013 0.9096
vn 0.1225 -0.4110 0.9034
vn -0.1286 0.4113 0.9024
vn -0.3642 -0.8730 -0.3245
vn -0.4176 -0.8237 0.3836
vn -0.3432 -0.8574 -0.3836
vn -0.0793 -0.9383 0.3365
vn 0.1901 0.3657 -0.9111
vn -0.1399 -0.4276 -0.8931
vn 0.1497 0.4291 -0.8908
vn -0.1880 -0.3597 -0.9139
vn 0.4546 0.8907 -0.0001
vn 0.3588 0.8749 -0.3254
vn -0.2670 0.9637 0.0001
vn -0.3384 0.8806 0.3317
vn 0.1089 -0.3213 0.9407
vn -0.2908 0.2141 0.9325
vn 0.2442 -0.3090 0.9192
vn -0.3050 0.3252 0.8951
vn 0.3070 -0.3228 0.8953
vn -0.0212 -0.9455 -0.3250
vn -0.0852 -0.9207 0.3808
vn -0.0083 -0.9246 -0.3808
vn 0.3092 -0.9166 0.2534
vn 0.0456 0.4095 -0.9112
vn 0.0294 -0.4547 -0.8902
vn -0.0192 0.4602 -0.8876
vn -0.0432 -0.4045 -0.9135
vn 0.1094 0.9940 -0.0001
vn 0.0232 0.9452 -0.3256
vn -0.6909 0.7230 0.0001
vn -0.6168 0.7348 0.2822
vn 0.3406 -0.1934 0.9201
vn 0.6484 -0.6876 0.3267
vn 0.6402 -0.6612 0.3911
vn 0.8333 -0.3927 0.3890
vn 0.8482 -0.4063 0.3398
vn 0.2320 -0.9286 -0.2898
vn 0.3000 -0.8895 0.3446
vn 0.3000 -0.8895 -0.3446
vn 0.5768 -0.7172 -0.3911
vn -0.1082 0.3948 -0.9124
vn 0.1207 -0.4086 -0.9047
vn -0.1268 0.4099 -0.9033
vn 0.1782 -0.3238 -0.9292
vn -0.2670 0.9637 -0.0001
vn -0.3359 0.8833 -0.3272
vn -0.8673 0.3690 0.3341
vn -0.4092 0.1622 0.8979
vn -0.3479 0.1797 0.9201
vn 0.4035 -0.1518 0.9023
vn 0.8028 -0.4519 -0.3890
vn 0.6034 -0.7258 -0.3305
vn 0.9177 -0.1444 0.3700
vn 0.8378 -0.4335 -0.3320
vn 0.9051 -0.2092 -0.3700
vn 0.2827 -0.2781 -0.9180
vn -0.6909 0.7229 -0.0001
vn -0.9371 0.3491 0.0001
vn 0.3814 -0.0837 0.9206
vn -0.4196 0.0548 0.9060
vn 0.4163 -0.0499 0.9079
vn 0.9222 -0.1591 0.3525
vn 0.3468 -0.1687 -0.9226
vn 0.3103 -0.2930 -0.9043
vn 0.9205 -0.1770 -0.3482
vn 0.3973 -0.1968 -0.8964
vn 0.3810 -0.0673 -0.9221
vn -0.6168 0.7348 -0.2822
vn -0.8666 0.3737 -0.3308
vn -0.9371 0.3491 -0.0001
vn -0.2908 0.2141 -0.9325
vn -0.3461 0.1733 -0.9221
vn -0.4009 0.1971 -0.8947
vn -0.3110 0.3038 -0.9005
vn -0.9269 0.1370 0.3495
vn -0.9921 0.1257 0.0001
vn -0.3844 0.0726 0.9203
vn 0.9318 0.0027 0.3629
vn 0.3975 -0.0127 0.9175
vn 0.9355 -0.0056 0.3534
vn 0.9313 -0.0315 -0.3629
vn -0.9272 0.1399 -0.3474
vn -0.9921 0.1257 -0.0001
vn 0.4148 -0.0756 -0.9068
vn -0.4171 0.0770 -0.9056
vn -0.3825 0.0693 -0.9213
vn -0.9442 -0.0358 0.3273
vn -0.9999 0.0143 0.0001
vn 0.4221 0.0027 0.9065
vn -0.4212 0.0001 0.9069
vn -0.3733 0.0573 0.9259
vn 0.9362 -0.0156 -0.3511
vn 0.9183 0.1348 0.3722
vn 0.9239 0.0885 -0.3723
vn 0.3957 -0.0032 -0.9184
vn -0.9466 -0.0304 -0.3211
vn -0.9999 0.0143 -0.0001
vn -0.9971 -0.0759 0.0001
vn 0.4011 0.0393 0.9152
vn -0.4188 -0.0624 0.9059
vn 0.4285 0.0660 0.9011
vn 0.9247 0.1227 0.3603
vn 0.4176 -0.0106 -0.9086
vn -0.4167 0.0123 -0.9089
vn -0.3668 0.0518 -0.9289
vn -0.9971 -0.0759 -0.0001
vn -0.9327 -0.0719 0.3533
vn -0.9779 -0.2089 0.0001
vn -0.3985 -0.0625 0.9151
vn 0.8750 0.2942 0.3845
vn 0.9277 0.1091 -0.3571
vn 0.8913 0.2401 -0.3845
vn 0.3968 0.0517 -0.9165
vn -0.9294 -0.1074 -0.3530
vn -0.9779 -0.2089 -0.0001
vn -0.9227 -0.2056 0.3262
vn -0.9405 -0.3398 0.0001
vn 0.3993 0.1072 0.9105
vn -0.4214 -0.1329 0.8971
vn 0.4208 0.1369 0.8968
vn -0.4052 -0.1353 0.9042
vn 0.8862 0.2811 0.3682
vn 0.4304 0.0444 -0.9015
vn -0.4199 -0.0430 -0.9066
vn -0.4018 -0.0256 -0.9154
vn -0.9104 -0.2522 -0.3279
vn -0.9405 -0.3398 -0.0001
vn -0.8946 -0.3350 0.2959
vn -0.9357 -0.3529 0.0001
vn 0.4070 0.1622 0.8989
vn -0.4186 -0.2042 0.8849
vn 0.4300 0.1649 0.8876
vn -0.4207 -0.2145 0.8815
vn 0.8917 0.2680 -0.3647
vn 0.8330 0.4041 0.3780
vn 0.8330 0.4041 -0.3780
vn 0.8561 0.3959 0.3321
vn 0.3928 0.1188 -0.9119
vn -0.4195 -0.0867 -0.9036
vn -0.4184 -0.1297 -0.8989
vn 0.4179 0.1333 -0.8987
vn -0.8944 -0.3447 -0.2849
vn -0.9357 -0.3528 -0.0001
vn -0.9706 -0.0662 0.2315
vn 0.7017 0.2068 0.6818
vn -0.4294 -0.3643 0.8264
vn 0.5107 0.1867 0.8393
vn -0.6580 -0.4531 0.6014
vn 0.8572 0.3927 -0.3331
vn 0.8670 0.4983 0.0001
vn 0.8670 0.4983 -0.0001
vn 0.7227 0.6290 0.2865
vn 0.4065 0.1657 -0.8985
vn -0.4142 -0.2020 -0.8875
vn -0.4186 -0.2042 -0.8849
vn 0.4300 0.1649 -0.8876
vn -0.8743 -0.3223 -0.3630
vn -0.7879 -0.3632 0.4973
vn 0.7831 0.3671 0.5020
vn -0.4118 -0.2975 0.8613
vn 0.4742 0.1400 0.8692
vn 0.6687 0.6946 -0.2651
vn 0.7560 0.2114 -0.6195
vn -0.4226 -0.3054 -0.8533
vn 0.4787 0.1792 -0.8595
vn -0.7969 -0.3302 0.5060
vn 0.7601 0.3994 0.5125
vn 0.7914 0.3500 -0.5011
vn 0.4842 0.1187 -0.8669
vn -0.4535 -0.3774 -0.8074
vn -0.7792 -0.3829 -0.4963
vn -0.4219 -0.2763 -0.8635
vn -0.8743 -0.3222 -0.3630
vn -0.4742 -0.1590 0.8660
vn -0.8407 -0.2382 0.4863
vn 0.3969 0.2908 0.8705
vn 0.7645 0.3910 -0.5125
vn -0.7936 -0.3379 -0.5060
vn -0.5668 0.0304 0.8233
vn -0.9121 -0.0974 0.3982
vn 0.7164 0.4909 0.4957
vn 0.3038 0.4825 0.8215
vn 0.4141 0.2539 -0.8741
vn 0.7166 0.4907 -0.4957
vn -0.4913 -0.1220 -0.8624
vn -0.7121 0.2841 0.6421
vn -0.9281 0.3723 -0.0000
vn 0.6498 0.6406 0.4091
vn 0.1775 0.7862 0.5919
vn 0.3207 0.4462 -0.8355
vn 0.5629 0.6662 -0.4892
vn -0.8405 -0.2386 -0.4864
vn -0.5838 0.0665 -0.8091
vn -0.5549 0.8160 0.1619
vn 0.2706 0.9627 -0.0000
vn -0.3154 0.9331 0.1731
vn 0.2067 0.7243 -0.6578
vn -0.8791 -0.0177 -0.4763
vn -0.7411 0.3448 -0.5760
vn -0.3154 0.9331 -0.1731
vn -0.5549 0.8160 -0.1618
vn -0.8376 -0.3263 0.4382
vn -0.7792 -0.3828 -0.4963
vn -0.7968 -0.3302 0.5060
vn -0.9357 -0.3527 -0.0000
vn -0.8406 -0.2383 0.4864
vn -0.8791 -0.0176 -0.4763
vn -0.9281 0.3724 -0.0000
vn -0.4697 -0.8828 -0.0000
vn -0.4666 -0.8826 0.0574
vn -0.4788 -0.8758 0.0611
vn -0.4930 -0.8668 0.0746
vn 0.7782 0.4208 -0.4662
vn 0.7831 0.3670 0.5020
vn 0.7468 0.3843 0.5428
vn 0.8669 0.4984 -0.0000
vn 0.7602 0.3994 0.5125
vn 0.6497 0.6407 0.4091
vn 0.5628 0.6663 -0.4893
vn 0.2705 0.9627 -0.0000
vn -0.4666 -0.8826 -0.0574
vn -0.4788 -0.8758 -0.0611
vn -0.4930 -0.8668 -0.0746
vt 0.381804 0.592135
vt 0.381792 0.558815
vt 0.399797 0.559103
vt 0.363911 0.558134
vt 0.396201 0.592459
vt 0.367482 0.591555
vt 0.391946 0.627295
vt 0.372876 0.626891
vt 0.382081 0.627171
vt 0.402183 0.533173
vt 0.361592 0.532067
vt 0.381791 0.532809
vt 0.401523 0.627226
vt 0.418063 0.559163
vt 0.410575 0.592530
vt 0.364384 0.626671
vt 0.346075 0.557627
vt 0.354159 0.591185
vt 0.381946 0.658145
vt 0.405222 0.490037
vt 0.423433 0.533697
vt 0.430078 0.489896
vt 0.340481 0.531955
vt 0.358705 0.488059
vt 0.332634 0.486927
vt 0.425098 0.592702
vt 0.436432 0.559711
vt 0.340516 0.591196
vt 0.327481 0.557629
vt 0.411258 0.626982
vt 0.355695 0.626636
vt 0.420784 0.627124
vt 0.346317 0.627483
vt 0.431713 0.442608
vt 0.381886 0.488403
vt 0.407549 0.437636
vt 0.445739 0.534814
vt 0.317831 0.532626
vt 0.331187 0.432561
vt 0.297481 0.489861
vt 0.303643 0.445594
vt 0.439428 0.592897
vt 0.326659 0.592360
vt 0.435945 0.384918
vt 0.451917 0.454692
vt 0.459193 0.391021
vt 0.357760 0.431317
vt 0.382291 0.433570
vt 0.465915 0.534425
vt 0.463695 0.492485
vt 0.485975 0.494321
vt 0.266273 0.446091
vt 0.273996 0.494955
vt 0.309683 0.559173
vt 0.296440 0.532424
vt 0.453812 0.560768
vt 0.477199 0.328311
vt 0.411845 0.378220
vt 0.453369 0.315305
vt 0.338270 0.355774
vt 0.313199 0.347584
vt 0.488720 0.453196
vt 0.505353 0.458869
vt 0.247536 0.455480
vt 0.273480 0.427399
vt 0.235966 0.401945
vt 0.499080 0.340221
vt 0.482211 0.396931
vt 0.429170 0.302166
vt 0.513113 0.272866
vt 0.492503 0.252085
vt 0.362415 0.362958
vt 0.386527 0.370478
vt 0.286668 0.340339
vt 0.335293 0.251112
vt 0.309890 0.239537
vt 0.513610 0.415309
vt 0.535330 0.406417
vt 0.213280 0.397379
vt 0.476994 0.435765
vt 0.481010 0.435654
vt 0.532074 0.291460
vt 0.471731 0.231282
vt 0.564443 0.236799
vt 0.552208 0.208986
vt 0.381968 0.276381
vt 0.405102 0.289256
vt 0.275764 0.426630
vt 0.358707 0.263644
vt 0.370146 0.135078
vt 0.575696 0.262030
vt 0.539875 0.181110
vt 0.624711 0.222066
vt 0.623275 0.191475
vt 0.431894 0.192453
vt 0.451625 0.211865
vt 0.391976 0.154754
vt 0.412006 0.173558
vt 0.625710 0.250266
vt 0.621779 0.160819
vt 0.686134 0.230703
vt 0.695607 0.201557
vt 0.515811 0.130262
vt 0.527859 0.155150
vt 0.490977 0.079991
vt 0.503723 0.105330
vt 0.477038 0.052906
vt 0.677676 0.257322
vt 0.705194 0.172280
vt 0.738617 0.263380
vt 0.777031 0.215459
vt 0.757812 0.239461
vt 0.618838 0.104756
vt 0.620383 0.132022
vt 0.614262 0.047653
vt 0.616730 0.076440
vt 0.611383 0.017278
vt 0.721834 0.285210
vt 0.825163 0.283614
vt 0.794150 0.192885
vt 0.847977 0.268884
vt 0.722156 0.118238
vt 0.714235 0.144593
vt 0.739025 0.063216
vt 0.730459 0.091037
vt 0.747771 0.032902
vt 0.772816 0.316443
vt 0.799028 0.300053
vt 0.809819 0.171577
vt 0.875510 0.355641
vt 0.869299 0.254764
vt 0.862722 0.104772
vt 0.749781 0.330555
vt 0.849097 0.363326
vt 0.819039 0.372714
vt 0.826416 0.150104
vt 0.900072 0.348041
vt 0.892054 0.240262
vt 0.843873 0.128345
vt 0.915850 0.226242
vt 0.943151 0.212646
vt 0.789032 0.382194
vt 0.762832 0.390065
vt 0.885991 0.484206
vt 0.857922 0.486061
vt 0.951677 0.332520
vt 0.980508 0.326535
vt 0.925469 0.339923
vt 0.796206 0.490287
vt 0.769935 0.493082
vt 0.826961 0.488100
vt 0.911832 0.482291
vt 0.879807 0.608107
vt 0.961371 0.477507
vt 0.987883 0.473791
vt 0.764493 0.591802
vt 0.852450 0.603978
vt 0.822741 0.599357
vt 0.936703 0.479980
vt 0.982588 0.621036
vt 0.792160 0.594890
vt 0.755045 0.665546
vt 0.861853 0.698415
vt 0.905582 0.611308
vt 0.955602 0.617324
vt 0.968264 0.727458
vt 0.780093 0.672786
vt 0.738446 0.724927
vt 0.835449 0.690445
vt 0.807726 0.681540
vt 0.930712 0.614141
vt 0.939273 0.719513
vt 0.934893 0.806981
vt 0.760195 0.733644
vt 0.729475 0.751387
vt 0.810876 0.755812
vt 0.784386 0.744547
vt 0.887382 0.705371
vt 0.836156 0.766045
vt 0.913330 0.712572
vt 0.909276 0.796331
vt 0.918871 0.835633
vt 0.735896 0.791735
vt 0.782851 0.813595
vt 0.759996 0.800084
vt 0.859765 0.775611
vt 0.823430 0.793077
vt 0.884382 0.785937
vt 0.878110 0.856749
vt 0.725530 0.827123
vt 0.762684 0.846160
vt 0.743691 0.836599
vt 0.832381 0.836259
vt 0.856330 0.843893
vt 0.712621 0.859656
vt 0.746889 0.877290
vt 0.821154 0.870811
vt 0.840536 0.879126
vt 0.859310 0.886867
vt 0.728757 0.869917
vt 0.699669 0.888620
vt 0.808991 0.902319
vt 0.844238 0.917081
vt 0.714279 0.902290
vt 0.688194 0.914280
vt 0.733941 0.906246
vt 0.826225 0.911362
vt 0.796534 0.930312
vt 0.701773 0.930256
vt 0.680868 0.930661
vt 0.722466 0.931906
vt 0.812298 0.942659
vt 0.785494 0.955118
vt 0.831778 0.945081
vt 0.692527 0.950778
vt 0.715142 0.948282
vt 0.800266 0.969695
vt 0.778449 0.970950
vt 0.820738 0.969888
vt 0.791483 0.989586
vt 0.813691 0.985724
vt 0.369650 0.849127
vt 0.295142 0.814027
vt 0.360649 0.814027
vt 0.286141 0.849127
vt 0.372177 0.882699
vt 0.327895 0.774766
vt 0.283613 0.882699
vt 0.366221 0.913206
vt 0.289569 0.913206
vt 0.353573 0.940234
vt 0.302218 0.940234
vt 0.327895 0.957489
vt 0.490632 0.662328
vt 0.490671 0.731662
vt 0.476562 0.718369
vt 0.460701 0.679503
vt 0.460219 0.646393
vt 0.482738 0.813343
vt 0.408298 0.849016
vt 0.417289 0.813343
vt 0.491729 0.849016
vt 0.450013 0.772041
vt 0.405760 0.882590
vt 0.494267 0.882590
vt 0.411716 0.913086
vt 0.488310 0.913086
vt 0.424356 0.940111
vt 0.475670 0.940111
vt 0.450013 0.957357
vt 0.504702 0.718369
vt 0.490593 0.731662
vt 0.520562 0.679503
vt 0.521045 0.646393
s 1
usemtl mFook_mat
f 172/78/60 170/79/61 171/80/62
f 172/78/63 289/81/64 170/79/65
f 172/78/60 171/80/62 173/82/66
f 172/78/63 290/83/67 289/81/64
f 172/78/60 173/82/66 166/84/68
f 172/78/63 285/85/69 290/83/67
f 172/78/60 166/84/68 165/86/70
f 172/78/63 165/86/71 285/85/69
f 170/79/61 169/87/72 171/80/62
f 170/79/65 289/81/64 287/88/73
f 170/79/61 174/89/74 169/87/72
f 170/79/65 287/88/73 174/89/75
f 173/82/76 143/90/77 166/84/78
f 173/82/76 171/80/79 149/91/80
f 173/82/76 151/92/81 143/90/77
f 173/82/76 149/91/80 151/92/81
f 290/83/82 285/85/83 264/93/84
f 290/83/82 275/94/85 289/81/86
f 290/83/82 264/93/84 291/95/87
f 290/83/82 291/95/87 275/94/85
f 165/86/70 166/84/68 145/96/88
f 165/86/71 145/96/89 285/85/69
f 285/85/83 145/96/90 264/93/84
f 166/84/78 143/90/77 145/96/91
f 169/87/72 174/89/74 167/97/92
f 169/87/93 154/98/94 171/80/79
f 169/87/93 167/97/95 168/99/96
f 169/87/93 168/99/96 154/98/94
f 171/80/79 154/98/94 149/91/80
f 287/88/97 289/81/86 276/100/98
f 287/88/73 286/101/99 174/89/75
f 287/88/97 276/100/98 288/102/100
f 287/88/97 288/102/100 286/101/101
f 289/81/86 275/94/85 276/100/98
f 151/92/102 152/103/103 143/90/104
f 151/92/102 149/91/105 150/104/106
f 151/92/102 150/104/106 152/103/103
f 291/95/107 264/93/108 279/105/109
f 291/95/107 273/106/110 275/94/111
f 291/95/107 279/105/109 273/106/110
f 145/96/112 143/90/104 144/107/113
f 145/96/114 263/108/115 264/93/108
f 145/96/116 144/107/117 159/109/118
f 145/96/119 281/110/120 263/108/121
f 264/93/108 263/108/115 279/105/109
f 143/90/104 152/103/103 144/107/113
f 167/97/95 164/111/122 168/99/96
f 167/97/92 174/89/74 175/112/123
f 167/97/95 162/113/124 164/111/122
f 167/97/92 175/112/123 162/113/125
f 174/89/75 286/101/99 175/112/126
f 154/98/127 153/114/128 149/91/105
f 154/98/127 168/99/129 153/114/128
f 149/91/105 153/114/128 150/104/106
f 288/102/130 276/100/131 274/115/132
f 288/102/100 284/116/133 286/101/101
f 288/102/130 274/115/132 317/117/134
f 288/102/130 312/118/135 284/116/136
f 288/102/130 317/117/134 312/118/135
f 275/94/111 273/106/110 274/115/132
f 275/94/111 274/115/132 276/100/131
f 159/109/118 144/107/117 198/119/137
f 144/107/117 152/103/138 198/119/137
f 281/110/120 277/120/139 263/108/121
f 263/108/121 277/120/139 279/105/140
f 164/111/122 162/113/124 147/121/141
f 164/111/142 196/122/143 168/99/129
f 164/111/142 147/121/144 146/123/145
f 164/111/142 146/123/145 196/122/143
f 175/112/126 286/101/99 283/124/146
f 175/112/123 163/125/147 162/113/125
f 175/112/126 283/124/146 163/125/148
f 286/101/101 284/116/133 283/124/149
f 153/114/150 155/126/151 150/104/152
f 153/114/128 168/99/129 157/127/153
f 153/114/150 156/128/154 155/126/151
f 153/114/150 157/127/155 156/128/154
f 168/99/129 196/122/143 157/127/153
f 317/117/134 270/129/156 312/118/135
f 317/117/157 274/115/158 318/130/159
f 317/117/157 318/130/159 270/129/160
f 273/106/161 279/105/140 278/131/162
f 273/106/161 280/132/163 274/115/158
f 273/106/161 278/131/162 280/132/163
f 280/132/163 318/130/159 274/115/158
f 278/131/162 279/105/140 277/120/139
f 152/103/138 158/133/164 198/119/137
f 152/103/138 150/104/152 158/133/164
f 158/133/164 150/104/152 155/126/151
f 147/121/144 118/134/165 146/123/145
f 147/121/141 162/113/124 160/135/166
f 147/121/144 119/136/167 118/134/165
f 147/121/141 160/135/166 119/136/168
f 162/113/125 163/125/147 160/135/169
f 284/116/133 265/137/170 283/124/149
f 284/116/136 312/118/135 266/138/171
f 284/116/136 266/138/171 265/137/172
f 156/128/154 157/127/155 319/139/173
f 156/128/154 319/139/173 320/140/174
f 157/127/153 196/122/143 319/139/175
f 270/129/160 318/130/159 272/141/176
f 270/129/156 269/142/177 312/118/135
f 270/129/160 272/141/176 268/143/178
f 270/129/156 268/143/179 269/142/177
f 146/123/180 118/134/181 132/144/182
f 146/123/180 148/145/183 196/122/184
f 146/123/180 132/144/182 148/145/183
f 119/136/168 160/135/166 141/146/185
f 119/136/167 120/147/186 118/134/165
f 119/136/168 141/146/185 121/148/187
f 119/136/167 121/148/188 120/147/186
f 163/125/148 283/124/146 282/149/189
f 163/125/147 161/150/190 160/135/169
f 163/125/148 282/149/189 161/150/191
f 160/135/169 161/150/190 141/146/192
f 283/124/149 265/137/170 282/149/193
f 266/138/194 312/118/195 267/151/196
f 266/138/171 247/152/197 265/137/172
f 266/138/194 267/151/196 257/153/198
f 266/138/194 257/153/198 247/152/199
f 320/140/174 319/139/173 333/154/200
f 320/140/174 333/154/200 335/155/201
f 272/141/176 271/156/202 268/143/178
f 196/122/184 148/145/183 197/157/203
f 196/122/143 334/158/204 319/139/175
f 319/139/175 334/158/204 333/154/205
f 132/144/182 118/134/181 131/159/206
f 118/134/181 120/147/207 131/159/206
f 121/148/187 141/146/185 137/160/208
f 121/148/188 123/161/209 120/147/186
f 121/148/187 137/160/208 122/162/210
f 121/148/188 122/162/211 123/161/209
f 161/150/191 282/149/189 262/163/212
f 161/150/190 142/164/213 141/146/192
f 161/150/191 262/163/212 142/164/214
f 141/146/192 142/164/213 137/160/215
f 312/118/195 313/165/216 267/151/196
f 265/137/172 247/152/197 248/166/217
f 265/137/170 248/166/218 282/149/193
f 282/149/193 248/166/218 262/163/219
f 257/153/198 256/167/220 247/152/199
f 131/159/206 120/147/207 130/168/221
f 120/147/207 123/161/222 130/168/221
f 122/162/210 137/160/208 139/169/223
f 122/162/211 127/170/224 123/161/209
f 122/162/210 139/169/223 126/171/225
f 122/162/211 126/171/226 127/170/224
f 142/164/214 262/163/212 260/172/227
f 142/164/213 138/173/228 137/160/215
f 142/164/214 260/172/227 138/173/229
f 137/160/215 138/173/228 139/169/230
f 248/166/217 247/152/197 243/174/231
f 248/166/218 245/175/232 262/163/219
f 248/166/217 243/174/231 245/175/233
f 262/163/219 245/175/232 260/172/234
f 247/152/199 256/167/220 243/174/235
f 130/168/221 123/161/222 129/176/236
f 123/161/222 127/170/237 129/176/236
f 126/171/225 139/169/223 136/177/238
f 126/171/226 125/178/239 127/170/224
f 126/171/225 136/177/238 124/179/240
f 126/171/226 124/179/241 125/178/239
f 138/173/229 260/172/227 261/180/242
f 138/173/228 140/181/243 139/169/230
f 138/173/229 261/180/242 140/181/244
f 139/169/230 140/181/243 136/177/245
f 245/175/233 243/174/231 244/182/246
f 245/175/232 246/183/247 260/172/234
f 245/175/233 244/182/246 246/183/248
f 260/172/234 246/183/247 261/180/249
f 256/167/220 255/184/250 243/174/235
f 243/174/235 255/184/250 244/182/251
f 129/176/236 127/170/237 128/185/252
f 127/170/237 125/178/253 128/185/252
f 124/179/240 136/177/238 133/186/254
f 124/179/241 100/187/255 125/178/239
f 124/179/240 133/186/254 117/188/256
f 124/179/241 98/189/257 100/187/255
f 124/179/240 117/188/256 98/189/258
f 140/181/244 261/180/242 259/190/259
f 140/181/243 135/191/260 136/177/245
f 140/181/244 259/190/259 135/191/261
f 136/177/245 135/191/260 133/186/262
f 246/183/248 244/182/246 251/192/263
f 246/183/247 252/193/264 261/180/249
f 246/183/248 251/192/263 252/193/265
f 261/180/249 252/193/264 259/190/266
f 255/184/250 254/194/267 244/182/251
f 244/182/251 254/194/267 251/192/268
f 128/185/252 125/178/253 109/195/269
f 125/178/253 100/187/270 109/195/269
f 117/188/256 113/196/271 98/189/258
f 117/188/272 133/186/262 116/197/273
f 117/188/272 115/198/274 113/196/275
f 117/188/272 116/197/273 115/198/274
f 135/191/261 259/190/259 258/199/276
f 135/191/260 134/200/277 133/186/262
f 135/191/261 258/199/276 134/200/278
f 134/200/277 116/197/273 133/186/262
f 134/200/278 258/199/276 116/197/279
f 252/193/265 251/192/263 249/201/280
f 252/193/264 250/202/281 259/190/266
f 252/193/265 249/201/280 250/202/282
f 259/190/266 250/202/281 258/199/283
f 254/194/267 253/203/284 251/192/268
f 251/192/268 253/203/284 249/201/285
f 100/187/270 101/204/286 109/195/269
f 100/187/255 98/189/257 99/205/287
f 100/187/255 99/205/287 101/204/288
f 98/189/258 113/196/271 99/205/289
f 115/198/290 116/197/279 242/206/291
f 115/198/274 114/207/292 113/196/275
f 115/198/290 242/206/291 241/208/293
f 115/198/290 241/208/293 114/207/294
f 258/199/283 250/202/281 242/206/295
f 258/199/276 242/206/291 116/197/279
f 253/203/284 238/209/296 249/201/285
f 109/195/269 101/204/286 108/210/297
f 99/205/289 113/196/271 112/211/298
f 99/205/287 103/212/299 101/204/288
f 99/205/289 112/211/298 103/212/300
f 113/196/275 114/207/292 112/211/301
f 241/208/302 242/206/295 232/213/303
f 241/208/293 240/214/304 114/207/294
f 241/208/302 232/213/303 230/215/305
f 241/208/302 230/215/305 240/214/306
f 242/206/295 250/202/281 232/213/303
f 238/209/296 231/216/307 249/201/285
f 238/209/296 229/217/308 231/216/307
f 238/209/296 237/218/309 229/217/308
f 231/216/310 229/217/311 230/215/312
f 231/216/310 250/202/282 249/201/280
f 231/216/310 230/215/312 232/213/313
f 231/216/310 232/213/313 250/202/282
f 108/210/297 101/204/286 102/219/314
f 108/210/297 102/219/314 107/220/315
f 101/204/288 103/212/299 102/219/316
f 112/211/301 114/207/292 111/221/317
f 112/211/298 110/222/318 103/212/300
f 112/211/301 111/221/317 110/222/319
f 114/207/294 240/214/304 111/221/320
f 237/218/309 227/223/321 229/217/308
f 237/218/309 236/224/322 227/223/321
f 230/215/305 228/225/323 240/214/306
f 230/215/312 229/217/311 228/225/324
f 229/217/311 227/223/325 228/225/324
f 107/220/315 102/219/314 104/226/326
f 107/220/315 104/226/326 106/227/327
f 103/212/300 110/222/318 105/228/328
f 103/212/299 105/228/329 102/219/316
f 102/219/316 105/228/329 104/226/330
f 111/221/320 240/214/304 239/229/331
f 111/221/317 94/230/332 110/222/319
f 111/221/320 239/229/331 94/230/333
f 240/214/306 228/225/323 239/229/334
f 236/224/322 233/231/335 227/223/321
f 236/224/322 235/232/336 233/231/335
f 106/227/327 104/226/326 93/233/337
f 105/228/328 110/222/318 96/234/338
f 105/228/329 81/235/339 104/226/330
f 105/228/328 96/234/338 81/235/340
f 110/222/319 94/230/332 96/234/341
f 228/225/323 234/236/342 239/229/334
f 228/225/324 227/223/325 234/236/343
f 227/223/325 233/231/344 234/236/343
f 235/232/336 206/237/345 233/231/335
f 93/233/337 104/226/326 79/238/346
f 93/233/337 79/238/346 92/239/347
f 104/226/330 81/235/339 79/238/348
f 94/230/332 95/240/349 96/234/341
f 94/230/333 239/229/331 222/241/350
f 94/230/333 222/241/350 95/240/351
f 239/229/334 234/236/342 222/241/352
f 206/237/345 203/242/353 233/231/335
f 206/237/345 207/243/354 203/242/353
f 92/239/347 79/238/346 78/244/355
f 92/239/347 78/244/355 91/245/356
f 81/235/340 96/234/338 97/246/357
f 81/235/339 80/247/358 79/238/348
f 81/235/340 97/246/357 80/247/359
f 79/238/348 80/247/358 78/244/360
f 96/234/341 95/240/349 97/246/361
f 234/236/342 202/248/362 222/241/352
f 234/236/343 233/231/344 202/248/363
f 233/231/344 203/242/364 202/248/363
f 207/243/354 205/249/365 203/242/353
f 207/243/354 299/250/366 205/249/365
f 91/245/356 78/244/355 88/251/367
f 91/245/356 88/251/367 90/252/368
f 80/247/359 97/246/357 181/253/369
f 80/247/358 86/254/370 78/244/360
f 80/247/359 181/253/369 86/254/371
f 78/244/360 86/254/370 88/251/372
f 95/240/351 222/241/350 223/255/373
f 95/240/349 183/256/374 97/246/361
f 95/240/351 223/255/373 183/256/375
f 97/246/361 183/256/374 181/253/376
f 222/241/352 202/248/362 223/255/377
f 203/242/364 205/249/378 204/257/379
f 203/242/364 204/257/379 202/248/363
f 202/248/362 204/257/380 223/255/377
f 299/250/366 296/258/381 205/249/365
f 299/250/366 298/259/382 296/258/381
f 90/252/368 88/251/367 89/260/383
f 86/254/371 181/253/369 180/261/384
f 86/254/370 87/262/385 88/251/372
f 86/254/371 180/261/384 87/262/386
f 88/251/372 87/262/385 89/260/387
f 183/256/375 223/255/373 224/263/388
f 183/256/374 182/264/389 181/253/376
f 183/256/375 224/263/388 225/264/390
f 181/253/376 182/264/389 180/261/391
f 223/255/377 204/257/380 224/263/392
f 205/249/378 296/258/393 226/265/394
f 205/249/378 226/265/394 204/257/379
f 204/257/380 226/265/395 224/263/392
f 298/259/382 297/266/396 296/258/381
f 87/262/385 194/267/397 89/260/387
f 87/262/386 180/261/384 179/268/398
f 87/262/385 177/269/399 194/267/397
f 87/262/386 179/268/398 177/269/400
f 225/264/390 224/263/388 221/270/401
f 224/263/392 226/265/395 221/270/402
f 296/258/393 220/271/403 226/265/394
f 296/258/393 295/266/396 220/271/403
f 226/265/395 220/271/404 221/270/402
f 194/267/397 177/269/399 195/272/405
f 179/268/398 178/273/406 177/269/400
f 220/271/404 219/274/407 221/270/402
f 220/271/404 218/275/408 219/274/407
f 220/271/409 293/276/410 218/275/411
f 220/271/409 305/266/412 293/276/410
f 195/272/405 177/269/399 176/277/413
f 195/272/405 176/277/413 185/278/414
f 177/269/400 178/273/406 176/277/415
f 219/274/407 218/275/408 212/279/416
f 293/276/410 294/280/417 218/275/411
f 185/278/414 176/277/413 186/281/418
f 185/278/414 186/281/418 187/282/419
f 178/273/406 190/283/420 176/277/415
f 176/277/415 190/283/420 186/281/421
f 212/279/416 218/275/408 213/284/422
f 212/279/416 213/284/422 214/285/423
f 218/275/411 294/280/417 213/284/424
f 187/282/419 186/281/418 188/286/425
f 187/282/419 188/286/425 192/287/426
f 190/283/420 189/288/427 186/281/421
f 186/281/421 189/288/427 188/286/428
f 214/285/423 213/284/422 215/289/429
f 214/285/423 215/289/429 217/290/430
f 294/280/417 301/291/431 213/284/424
f 213/284/424 301/291/431 215/289/432
f 192/287/426 188/286/425 191/292/433
f 189/288/427 193/293/434 188/286/428
f 188/286/428 193/293/434 191/292/435
f 217/290/430 215/289/429 216/294/436
f 217/290/430 216/294/436 304/295/434
f 301/291/431 300/296/437 215/289/432
f 215/289/432 300/296/437 216/294/438
f 304/295/434 216/294/436 303/297/439
f 300/296/437 302/298/426 216/294/438
f 216/294/438 302/298/426 303/297/440
f 83/299/397 84/300/412 82/301/441
f 83/299/397 85/302/442 84/300/412
f 83/299/397 326/303/443 85/302/442
f 82/301/441 84/300/412 184/304/444
f 326/303/443 325/305/417 85/302/442
f 326/303/443 328/306/445 325/305/417
f 328/306/445 327/307/431 325/305/417
f 328/306/445 308/308/419 327/307/431
f 308/308/419 307/309/446 327/307/431
f 308/308/419 306/310/447 307/309/446
f 201/311/448 199/312/448 200/313/449
f 201/311/448 200/313/449 321/314/450
f 201/311/448 321/314/450 322/315/451
f 209/316/452 210/317/453 208/318/454
f 209/316/452 211/319/407 210/317/453
f 209/316/452 208/318/454 292/320/455
f 211/319/407 331/321/456 210/317/453
f 211/319/407 332/322/416 331/321/456
f 332/322/416 329/323/420 331/321/456
f 332/322/416 330/324/423 329/323/420
f 330/324/423 309/325/457 329/323/420
f 330/324/423 310/326/458 309/325/457
f 310/326/458 311/327/459 309/325/457
f 315/311/448 316/328/460 314/329/448
f 315/311/448 323/330/461 316/328/460
f 315/311/448 324/331/462 323/330/461
