# Blender v2.79 (sub 0) OBJ File: ''
# www.blender.org
mtllib FishingRod.mtl
o Mari_FishingRod01
v 0.114265 -0.062623 -0.242019
v 0.111093 -0.192789 -0.206402
v 0.109996 -0.146910 -0.155235
v 0.108838 -0.175089 -0.280440
v 0.089200 -0.110670 -0.430022
v 0.108290 -0.181703 -0.323956
v 0.085115 0.047496 -0.267795
v 0.083017 0.012138 -0.408267
v 0.054404 0.125299 -0.284711
v 0.054056 0.115269 -0.325982
v 0.085427 0.081642 -0.122272
v 0.054762 0.135621 -0.242237
v 0.092432 -0.017508 -0.046686
v 0.110105 -0.129369 -0.108613
v 0.210327 -0.063287 -0.236984
v 0.198075 -0.037406 -0.132362
v 0.163601 -0.146850 -0.154604
v 0.163601 -0.192973 -0.205564
v 0.176963 0.047662 -0.264810
v 0.164710 0.066969 -0.186756
v 0.106205 0.126991 -0.286194
v 0.164710 0.026046 -0.352194
v 0.142736 0.012062 -0.408727
v 0.144144 -0.111002 -0.429885
v 0.198075 -0.092258 -0.354110
v 0.163601 -0.175540 -0.279699
v 0.163601 -0.182328 -0.323191
v 0.106205 0.116793 -0.327425
v 0.142736 0.082737 -0.123010
v 0.106205 0.137488 -0.243762
v 0.144144 -0.016272 -0.046920
v 0.163601 -0.129113 -0.108057
v 0.108290 -0.181703 -0.323956
v 0.108838 -0.175089 -0.280440
v 0.089200 -0.110670 -0.430022
v 0.083017 0.012138 -0.408267
v 0.054056 0.115269 -0.325982
v 0.054404 0.125299 -0.284711
v 0.054762 0.135621 -0.242237
v 0.085427 0.081642 -0.122272
v 0.092432 -0.017508 -0.046686
v 0.109996 -0.146910 -0.155235
v 0.111093 -0.192789 -0.206402
v 0.110105 -0.129369 -0.108613
v 0.051646 0.163639 0.192487
v -0.042455 0.163639 0.192487
v -0.028674 0.093315 0.185294
v 0.037865 0.093315 0.185294
v 0.098697 0.144070 0.113377
v 0.071135 0.079477 0.129355
v 0.051646 0.124501 0.034267
v 0.037865 0.065640 0.073416
v -0.042455 0.124501 0.034267
v -0.028674 0.065640 0.073416
v -0.089506 0.144070 0.113377
v -0.061944 0.079477 0.129355
v -0.042455 0.163639 0.192487
v -0.028674 0.093315 0.185294
v 0.037865 0.222500 0.153338
v -0.028674 0.222500 0.153338
v 0.071135 0.208663 0.097399
v 0.037865 0.194826 0.041460
v -0.028674 0.194826 0.041460
v -0.061944 0.208663 0.097399
v -0.028674 0.222500 0.153338
v 0.004595 0.052723 0.135973
v 0.004595 0.052723 0.135973
v 0.004595 0.052723 0.135973
v 0.004595 0.052723 0.135973
v 0.004595 0.235418 0.090781
v 0.004595 0.235418 0.090781
v 0.004595 0.235418 0.090781
v 0.004595 0.235418 0.090781
v 0.004595 0.235418 0.090781
v 0.004595 0.235418 0.090781
v 0.004595 0.052723 0.135973
v 0.004595 0.052723 0.135973
v 0.047367 0.327225 0.655818
v -0.038176 0.327225 0.655818
v -0.025649 0.263296 0.649279
v 0.034840 0.263296 0.649279
v 0.090139 0.309436 0.583902
v 0.065084 0.250717 0.598427
v 0.047367 0.291647 0.511987
v 0.034840 0.238138 0.547575
v -0.038176 0.291647 0.511987
v -0.025649 0.238138 0.547575
v -0.080948 0.309436 0.583902
v -0.055893 0.250717 0.598427
v -0.038176 0.327225 0.655818
v -0.025649 0.263296 0.649279
v 0.034840 0.380734 0.620229
v -0.025649 0.380734 0.620229
v 0.065084 0.368155 0.569377
v 0.034840 0.355576 0.518526
v -0.025649 0.355576 0.518526
v -0.055893 0.368155 0.569377
v -0.025649 0.380734 0.620229
v 0.004595 0.226395 0.604444
v 0.004595 0.226395 0.604444
v 0.004595 0.226395 0.604444
v 0.004595 0.226395 0.604444
v 0.004595 0.392477 0.563361
v 0.004595 0.392477 0.563361
v 0.004595 0.392477 0.563361
v 0.004595 0.392477 0.563361
v 0.004595 0.392477 0.563361
v 0.004595 0.392477 0.563361
v 0.004595 0.226395 0.604444
v 0.004595 0.226395 0.604444
v 0.032846 0.287928 1.095573
v -0.023655 0.287928 1.095573
v -0.015381 0.245703 1.091254
v 0.024572 0.245703 1.091254
v 0.061097 0.276178 1.048073
v 0.044548 0.237395 1.057667
v 0.032846 0.264429 1.000574
v 0.024572 0.229087 1.024079
v -0.023655 0.264429 1.000574
v -0.015381 0.229087 1.024079
v -0.051906 0.276178 1.048073
v -0.035357 0.237395 1.057667
v -0.023655 0.287928 1.095573
v -0.015381 0.245703 1.091254
v 0.024572 0.323269 1.072067
v -0.015381 0.323269 1.072067
v 0.044548 0.314961 1.038480
v 0.024572 0.306652 1.004892
v -0.015381 0.306652 1.004892
v -0.035357 0.314961 1.038480
v -0.015381 0.323269 1.072067
v 0.004595 0.221330 1.061641
v 0.004595 0.221330 1.061641
v 0.004595 0.221330 1.061641
v 0.004595 0.221330 1.061641
v 0.004595 0.331025 1.034506
v 0.004595 0.331025 1.034506
v 0.004595 0.331025 1.034506
v 0.004595 0.331025 1.034506
v 0.004595 0.331025 1.034506
v 0.004595 0.331025 1.034506
v 0.004595 0.221330 1.061641
v 0.004595 0.221330 1.061641
v 0.052778 0.211616 0.237649
v 0.004595 0.170311 0.262456
v 0.004595 -0.006420 -0.091979
v 0.052778 0.034886 -0.116786
v 0.004595 0.252921 0.212841
v 0.004595 0.076192 -0.141594
v -0.043587 0.211616 0.237649
v -0.043587 0.034886 -0.116786
v 0.004595 0.170311 0.262456
v 0.004595 -0.006420 -0.091979
v 0.046150 0.313255 0.513653
v 0.004595 0.272283 0.520586
v 0.004595 0.354227 0.506721
v -0.036959 0.313255 0.513653
v 0.004595 0.272283 0.520586
v 0.034788 0.336192 0.823855
v 0.004595 0.306436 0.818740
v 0.004595 0.365948 0.828971
v -0.025597 0.336192 0.823855
v 0.004595 0.306436 0.818740
v 0.018692 0.279752 1.058516
v 0.004595 0.265859 1.056127
v 0.004595 0.293645 1.060904
v -0.009501 0.279752 1.058516
v 0.004595 0.265859 1.056127
v -0.043587 -0.017541 -0.328732
v 0.004595 -0.065686 -0.330634
v -0.030238 -0.010631 -0.827242
v 0.004595 0.024175 -0.825868
v 0.004595 0.030604 -0.326832
v 0.052778 -0.017541 -0.328732
v 0.004595 -0.065686 -0.330634
v 0.004595 -0.045437 -0.828617
v 0.039429 -0.010631 -0.827242
v 0.004595 -0.045437 -0.828617
v 0.021874 -0.234988 -0.201870
v 0.006663 -0.263139 -0.194907
v 0.006663 -0.286325 -0.298707
v 0.021874 -0.258175 -0.305670
v 0.007350 -0.184917 -0.088452
v 0.021874 -0.164560 -0.103193
v 0.007441 -0.000928 0.097296
v 0.021874 0.015143 0.081563
v 0.006663 0.074024 0.143512
v 0.021874 0.111178 0.136569
v 0.008302 0.001599 0.248338
v 0.021874 0.029716 0.253588
v 0.007225 -0.019450 0.382366
v 0.021874 0.006840 0.380071
v 0.007859 0.056419 0.526051
v 0.021874 0.073029 0.511310
v 0.007976 0.181180 0.583933
v 0.021874 0.194257 0.561567
v 0.006663 0.218544 0.600764
v 0.021874 0.264604 0.592413
v 0.006456 0.154672 0.668917
v 0.021874 0.173457 0.681159
v 0.006663 0.090060 0.757763
v 0.021874 0.116648 0.757944
v 0.006663 0.084692 0.845543
v 0.021874 0.111280 0.845724
v 0.006663 0.146311 0.946829
v 0.021874 0.169355 0.933565
v 0.006663 0.241473 1.040989
v 0.021874 0.264517 1.027726
v -0.008547 0.194257 0.561567
v -0.008547 0.073029 0.511310
v 0.007976 0.181180 0.583933
v 0.007859 0.056419 0.526051
v -0.008547 0.006840 0.380071
v 0.007225 -0.019450 0.382366
v -0.008547 0.029716 0.253588
v 0.008302 0.001599 0.248338
v -0.008547 0.111178 0.136569
v 0.006663 0.074024 0.143512
v -0.008547 0.015143 0.081563
v 0.007441 -0.000928 0.097296
v -0.008547 -0.164560 -0.103193
v 0.007350 -0.184917 -0.088452
v -0.008547 -0.234988 -0.201870
v 0.006663 -0.263139 -0.194907
v 0.006663 -0.286325 -0.298707
v -0.008547 -0.258175 -0.305670
v 0.006663 0.218544 0.600764
v -0.008547 0.264604 0.592413
v 0.006456 0.154672 0.668917
v -0.008547 0.173457 0.681159
v 0.006663 0.090060 0.757763
v -0.008547 0.116648 0.757944
v 0.006663 0.084692 0.845543
v -0.008547 0.111280 0.845724
v 0.006663 0.146311 0.946829
v -0.008547 0.169355 0.933565
v 0.006663 0.241473 1.040989
v -0.008547 0.264517 1.027726
v 0.004711 0.242727 1.047497
v 0.015332 0.245254 1.057711
v 0.005038 -0.024933 1.124308
v 0.005364 0.247670 1.067478
v -0.005257 0.245143 1.057265
v 0.004711 0.242727 1.047497
v 0.075477 0.027210 -0.131368
v -0.066286 0.027210 -0.131368
v -0.045525 -0.078733 -0.142204
v 0.054716 -0.078733 -0.142204
v 0.146359 -0.002269 -0.250546
v 0.104837 -0.099578 -0.226476
v 0.075477 -0.031749 -0.369725
v 0.054716 -0.120424 -0.310748
v -0.066286 -0.031749 -0.369725
v -0.045525 -0.120424 -0.310748
v -0.137168 -0.002269 -0.250546
v -0.095646 -0.099578 -0.226476
v -0.066286 0.027210 -0.131368
v -0.045525 -0.078733 -0.142204
v 0.054716 0.115885 -0.190345
v -0.045525 0.115885 -0.190345
v 0.104837 0.095040 -0.274617
v 0.054716 0.074194 -0.358889
v -0.045525 0.074194 -0.358889
v -0.095646 0.095040 -0.274617
v -0.045525 0.115885 -0.190345
v 0.004595 -0.139885 -0.216506
v 0.004595 -0.139885 -0.216506
v 0.004595 -0.139885 -0.216506
v 0.004595 -0.139885 -0.216506
v 0.004595 0.135346 -0.284587
v 0.004595 0.135346 -0.284587
v 0.004595 0.135346 -0.284587
v 0.004595 0.135346 -0.284587
v 0.004595 0.135346 -0.284587
v 0.004595 0.135346 -0.284587
v 0.004595 -0.139885 -0.216506
v 0.004595 -0.139885 -0.216506
v 0.035201 0.042330 -0.899634
v -0.026010 0.042330 -0.899634
v -0.026010 0.040957 -0.808200
v 0.035201 0.040957 -0.808200
v 0.065806 -0.010679 -0.899504
v 0.065806 -0.012053 -0.808070
v 0.035201 -0.063689 -0.899374
v 0.035201 -0.065062 -0.807940
v -0.026010 -0.063689 -0.899374
v -0.026010 -0.065062 -0.807940
v -0.056615 -0.010679 -0.899504
v -0.056615 -0.012053 -0.808070
v -0.026010 0.042330 -0.899634
v -0.026010 0.040957 -0.808200
v -0.026010 0.040957 -0.808200
v 0.004595 -0.012053 -0.808070
v 0.035201 0.040957 -0.808200
v 0.065806 -0.012053 -0.808070
v 0.035201 -0.065062 -0.807940
v -0.026010 -0.065062 -0.807940
v -0.056615 -0.012053 -0.808070
v 0.035201 0.042330 -0.899634
v 0.004595 -0.012894 -0.916042
v -0.026010 0.042330 -0.899634
v 0.065806 -0.010679 -0.899504
v 0.035201 -0.063689 -0.899374
v -0.026010 -0.063689 -0.899374
v -0.056615 -0.010679 -0.899504
v -0.060170 0.029238 -0.174550
v -0.060170 -0.093174 -0.136919
v -0.060170 -0.100835 -0.167890
v -0.060170 0.016992 -0.228488
v -0.060170 -0.174928 -0.215244
v -0.060170 -0.187530 -0.185934
v -0.043635 -0.241135 -0.364553
v -0.060170 -0.174928 -0.215244
v -0.060170 -0.187530 -0.185934
v -0.043635 -0.282708 -0.316182
v -0.089532 0.029238 -0.174550
v -0.089532 0.016992 -0.228488
v -0.089532 -0.100835 -0.167890
v -0.089532 -0.093174 -0.136919
v -0.089532 -0.174928 -0.215244
v -0.089532 -0.187530 -0.185934
v -0.089532 -0.241135 -0.364553
v -0.089532 -0.282708 -0.316182
v -0.060170 0.029238 -0.174550
v -0.089532 0.029238 -0.174550
v -0.089532 -0.093174 -0.136919
v -0.060170 -0.093174 -0.136919
v -0.089532 -0.187530 -0.185934
v -0.060170 -0.187530 -0.185934
v -0.060170 0.016992 -0.228488
v -0.089532 0.016992 -0.228488
v -0.089532 0.029238 -0.174550
v -0.060170 0.029238 -0.174550
v -0.060170 -0.100835 -0.167890
v -0.089532 -0.100835 -0.167890
v -0.089532 0.016992 -0.228488
v -0.060170 0.016992 -0.228488
v -0.060170 -0.174928 -0.215244
v -0.089532 -0.174928 -0.215244
v -0.089532 -0.100835 -0.167890
v -0.060170 -0.100835 -0.167890
v -0.043635 -0.241135 -0.364553
v -0.089532 -0.241135 -0.364553
v -0.089532 -0.174928 -0.215244
v -0.060170 -0.174928 -0.215244
v -0.043635 -0.282708 -0.316182
v -0.089532 -0.282708 -0.316182
v -0.089532 -0.241135 -0.364553
v -0.043635 -0.241135 -0.364553
v -0.060170 -0.187530 -0.185934
v -0.089532 -0.187530 -0.185934
v -0.089532 -0.282708 -0.316182
v -0.043635 -0.282708 -0.316182
v 0.064872 -0.214595 -0.228310
v 0.064872 -0.287246 -0.239305
v 0.094970 -0.287246 -0.239305
v 0.094970 -0.214595 -0.228310
v 0.064872 -0.155447 -0.271908
v 0.094970 -0.155447 -0.271908
v 0.064872 -0.144452 -0.344560
v 0.094970 -0.144452 -0.344560
v 0.064872 -0.188049 -0.403707
v 0.094970 -0.188049 -0.403707
v 0.064872 -0.260701 -0.414702
v 0.094970 -0.260701 -0.414702
v 0.064872 -0.319849 -0.371105
v 0.094970 -0.319849 -0.371105
v 0.064872 -0.330844 -0.298453
v 0.094970 -0.330844 -0.298453
v 0.064872 -0.287246 -0.239305
v 0.094970 -0.287246 -0.239305
v 0.094970 -0.287246 -0.239305
v 0.094970 -0.237648 -0.321506
v 0.094970 -0.214595 -0.228310
v 0.094970 -0.155447 -0.271908
v 0.094970 -0.144452 -0.344560
v 0.094970 -0.188049 -0.403707
v 0.094970 -0.260701 -0.414702
v 0.094970 -0.319849 -0.371105
v 0.094970 -0.330844 -0.298453
v 0.064872 -0.214595 -0.228310
v 0.064872 -0.237648 -0.321506
v 0.064872 -0.287246 -0.239305
v 0.064872 -0.155447 -0.271908
v 0.064872 -0.144452 -0.344560
v 0.064872 -0.188049 -0.403707
v 0.064872 -0.260701 -0.414702
v 0.064872 -0.319849 -0.371105
v 0.064872 -0.330844 -0.298453
v -0.024210 -0.194054 -0.276247
v -0.024210 -0.254799 -0.261221
v 0.066292 -0.254799 -0.261221
v 0.066292 -0.194054 -0.276247
v -0.024210 -0.176695 -0.336365
v 0.066292 -0.176695 -0.336365
v -0.024210 -0.220080 -0.381458
v 0.066292 -0.220080 -0.381458
v -0.024210 -0.280823 -0.366432
v 0.066292 -0.280823 -0.366432
v -0.024210 -0.298182 -0.306314
v 0.066292 -0.298182 -0.306314
v -0.024210 -0.254799 -0.261221
v 0.066292 -0.254799 -0.261221
v 0.066292 -0.254799 -0.261221
v 0.066292 -0.237439 -0.321339
v 0.066292 -0.194054 -0.276247
v 0.066292 -0.176695 -0.336365
v 0.066292 -0.220080 -0.381458
v 0.066292 -0.280823 -0.366432
v 0.066292 -0.298182 -0.306314
v -0.024210 -0.194054 -0.276247
v -0.024210 -0.237439 -0.321339
v -0.024210 -0.254799 -0.261221
v -0.024210 -0.176695 -0.336365
v -0.024210 -0.220080 -0.381458
v -0.024210 -0.280823 -0.366432
v -0.024210 -0.298182 -0.306314
v -0.049114 -0.214595 -0.228310
v -0.049114 -0.287246 -0.239305
v -0.019016 -0.287246 -0.239305
v -0.019016 -0.214595 -0.228310
v -0.049114 -0.155447 -0.271908
v -0.019016 -0.155447 -0.271908
v -0.049114 -0.144452 -0.344560
v -0.019016 -0.144452 -0.344560
v -0.049114 -0.188049 -0.403707
v -0.019016 -0.188049 -0.403707
v -0.049114 -0.260701 -0.414702
v -0.019016 -0.260701 -0.414702
v -0.049114 -0.319849 -0.371105
v -0.019016 -0.319849 -0.371105
v -0.049114 -0.330844 -0.298453
v -0.019016 -0.330844 -0.298453
v -0.049114 -0.287246 -0.239305
v -0.019016 -0.287246 -0.239305
v -0.019016 -0.287246 -0.239305
v -0.019016 -0.237648 -0.321506
v -0.019016 -0.214595 -0.228310
v -0.019016 -0.155447 -0.271908
v -0.019016 -0.144452 -0.344560
v -0.019016 -0.188049 -0.403707
v -0.019016 -0.260701 -0.414702
v -0.019016 -0.319849 -0.371105
v -0.019016 -0.330844 -0.298453
v -0.049114 -0.214595 -0.228310
v -0.049114 -0.237648 -0.321506
v -0.049114 -0.287246 -0.239305
v -0.049114 -0.155447 -0.271908
v -0.049114 -0.144452 -0.344560
v -0.049114 -0.188049 -0.403707
v -0.049114 -0.260701 -0.414702
v -0.049114 -0.319849 -0.371105
v -0.049114 -0.330844 -0.298453
v -0.101902 -0.192789 -0.206402
v -0.105074 -0.062623 -0.242019
v -0.100805 -0.146910 -0.155235
v -0.099647 -0.175089 -0.280440
v -0.080010 -0.110670 -0.430022
v -0.099099 -0.181703 -0.323956
v -0.075924 0.047496 -0.267795
v -0.073826 0.012138 -0.408267
v -0.045213 0.125299 -0.284711
v -0.044866 0.115269 -0.325982
v -0.076236 0.081642 -0.122272
v -0.045571 0.135621 -0.242237
v -0.083241 -0.017508 -0.046686
v -0.100914 -0.129369 -0.108613
v -0.201137 -0.063287 -0.236984
v -0.154410 -0.192973 -0.205564
v -0.154410 -0.146850 -0.154604
v -0.188884 -0.037406 -0.132362
v -0.167772 0.047662 -0.264810
v -0.155519 0.066969 -0.186756
v -0.097014 0.126991 -0.286194
v -0.155519 0.026046 -0.352194
v -0.133546 0.012062 -0.408727
v -0.134953 -0.111002 -0.429885
v -0.188884 -0.092258 -0.354110
v -0.154410 -0.175540 -0.279699
v -0.154410 -0.182328 -0.323191
v -0.097014 0.116793 -0.327425
v -0.133546 0.082737 -0.123010
v -0.097014 0.137488 -0.243762
v -0.134953 -0.016272 -0.046920
v -0.154410 -0.129113 -0.108057
v -0.099099 -0.181703 -0.323956
v -0.099647 -0.175089 -0.280440
v -0.080010 -0.110670 -0.430022
v -0.073826 0.012138 -0.408267
v -0.044866 0.115269 -0.325982
v -0.045213 0.125299 -0.284711
v -0.101902 -0.192789 -0.206402
v -0.100805 -0.146910 -0.155235
v -0.045571 0.135621 -0.242237
v -0.076236 0.081642 -0.122272
v -0.083241 -0.017508 -0.046686
v -0.100914 -0.129369 -0.108613
vt 0.403076 -0.625000
vt 0.404053 -0.666504
vt 0.423096 -0.656494
vt 0.383057 -0.655762
vt 0.342773 -0.624756
vt 0.369629 -0.654297
vt 0.403320 -0.589111
vt 0.358643 -0.589355
vt 0.403809 -0.562744
vt 0.390625 -0.562744
vt 0.449463 -0.589600
vt 0.417480 -0.562744
vt 0.465088 -0.625000
vt 0.438232 -0.654541
vt 0.755859 -0.267578
vt 0.666016 -0.264648
vt 0.695801 -0.366211
vt 0.755859 -0.388672
vt 0.756836 -0.166504
vt 0.685059 -0.167969
vt 0.759766 -0.067871
vt 0.836914 -0.169434
vt 0.897949 -0.159668
vt 0.940918 -0.263184
vt 0.855957 -0.265137
vt 0.823242 -0.363770
vt 0.862793 -0.352539
vt 0.800781 -0.070313
vt 0.617676 -0.157715
vt 0.717285 -0.069336
vt 0.572754 -0.261719
vt 0.650879 -0.351074
vt 0.901367 -0.390137
vt 0.849121 -0.417969
vt 0.993164 -0.265137
vt 0.941895 -0.119629
vt 0.814941 -0.018555
vt 0.759766 -0.013184
vt 0.702148 -0.019043
vt 0.574707 -0.119629
vt 0.523438 -0.264648
vt 0.672852 -0.419922
vt 0.757324 -0.438965
vt 0.614258 -0.390137
vt 0.073547 -0.179199
vt 0.020111 -0.179199
vt 0.020111 -0.259277
vt 0.073547 -0.259277
vt 0.126953 -0.179199
vt 0.126953 -0.259277
vt 0.180298 -0.179199
vt 0.180298 -0.259277
vt 0.233765 -0.179199
vt 0.233765 -0.259277
vt 0.287109 -0.179199
vt 0.287109 -0.259277
vt 0.340576 -0.179199
vt 0.340576 -0.259277
vt 0.073547 -0.098633
vt 0.020111 -0.098633
vt 0.126953 -0.098633
vt 0.180298 -0.098633
vt 0.233765 -0.098633
vt 0.287109 -0.098633
vt 0.340576 -0.098633
vt 0.153564 -0.339355
vt 0.207031 -0.339355
vt 0.260498 -0.339355
vt 0.313721 -0.339355
vt 0.046814 -0.018555
vt 0.100220 -0.018555
vt 0.153564 -0.018555
vt 0.207031 -0.018555
vt 0.260498 -0.018555
vt 0.313721 -0.018555
vt 0.100220 -0.339355
vt 0.046814 -0.339355
vt 0.073547 -0.179199
vt 0.020111 -0.179199
vt 0.020111 -0.259277
vt 0.073547 -0.259277
vt 0.126953 -0.179199
vt 0.126953 -0.259277
vt 0.180298 -0.179199
vt 0.180298 -0.259277
vt 0.233765 -0.179199
vt 0.233765 -0.259277
vt 0.287109 -0.179199
vt 0.287109 -0.259277
vt 0.340576 -0.179199
vt 0.340576 -0.259277
vt 0.073547 -0.098633
vt 0.020111 -0.098633
vt 0.126953 -0.098633
vt 0.180298 -0.098633
vt 0.233765 -0.098633
vt 0.287109 -0.098633
vt 0.340576 -0.098633
vt 0.153564 -0.339355
vt 0.207031 -0.339355
vt 0.260498 -0.339355
vt 0.313721 -0.339355
vt 0.046814 -0.018555
vt 0.100220 -0.018555
vt 0.153564 -0.018555
vt 0.207031 -0.018555
vt 0.260498 -0.018555
vt 0.313721 -0.018555
vt 0.100220 -0.339355
vt 0.046814 -0.339355
vt 0.073547 -0.179199
vt 0.020111 -0.179199
vt 0.020111 -0.259277
vt 0.073547 -0.259277
vt 0.126953 -0.179199
vt 0.126953 -0.259277
vt 0.180298 -0.179199
vt 0.180298 -0.259277
vt 0.233765 -0.179199
vt 0.233765 -0.259277
vt 0.287109 -0.179199
vt 0.287109 -0.259277
vt 0.340576 -0.179199
vt 0.340576 -0.259277
vt 0.073547 -0.098633
vt 0.020111 -0.098633
vt 0.126953 -0.098633
vt 0.180298 -0.098633
vt 0.233765 -0.098633
vt 0.287109 -0.098633
vt 0.340576 -0.098633
vt 0.153564 -0.339355
vt 0.207031 -0.339355
vt 0.260498 -0.339355
vt 0.313721 -0.339355
vt 0.046814 -0.018555
vt 0.100220 -0.018555
vt 0.153564 -0.018555
vt 0.207031 -0.018555
vt 0.260498 -0.018555
vt 0.313721 -0.018555
vt 0.100220 -0.339355
vt 0.046814 -0.339355
vt 0.452393 -0.948242
vt 0.452393 -0.989418
vt 0.636719 -0.989418
vt 0.636719 -0.948242
vt 0.452393 -0.903503
vt 0.636719 -0.903503
vt 0.452393 -0.852783
vt 0.636719 -0.852783
vt 0.452393 -0.812012
vt 0.636719 -0.812012
vt 0.282227 -0.948242
vt 0.282227 -0.989418
vt 0.282227 -0.903503
vt 0.282227 -0.852783
vt 0.282227 -0.812012
vt 0.131470 -0.948242
vt 0.131470 -0.989418
vt 0.131470 -0.903503
vt 0.131470 -0.852783
vt 0.131470 -0.812012
vt 0.003836 -0.948242
vt 0.003836 -0.989418
vt 0.003836 -0.903503
vt 0.003836 -0.852783
vt 0.003836 -0.812012
vt 0.809082 -0.852783
vt 0.809082 -0.812012
vt 0.991699 -0.852783
vt 0.991699 -0.903503
vt 0.809082 -0.903503
vt 0.809082 -0.948242
vt 0.809082 -0.989418
vt 0.991699 -0.989418
vt 0.991699 -0.948242
vt 0.991699 -0.812012
vt 0.069519 -0.723389
vt 0.069519 -0.702637
vt 0.006382 -0.702637
vt 0.006382 -0.723389
vt 0.141724 -0.702637
vt 0.141724 -0.723389
vt 0.265869 -0.702637
vt 0.265869 -0.723389
vt 0.320068 -0.702637
vt 0.320068 -0.723389
vt 0.397949 -0.702637
vt 0.397949 -0.723389
vt 0.477051 -0.702637
vt 0.477051 -0.723389
vt 0.566406 -0.702637
vt 0.566406 -0.723389
vt 0.651855 -0.702637
vt 0.651855 -0.723389
vt 0.681641 -0.702637
vt 0.681641 -0.723389
vt 0.735840 -0.702637
vt 0.735840 -0.723389
vt 0.797852 -0.702637
vt 0.797852 -0.723389
vt 0.845703 -0.702637
vt 0.845703 -0.723389
vt 0.907227 -0.702637
vt 0.907227 -0.723389
vt 0.988281 -0.702637
vt 0.988281 -0.723389
vt 0.651855 -0.748291
vt 0.566406 -0.748291
vt 0.651855 -0.768433
vt 0.566406 -0.768433
vt 0.477051 -0.748291
vt 0.477051 -0.768433
vt 0.397949 -0.748291
vt 0.397949 -0.768433
vt 0.320068 -0.748291
vt 0.320068 -0.768433
vt 0.265869 -0.748291
vt 0.265869 -0.768433
vt 0.141724 -0.748291
vt 0.141724 -0.768433
vt 0.069519 -0.748291
vt 0.069519 -0.768433
vt 0.006382 -0.768433
vt 0.006382 -0.748291
vt 0.681641 -0.768433
vt 0.681641 -0.748291
vt 0.735840 -0.768433
vt 0.735840 -0.748291
vt 0.797852 -0.768433
vt 0.797852 -0.748291
vt 0.845703 -0.768433
vt 0.845703 -0.748291
vt 0.907227 -0.768433
vt 0.907227 -0.748291
vt 0.988281 -0.768433
vt 0.988281 -0.748291
vt 0.845215 -0.688477
vt 0.844238 -0.664795
vt 0.406006 -0.687012
vt 0.842773 -0.642578
vt 0.839844 -0.619141
vt 0.835938 -0.597168
vt 0.073547 -0.179199
vt 0.020111 -0.179199
vt 0.020111 -0.259277
vt 0.073547 -0.259277
vt 0.126953 -0.179199
vt 0.126953 -0.259277
vt 0.180298 -0.179199
vt 0.180298 -0.259277
vt 0.233765 -0.179199
vt 0.233765 -0.259277
vt 0.287109 -0.179199
vt 0.287109 -0.259277
vt 0.340576 -0.179199
vt 0.340576 -0.259277
vt 0.073547 -0.098633
vt 0.020111 -0.098633
vt 0.126953 -0.098633
vt 0.180298 -0.098633
vt 0.233765 -0.098633
vt 0.287109 -0.098633
vt 0.340576 -0.098633
vt 0.153564 -0.339355
vt 0.207031 -0.339355
vt 0.260498 -0.339355
vt 0.313721 -0.339355
vt 0.046814 -0.018555
vt 0.100220 -0.018555
vt 0.153564 -0.018555
vt 0.207031 -0.018555
vt 0.260498 -0.018555
vt 0.313721 -0.018555
vt 0.100220 -0.339355
vt 0.046814 -0.339355
vt 0.087036 -0.362793
vt 0.028397 -0.362793
vt 0.028152 -0.450684
vt 0.086792 -0.450684
vt 0.145630 -0.362793
vt 0.145508 -0.450684
vt 0.204346 -0.362793
vt 0.204102 -0.450684
vt 0.262939 -0.362793
vt 0.262695 -0.450684
vt 0.321533 -0.362793
vt 0.321289 -0.450684
vt 0.380371 -0.362793
vt 0.380127 -0.450684
vt 0.383789 -0.554443
vt 0.357666 -0.509033
vt 0.331299 -0.554443
vt 0.305176 -0.509033
vt 0.331299 -0.463379
vt 0.383789 -0.463379
vt 0.409912 -0.509033
vt 0.828125 -0.483398
vt 0.853516 -0.528809
vt 0.878418 -0.483398
vt 0.802734 -0.527100
vt 0.828125 -0.570801
vt 0.878418 -0.570801
vt 0.903809 -0.527100
vt 0.503418 -0.075684
vt 0.457520 -0.160156
vt 0.475342 -0.176270
vt 0.534180 -0.103516
vt 0.482178 -0.240723
vt 0.458496 -0.240234
vt 0.549805 -0.340820
vt 0.482178 -0.240723
vt 0.458496 -0.240234
vt 0.503906 -0.354492
vt 0.412354 -0.331055
vt 0.453613 -0.323242
vt 0.411133 -0.228516
vt 0.389404 -0.238281
vt 0.416504 -0.156250
vt 0.393311 -0.162109
vt 0.465088 -0.039063
vt 0.416504 -0.041504
vt 0.390625 -0.336426
vt 0.412354 -0.331055
vt 0.389404 -0.238281
vt 0.367432 -0.240723
vt 0.393311 -0.162109
vt 0.371094 -0.159180
vt 0.534180 -0.103516
vt 0.548828 -0.087402
vt 0.518555 -0.059570
vt 0.503418 -0.075684
vt 0.432861 -0.223633
vt 0.411133 -0.228516
vt 0.453613 -0.323242
vt 0.473877 -0.314453
vt 0.438232 -0.162109
vt 0.416504 -0.156250
vt 0.411133 -0.228516
vt 0.432861 -0.223633
vt 0.497559 -0.052246
vt 0.465088 -0.039063
vt 0.416504 -0.156250
vt 0.438232 -0.162109
vt 0.503906 -0.354492
vt 0.514160 -0.387207
vt 0.559570 -0.373535
vt 0.549805 -0.340820
vt 0.371094 -0.159180
vt 0.393311 -0.162109
vt 0.416504 -0.041504
vt 0.382080 -0.034668
vt 0.063904 -0.466309
vt 0.029495 -0.464355
vt 0.029510 -0.530518
vt 0.063904 -0.528564
vt 0.095154 -0.466309
vt 0.095154 -0.528564
vt 0.126343 -0.466309
vt 0.126343 -0.528564
vt 0.157593 -0.466309
vt 0.157593 -0.528564
vt 0.188843 -0.466309
vt 0.188843 -0.528564
vt 0.220093 -0.466309
vt 0.220093 -0.528564
vt 0.251221 -0.466309
vt 0.251221 -0.528564
vt 0.285645 -0.464355
vt 0.285645 -0.530518
vt 0.978027 -0.488281
vt 0.940430 -0.450684
vt 0.940430 -0.503418
vt 0.903320 -0.488281
vt 0.887695 -0.450684
vt 0.903320 -0.413086
vt 0.940430 -0.397949
vt 0.978027 -0.413086
vt 0.993652 -0.450684
vt 0.905273 -0.579346
vt 0.905273 -0.633545
vt 0.942383 -0.594482
vt 0.868652 -0.594482
vt 0.853516 -0.631348
vt 0.868652 -0.668213
vt 0.905273 -0.683594
vt 0.942383 -0.668213
vt 0.957520 -0.631348
vt 0.075012 -0.628906
vt 0.034424 -0.628662
vt 0.034149 -0.687256
vt 0.074707 -0.687500
vt 0.115601 -0.628906
vt 0.115356 -0.687744
vt 0.156250 -0.629150
vt 0.155884 -0.687988
vt 0.196777 -0.629395
vt 0.196533 -0.688232
vt 0.237427 -0.629639
vt 0.237183 -0.688232
vt 0.278076 -0.629883
vt 0.277588 -0.688477
vt 0.755859 -0.564697
vt 0.725098 -0.510986
vt 0.693848 -0.564697
vt 0.663086 -0.510986
vt 0.693848 -0.457520
vt 0.755859 -0.457520
vt 0.787109 -0.510986
vt 0.497314 -0.528564
vt 0.526855 -0.580078
vt 0.556641 -0.528564
vt 0.467529 -0.580078
vt 0.497314 -0.631592
vt 0.556641 -0.631592
vt 0.586426 -0.580078
vt 0.063049 -0.547852
vt 0.031738 -0.544678
vt 0.031738 -0.614746
vt 0.063049 -0.611572
vt 0.090454 -0.547852
vt 0.090454 -0.611572
vt 0.117859 -0.547852
vt 0.117859 -0.611572
vt 0.145264 -0.547852
vt 0.145264 -0.611572
vt 0.172729 -0.547852
vt 0.172729 -0.611572
vt 0.200073 -0.547852
vt 0.200073 -0.611572
vt 0.227539 -0.547852
vt 0.227417 -0.611572
vt 0.258789 -0.544678
vt 0.258789 -0.614746
vt 0.509277 -0.491699
vt 0.462891 -0.447754
vt 0.462891 -0.510498
vt 0.416748 -0.491699
vt 0.397705 -0.445313
vt 0.416748 -0.398926
vt 0.462891 -0.379883
vt 0.509277 -0.398926
vt 0.528320 -0.445313
vt 0.598145 -0.405762
vt 0.598145 -0.469238
vt 0.641602 -0.423340
vt 0.555176 -0.423340
vt 0.537109 -0.466797
vt 0.555176 -0.510010
vt 0.598145 -0.527832
vt 0.641602 -0.510010
vt 0.659668 -0.466797
vt 0.404053 -0.666504
vt 0.403076 -0.625000
vt 0.423096 -0.656494
vt 0.383057 -0.655762
vt 0.342773 -0.624756
vt 0.369629 -0.654297
vt 0.403320 -0.589111
vt 0.358643 -0.589355
vt 0.403809 -0.562744
vt 0.390625 -0.562744
vt 0.449463 -0.589600
vt 0.417480 -0.562744
vt 0.465088 -0.625000
vt 0.438232 -0.654541
vt 0.755859 -0.267578
vt 0.755859 -0.388672
vt 0.695801 -0.366211
vt 0.666016 -0.264648
vt 0.756836 -0.166504
vt 0.685059 -0.167969
vt 0.759766 -0.067871
vt 0.836914 -0.169434
vt 0.897949 -0.159668
vt 0.940918 -0.263184
vt 0.855957 -0.265137
vt 0.823242 -0.363770
vt 0.862793 -0.352539
vt 0.800781 -0.070313
vt 0.617676 -0.157715
vt 0.717285 -0.069336
vt 0.572754 -0.261719
vt 0.650879 -0.351074
vt 0.901367 -0.390137
vt 0.849121 -0.417969
vt 0.993164 -0.265137
vt 0.941895 -0.119629
vt 0.814941 -0.018555
vt 0.759766 -0.013184
vt 0.757324 -0.438965
vt 0.672852 -0.419922
vt 0.702148 -0.019043
vt 0.574707 -0.119629
vt 0.523438 -0.264648
vt 0.614258 -0.390137
vn -0.9914 -0.1251 0.0389
vn -0.6627 -0.7306 0.1644
vn -0.9471 -0.3041 0.1027
vn -0.9441 -0.3226 0.0684
vn -0.8880 -0.2763 -0.3676
vn -0.8788 -0.4677 -0.0944
vn -0.9741 -0.2179 0.0610
vn -0.9377 0.0516 -0.3436
vn -0.9962 -0.0828 0.0278
vn -0.9295 0.1411 -0.3407
vn -0.9422 0.1860 0.2787
vn -0.9319 0.2674 0.2450
vn -0.8966 -0.0824 0.4351
vn -0.8913 -0.3528 0.2850
vn 0.9999 -0.0118 0.0022
vn 0.9589 0.0818 0.2716
vn 0.8002 -0.4695 0.3733
vn 0.7575 -0.6359 0.1479
vn 0.9191 0.3826 -0.0945
vn 0.8869 0.4464 0.1192
vn 0.5733 0.7955 -0.1961
vn 0.8862 0.3432 -0.3112
vn 0.4960 0.3649 -0.7879
vn 0.4792 -0.2857 -0.8299
vn 0.9585 -0.0555 -0.2797
vn 0.8011 -0.5900 -0.1006
vn 0.5419 -0.7485 -0.3823
vn 0.3617 0.7234 -0.5881
vn 0.5447 0.6717 0.5022
vn 0.3914 0.9045 0.1692
vn 0.5335 0.1380 0.8345
vn 0.5925 -0.4661 0.6570
vn -0.8880 -0.2762 -0.3675
vn -0.9377 0.0515 -0.3436
vn -0.9295 0.1410 -0.3407
vn -0.9962 -0.0827 0.0278
vn -0.9319 0.2674 0.2449
vn -0.8966 -0.0823 0.4351
vn -0.6627 -0.7306 0.1645
vn -0.8912 -0.3528 0.2850
vn 0.5004 0.2079 0.8404
vn -0.5001 0.2080 0.8406
vn -0.4276 -0.3253 0.8434
vn 0.4276 -0.3253 0.8434
vn 1.0000 -0.0000 0.0000
vn 0.8552 -0.5031 0.1245
vn 0.5000 -0.2080 -0.8407
vn 0.4276 -0.6810 -0.5945
vn -0.5000 -0.2080 -0.8407
vn -0.4277 -0.6810 -0.5944
vn -1.0000 -0.0000 -0.0000
vn -0.8552 -0.5031 0.1244
vn 0.4276 0.6810 0.5945
vn -0.4277 0.6810 0.5945
vn 0.8552 0.5031 -0.1245
vn 0.4276 0.3253 -0.8434
vn -0.4276 0.3253 -0.8434
vn -0.8552 0.5031 -0.1244
vn 0.0000 -0.9707 0.2402
vn 0.0000 -0.9707 0.2401
vn 0.0000 -0.9708 0.2401
vn 0.0000 0.9707 -0.2401
vn 0.0000 0.9707 -0.2402
vn 0.5000 0.2080 0.8407
vn 0.4275 -0.3253 0.8434
vn -0.5000 -0.2079 -0.8407
vn -0.4276 -0.6810 -0.5945
vn -0.4276 -0.3252 0.8434
vn 0.4275 0.3253 -0.8435
vn -0.8552 0.5031 -0.1245
vn -0.0000 0.9708 -0.2401
vn 0.4277 -0.6810 -0.5945
vn -0.8552 -0.5031 0.1245
vn 0.4277 0.6809 0.5945
vn -0.4277 0.6809 0.5945
vn 0.9996 0.0279 0.0018
vn -0.0000 -0.9109 0.4127
vn -0.0000 -0.9248 0.3805
vn 0.9988 -0.0481 0.0069
vn -0.0000 0.9162 -0.4007
vn -0.0000 0.9290 -0.3702
vn -0.9996 0.0279 0.0018
vn -0.9988 -0.0480 0.0069
vn 0.9959 0.0904 0.0053
vn 0.0000 -0.9668 0.2554
vn 0.0000 0.9808 -0.1950
vn -0.9959 0.0904 0.0053
vn 0.9947 0.0933 0.0423
vn -0.0000 -0.9996 0.0275
vn 0.0000 0.9973 0.0741
vn -0.9947 0.0933 0.0423
vn 0.9975 -0.0393 0.0590
vn 0.0000 -0.9857 -0.1685
vn -0.0000 0.9547 0.2976
vn -0.9975 -0.0392 0.0590
vn -0.9985 -0.0545 -0.0020
vn 0.0000 -0.9987 0.0500
vn -0.9996 -0.0103 -0.0269
vn -0.0000 0.9999 -0.0129
vn 0.0000 0.9956 -0.0937
vn 0.9985 -0.0545 -0.0019
vn 0.0000 -0.9987 0.0501
vn 0.0000 -0.9992 -0.0406
vn 0.9996 -0.0102 -0.0269
vn 0.9239 0.3516 -0.1509
vn -0.0017 -0.9143 0.4051
vn 0.0000 -0.9759 0.2180
vn 0.8806 0.4625 -0.1033
vn -0.0002 -0.7490 0.6625
vn 0.8725 0.3678 -0.3217
vn 0.0007 -0.6667 0.7453
vn 0.8399 0.3574 -0.4085
vn -0.0059 -0.9981 0.0613
vn 0.6082 0.7895 -0.0823
vn 0.0003 -0.9355 -0.3534
vn 0.9003 0.4028 0.1652
vn -0.0076 -0.9865 0.1633
vn 0.9282 0.3691 -0.0478
vn -0.0070 -0.7156 0.6985
vn 0.9196 0.2728 -0.2826
vn 0.0061 -0.4029 0.9152
vn 0.7738 0.2435 -0.5847
vn -0.0055 -0.9758 -0.2184
vn 0.5070 0.8514 0.1345
vn -0.0009 -0.7624 -0.6472
vn 0.8397 0.3991 0.3683
vn 0.0007 -0.9538 -0.3004
vn 0.9303 0.3533 0.0987
vn 0.0000 -0.9719 0.2353
vn 0.9432 0.3236 -0.0759
vn 0.0000 -0.7789 0.6271
vn 0.8952 0.3401 -0.2881
vn 0.0000 -0.7034 0.7108
vn 0.7811 0.4392 -0.4438
vn -0.8054 0.2202 -0.5502
vn -0.9445 0.2332 -0.2312
vn -0.0071 -0.7156 0.6985
vn -0.9496 0.3109 -0.0405
vn -0.9214 0.3576 0.1523
vn 0.0003 -0.9355 -0.3535
vn -0.6198 0.7799 -0.0872
vn -0.8590 0.3345 -0.3875
vn 0.0007 -0.6667 0.7454
vn -0.8905 0.3446 -0.2972
vn -0.0002 -0.7490 0.6626
vn -0.9285 0.3436 -0.1409
vn -0.0018 -0.9142 0.4052
vn -0.8806 0.4625 -0.1033
vn -0.0055 -0.9758 -0.2185
vn -0.5084 0.8497 0.1398
vn -0.0009 -0.7624 -0.6471
vn -0.8367 0.4027 0.3712
vn -0.9286 0.3566 0.1026
vn -0.9431 0.3236 -0.0759
vn -0.8952 0.3401 -0.2881
vn -0.7811 0.4392 -0.4438
vn 0.0219 -0.2756 -0.9610
vn 0.9988 -0.0433 -0.0215
vn 0.0004 -0.9708 0.2399
vn -0.0219 0.2040 0.9787
vn -0.9988 -0.0283 0.0392
vn -0.5000 0.2080 0.8407
vn -0.4277 -0.6810 -0.5945
vn 0.4277 0.6810 0.5945
vn 0.4975 0.8673 0.0130
vn -0.4975 0.8674 0.0130
vn -0.5022 0.8647 0.0130
vn 0.5024 0.8646 0.0130
vn 1.0000 0.0056 0.0001
vn 1.0000 -0.0056 -0.0001
vn 0.5024 -0.8646 -0.0130
vn 0.4972 -0.8675 -0.0130
vn -0.5024 -0.8646 -0.0130
vn -0.4976 -0.8673 -0.0130
vn -1.0000 0.0056 0.0001
vn -1.0000 -0.0056 -0.0001
vn -0.4974 0.8674 0.0131
vn 0.0000 0.0025 1.0000
vn 0.1249 0.2182 -0.9679
vn -0.0000 -0.0074 -1.0000
vn -0.1249 0.2182 -0.9679
vn 0.2608 0.0024 -0.9654
vn 0.1364 -0.2337 -0.9627
vn -0.1363 -0.2338 -0.9627
vn -0.2608 0.0024 -0.9654
vn 0.9937 0.0921 0.0643
vn 0.9937 0.0922 0.0643
vn 0.0000 0.2938 0.9559
vn -0.0000 -0.0524 0.9986
vn 0.0000 -0.0525 0.9986
vn 0.0000 -0.4610 0.8874
vn 0.0000 0.9752 -0.2214
vn 0.0000 -0.4574 -0.8893
vn 0.0000 0.5385 -0.8426
vn 0.0000 0.9142 -0.4054
vn -0.0000 -0.7587 -0.6514
vn 0.0000 -0.7584 -0.6518
vn 0.0000 -0.8074 0.5900
vn 0.0000 0.2401 0.9707
vn 0.0000 -0.5167 0.8562
vn 0.0000 0.8562 0.5166
vn 0.0000 0.5166 -0.8562
vn 0.0000 -0.2401 -0.9707
vn 0.0000 -0.8562 -0.5166
vn 0.0000 -0.5167 0.8561
vn 0.0000 0.6933 0.7206
vn 0.0000 -0.2774 0.9607
vn 0.0000 0.2774 -0.9608
vn 0.0000 -0.6933 -0.7206
vn 0.6627 -0.7306 0.1644
vn 0.9914 -0.1251 0.0389
vn 0.9471 -0.3041 0.1027
vn 0.9441 -0.3226 0.0684
vn 0.8880 -0.2763 -0.3676
vn 0.8788 -0.4677 -0.0944
vn 0.9741 -0.2179 0.0610
vn 0.9377 0.0516 -0.3436
vn 0.9962 -0.0828 0.0278
vn 0.9295 0.1411 -0.3407
vn 0.9422 0.1860 0.2787
vn 0.9319 0.2674 0.2450
vn 0.8966 -0.0824 0.4351
vn 0.8913 -0.3528 0.2850
vn -0.9999 -0.0118 0.0022
vn -0.7575 -0.6359 0.1479
vn -0.8002 -0.4695 0.3733
vn -0.9589 0.0818 0.2716
vn -0.9191 0.3826 -0.0945
vn -0.8869 0.4464 0.1192
vn -0.5733 0.7955 -0.1961
vn -0.8862 0.3432 -0.3112
vn -0.4960 0.3649 -0.7879
vn -0.4792 -0.2857 -0.8299
vn -0.9585 -0.0556 -0.2797
vn -0.8011 -0.5900 -0.1006
vn -0.5418 -0.7485 -0.3823
vn -0.3617 0.7234 -0.5881
vn -0.5447 0.6717 0.5022
vn -0.3915 0.9045 0.1692
vn -0.5335 0.1380 0.8345
vn -0.5926 -0.4661 0.6570
vn 0.8880 -0.2762 -0.3675
vn 0.9377 0.0515 -0.3436
vn 0.9295 0.1410 -0.3407
vn 0.9962 -0.0827 0.0278
vn 0.6627 -0.7306 0.1645
vn 0.9319 0.2674 0.2449
vn 0.8966 -0.0823 0.4351
vn 0.8912 -0.3528 0.2850
usemtl Mari_FishingRod01_001.png
s 1
f 1/1/1 2/2/2 3/3/3
f 1/1/1 4/4/4 2/2/2
f 1/1/1 5/5/5 4/4/4
f 5/5/5 6/6/6 4/4/4
f 5/5/5 1/1/1 7/7/7
f 8/8/8 5/5/5 7/7/7
f 8/8/8 7/7/7 9/9/9
f 10/10/10 8/8/8 9/9/9
f 9/9/9 7/7/7 11/11/11
f 12/12/12 9/9/9 11/11/11
f 11/11/11 7/7/7 13/13/13
f 7/7/7 1/1/1 13/13/13
f 13/13/13 1/1/1 14/14/14
f 1/1/1 3/3/3 14/14/14
f 15/15/15 16/16/16 17/17/17
f 18/18/18 15/15/15 17/17/17
f 15/15/15 19/19/19 16/16/16
f 19/19/19 20/20/20 16/16/16
f 19/19/19 21/21/21 20/20/20
f 19/19/19 22/22/22 21/21/21
f 22/22/22 23/23/23 21/21/21
f 24/24/24 23/23/23 22/22/22
f 25/25/25 24/24/24 22/22/22
f 25/25/25 22/22/22 19/19/19
f 15/15/15 25/25/25 19/19/19
f 25/25/25 15/15/15 18/18/18
f 26/26/26 25/25/25 18/18/18
f 24/24/24 25/25/25 26/26/26
f 27/27/27 24/24/24 26/26/26
f 23/23/23 28/28/28 21/21/21
f 20/20/20 21/21/21 29/29/29
f 21/21/21 30/30/30 29/29/29
f 20/20/20 29/29/29 31/31/31
f 16/16/16 20/20/20 31/31/31
f 17/17/17 16/16/16 32/32/32
f 16/16/16 31/31/31 32/32/32
f 33/33/6 27/27/27 26/26/26
f 34/34/4 33/33/6 26/26/26
f 34/34/4 26/26/26 18/18/18
f 35/35/33 24/24/24 27/27/27
f 33/33/6 35/35/33 27/27/27
f 35/35/33 36/36/34 24/24/24
f 36/36/34 23/23/23 24/24/24
f 36/36/34 37/37/35 23/23/23
f 37/37/35 28/28/28 23/23/23
f 38/38/36 21/21/21 28/28/28
f 37/37/35 38/38/36 28/28/28
f 38/38/36 39/39/37 21/21/21
f 39/39/37 30/30/30 21/21/21
f 39/39/37 40/40/11 30/30/30
f 40/40/11 29/29/29 30/30/30
f 41/41/38 31/31/31 29/29/29
f 40/40/11 41/41/38 29/29/29
f 42/42/3 17/17/17 32/32/32
f 43/43/39 34/34/4 18/18/18
f 43/43/39 18/18/18 17/17/17
f 42/42/3 43/43/39 17/17/17
f 44/44/40 42/42/3 32/32/32
f 44/44/40 32/32/32 31/31/31
f 41/41/38 44/44/40 31/31/31
f 45/45/41 46/46/42 47/47/43
f 48/48/44 45/45/41 47/47/43
f 49/49/45 45/45/41 48/48/44
f 50/50/46 49/49/45 48/48/44
f 51/51/47 49/49/45 50/50/46
f 52/52/48 51/51/47 50/50/46
f 53/53/49 51/51/47 52/52/48
f 54/54/50 53/53/49 52/52/48
f 55/55/51 53/53/49 54/54/50
f 56/56/52 55/55/51 54/54/50
f 57/57/42 55/55/51 56/56/52
f 58/58/43 57/57/42 56/56/52
f 45/45/41 59/59/53 46/46/42
f 59/59/53 60/60/54 46/46/42
f 49/49/45 61/61/55 45/45/41
f 61/61/55 59/59/53 45/45/41
f 51/51/47 62/62/56 49/49/45
f 62/62/56 61/61/55 49/49/45
f 53/53/49 63/63/57 51/51/47
f 63/63/57 62/62/56 51/51/47
f 64/64/58 63/63/57 53/53/49
f 55/55/51 64/64/58 53/53/49
f 57/57/42 65/65/54 55/55/51
f 65/65/54 64/64/58 55/55/51
f 50/50/46 66/66/59 52/52/48
f 52/52/48 67/67/60 54/54/50
f 54/54/50 68/68/61 56/56/52
f 56/56/52 69/69/60 58/58/43
f 59/59/53 70/70/62 60/60/54
f 61/61/55 71/71/62 59/59/53
f 62/62/56 72/72/62 61/61/55
f 63/63/57 73/73/62 62/62/56
f 64/64/58 74/74/63 63/63/57
f 65/65/54 75/75/62 64/64/58
f 48/48/44 76/76/60 50/50/46
f 47/47/43 77/77/60 48/48/44
f 78/78/64 79/79/42 80/80/43
f 81/81/65 78/78/64 80/80/43
f 82/82/45 78/78/64 81/81/65
f 83/83/46 82/82/45 81/81/65
f 84/84/47 82/82/45 83/83/46
f 85/85/48 84/84/47 83/83/46
f 86/86/66 84/84/47 85/85/48
f 87/87/67 86/86/66 85/85/48
f 88/88/51 86/86/66 87/87/67
f 89/89/52 88/88/51 87/87/67
f 90/90/42 88/88/51 89/89/52
f 91/91/68 90/90/42 89/89/52
f 78/78/64 92/92/53 79/79/42
f 92/92/53 93/93/54 79/79/42
f 82/82/45 94/94/55 78/78/64
f 94/94/55 92/92/53 78/78/64
f 95/95/69 94/94/55 82/82/45
f 84/84/47 95/95/69 82/82/45
f 86/86/66 96/96/57 84/84/47
f 96/96/57 95/95/69 84/84/47
f 88/88/51 97/97/70 86/86/66
f 97/97/70 96/96/57 86/86/66
f 90/90/42 98/98/54 88/88/51
f 98/98/54 97/97/70 88/88/51
f 83/83/46 99/99/60 85/85/48
f 85/85/48 100/100/60 87/87/67
f 87/87/67 101/101/60 89/89/52
f 89/89/52 102/102/61 91/91/68
f 92/92/53 103/103/62 93/93/54
f 94/94/55 104/104/71 92/92/53
f 95/95/69 105/105/62 94/94/55
f 96/96/57 106/106/62 95/95/69
f 97/97/70 107/107/62 96/96/57
f 98/98/54 108/108/71 97/97/70
f 81/81/65 109/109/60 83/83/46
f 80/80/43 110/110/60 81/81/65
f 111/111/64 112/112/42 113/113/43
f 114/114/65 111/111/64 113/113/43
f 115/115/45 111/111/64 114/114/65
f 116/116/46 115/115/45 114/114/65
f 117/117/47 115/115/45 116/116/46
f 118/118/72 117/117/47 116/116/46
f 119/119/66 117/117/47 118/118/72
f 120/120/67 119/119/66 118/118/72
f 121/121/51 119/119/66 120/120/67
f 122/122/73 121/121/51 120/120/67
f 123/123/42 121/121/51 122/122/73
f 124/124/68 123/123/42 122/122/73
f 111/111/64 125/125/74 112/112/42
f 125/125/74 126/126/75 112/112/42
f 127/127/55 125/125/74 111/111/64
f 115/115/45 127/127/55 111/111/64
f 117/117/47 128/128/56 115/115/45
f 128/128/56 127/127/55 115/115/45
f 119/119/66 129/129/57 117/117/47
f 129/129/57 128/128/56 117/117/47
f 121/121/51 130/130/70 119/119/66
f 130/130/70 129/129/57 119/119/66
f 131/131/75 130/130/70 121/121/51
f 123/123/42 131/131/75 121/121/51
f 116/116/46 132/132/60 118/118/72
f 118/118/72 133/133/60 120/120/67
f 120/120/67 134/134/59 122/122/73
f 122/122/73 135/135/61 124/124/68
f 125/125/74 136/136/62 126/126/75
f 127/127/55 137/137/63 125/125/74
f 128/128/56 138/138/62 127/127/55
f 129/129/57 139/139/62 128/128/56
f 130/130/70 140/140/62 129/129/57
f 131/131/75 141/141/71 130/130/70
f 114/114/65 142/142/60 116/116/46
f 113/113/43 143/143/60 114/114/65
f 144/144/76 145/145/77 146/146/78
f 147/147/79 144/144/76 146/146/78
f 148/148/80 144/144/76 147/147/79
f 149/149/81 148/148/80 147/147/79
f 150/150/82 148/148/80 149/149/81
f 151/151/83 150/150/82 149/149/81
f 152/152/77 150/150/82 151/151/83
f 153/153/78 152/152/77 151/151/83
f 144/144/76 154/154/84 145/145/77
f 154/154/84 155/155/85 145/145/77
f 156/156/86 154/154/84 144/144/76
f 148/148/80 156/156/86 144/144/76
f 150/150/82 157/157/87 148/148/80
f 157/157/87 156/156/86 148/148/80
f 152/152/77 158/158/85 150/150/82
f 158/158/85 157/157/87 150/150/82
f 154/154/84 159/159/88 155/155/85
f 159/159/88 160/160/89 155/155/85
f 161/161/90 159/159/88 154/154/84
f 156/156/86 161/161/90 154/154/84
f 157/157/87 162/162/91 156/156/86
f 162/162/91 161/161/90 156/156/86
f 158/158/85 163/163/89 157/157/87
f 163/163/89 162/162/91 157/157/87
f 159/159/88 164/164/92 160/160/89
f 164/164/92 165/165/93 160/160/89
f 166/166/94 164/164/92 159/159/88
f 161/161/90 166/166/94 159/159/88
f 162/162/91 167/167/95 161/161/90
f 167/167/95 166/166/94 161/161/90
f 163/163/89 168/168/93 162/162/91
f 168/168/93 167/167/95 162/162/91
f 151/151/83 169/169/96 153/153/78
f 169/169/96 170/170/97 153/153/78
f 169/169/96 171/171/98 170/170/97
f 172/172/99 171/171/98 169/169/96
f 173/173/100 169/169/96 151/151/83
f 149/149/81 173/173/100 151/151/83
f 173/173/100 172/172/99 169/169/96
f 174/174/101 173/173/100 149/149/81
f 147/147/79 174/174/101 149/149/81
f 146/146/78 175/175/102 147/147/79
f 175/175/102 174/174/101 147/147/79
f 175/175/102 176/176/103 174/174/101
f 177/177/104 172/172/99 173/173/100
f 174/174/101 177/177/104 173/173/100
f 176/176/103 177/177/104 174/174/101
f 171/171/98 178/178/103 170/170/97
f 179/179/105 180/180/106 181/181/107
f 182/182/108 179/179/105 181/181/107
f 183/183/109 180/180/106 179/179/105
f 184/184/110 183/183/109 179/179/105
f 185/185/111 183/183/109 184/184/110
f 186/186/112 185/185/111 184/184/110
f 187/187/113 185/185/111 186/186/112
f 188/188/114 187/187/113 186/186/112
f 189/189/115 187/187/113 188/188/114
f 190/190/116 189/189/115 188/188/114
f 191/191/117 189/189/115 190/190/116
f 192/192/118 191/191/117 190/190/116
f 193/193/119 191/191/117 192/192/118
f 194/194/120 193/193/119 192/192/118
f 195/195/121 193/193/119 194/194/120
f 196/196/122 195/195/121 194/194/120
f 197/197/123 195/195/121 196/196/122
f 198/198/124 197/197/123 196/196/122
f 199/199/125 197/197/123 198/198/124
f 200/200/126 199/199/125 198/198/124
f 201/201/127 199/199/125 200/200/126
f 202/202/128 201/201/127 200/200/126
f 203/203/129 201/201/127 202/202/128
f 204/204/130 203/203/129 202/202/128
f 205/205/131 203/203/129 204/204/130
f 206/206/132 205/205/131 204/204/130
f 207/207/133 205/205/131 206/206/132
f 208/208/134 207/207/133 206/206/132
f 196/196/122 194/194/120 209/209/135
f 194/194/120 192/192/118 210/210/136
f 194/194/120 210/210/136 209/209/135
f 211/211/121 209/209/135 210/210/136
f 212/212/137 211/211/121 210/210/136
f 192/192/118 190/190/116 213/213/138
f 192/192/118 213/213/138 210/210/136
f 212/212/137 210/210/136 213/213/138
f 214/214/117 212/212/137 213/213/138
f 190/190/116 188/188/114 215/215/139
f 214/214/117 213/213/138 215/215/139
f 190/190/116 215/215/139 213/213/138
f 216/216/140 214/214/117 215/215/139
f 216/216/140 215/215/139 217/217/141
f 188/188/114 217/217/141 215/215/139
f 188/188/114 186/186/112 217/217/141
f 218/218/113 216/216/140 217/217/141
f 218/218/113 217/217/141 219/219/142
f 186/186/112 219/219/142 217/217/141
f 186/186/112 184/184/110 219/219/142
f 220/220/143 218/218/113 219/219/142
f 184/184/110 221/221/144 219/219/142
f 220/220/143 219/219/142 221/221/144
f 184/184/110 179/179/105 221/221/144
f 222/222/145 220/220/143 221/221/144
f 222/222/145 221/221/144 223/223/146
f 179/179/105 182/182/108 223/223/146
f 179/179/105 223/223/146 221/221/144
f 224/224/147 222/222/145 223/223/146
f 224/224/147 223/223/146 225/225/107
f 223/223/146 226/226/148 225/225/107
f 182/182/108 226/226/148 223/223/146
f 211/211/121 227/227/149 209/209/135
f 227/227/149 228/228/150 209/209/135
f 198/198/124 196/196/122 228/228/150
f 196/196/122 209/209/135 228/228/150
f 227/227/149 229/229/151 228/228/150
f 198/198/124 228/228/150 230/230/152
f 229/229/151 230/230/152 228/228/150
f 200/200/126 198/198/124 230/230/152
f 229/229/151 231/231/127 230/230/152
f 231/231/127 232/232/153 230/230/152
f 200/200/126 230/230/152 232/232/153
f 202/202/128 200/200/126 232/232/153
f 231/231/127 233/233/129 232/232/153
f 233/233/129 234/234/154 232/232/153
f 204/204/130 202/202/128 234/234/154
f 202/202/128 232/232/153 234/234/154
f 233/233/129 235/235/131 234/234/154
f 235/235/131 236/236/155 234/234/154
f 206/206/132 204/204/130 236/236/155
f 204/204/130 234/234/154 236/236/155
f 235/235/131 237/237/133 236/236/155
f 237/237/133 238/238/156 236/236/155
f 206/206/132 236/236/155 238/238/156
f 208/208/134 206/206/132 238/238/156
f 239/239/157 240/240/158 241/241/159
f 240/240/158 242/242/160 241/241/159
f 243/243/161 241/241/159 242/242/160
f 243/243/161 244/244/157 241/241/159
f 245/245/64 246/246/162 247/247/43
f 248/248/44 245/245/64 247/247/43
f 249/249/45 245/245/64 248/248/44
f 250/250/46 249/249/45 248/248/44
f 251/251/47 249/249/45 250/250/46
f 252/252/72 251/251/47 250/250/46
f 253/253/49 251/251/47 252/252/72
f 254/254/163 253/253/49 252/252/72
f 255/255/51 253/253/49 254/254/163
f 256/256/52 255/255/51 254/254/163
f 257/257/162 255/255/51 256/256/52
f 258/258/68 257/257/162 256/256/52
f 245/245/64 259/259/164 246/246/162
f 259/259/164 260/260/54 246/246/162
f 249/249/45 261/261/55 245/245/64
f 261/261/55 259/259/164 245/245/64
f 262/262/56 261/261/55 249/249/45
f 251/251/47 262/262/56 249/249/45
f 253/253/49 263/263/57 251/251/47
f 263/263/57 262/262/56 251/251/47
f 255/255/51 264/264/70 253/253/49
f 264/264/70 263/263/57 253/253/49
f 257/257/162 265/265/54 255/255/51
f 265/265/54 264/264/70 255/255/51
f 250/250/46 266/266/61 252/252/72
f 252/252/72 267/267/60 254/254/163
f 254/254/163 268/268/61 256/256/52
f 256/256/52 269/269/60 258/258/68
f 259/259/164 270/270/62 260/260/54
f 261/261/55 271/271/62 259/259/164
f 262/262/56 272/272/62 261/261/55
f 263/263/57 273/273/62 262/262/56
f 264/264/70 274/274/62 263/263/57
f 265/265/54 275/275/62 264/264/70
f 248/248/44 276/276/60 250/250/46
f 247/247/43 277/277/60 248/248/44
f 278/278/165 279/279/166 280/280/167
f 281/281/168 278/278/165 280/280/167
f 282/282/169 278/278/165 281/281/168
f 283/283/170 282/282/169 281/281/168
f 284/284/171 282/282/169 283/283/170
f 285/285/172 284/284/171 283/283/170
f 286/286/173 284/284/171 285/285/172
f 287/287/174 286/286/173 285/285/172
f 288/288/175 286/286/173 287/287/174
f 289/289/176 288/288/175 287/287/174
f 290/290/177 288/288/175 289/289/176
f 291/291/167 290/290/177 289/289/176
f 292/292/178 293/293/178 294/294/178
f 294/294/178 293/293/178 295/295/178
f 295/295/178 293/293/178 296/296/178
f 296/296/178 293/293/178 297/297/178
f 297/297/178 293/293/178 298/298/178
f 298/298/178 293/293/178 292/292/178
f 299/299/179 300/300/180 301/301/181
f 302/302/182 300/300/180 299/299/179
f 303/303/183 300/300/180 302/302/182
f 304/304/184 300/300/180 303/303/183
f 301/301/181 300/300/180 305/305/185
f 305/305/185 300/300/180 304/304/184
f 306/306/45 307/307/45 308/308/45
f 309/309/45 306/306/45 308/308/45
f 310/310/45 308/308/45 307/307/45
f 311/311/45 310/310/45 307/307/45
f 312/312/186 313/313/187 314/314/187
f 315/315/187 312/312/186 314/314/187
f 316/316/51 317/317/51 318/318/51
f 319/319/51 316/316/51 318/318/51
f 318/318/51 320/320/51 319/319/51
f 320/320/51 321/321/51 319/319/51
f 320/320/51 322/322/51 321/321/51
f 322/322/51 323/323/51 321/321/51
f 324/324/188 325/325/188 326/326/189
f 327/327/190 324/324/188 326/326/189
f 327/327/190 326/326/189 328/328/191
f 329/329/191 327/327/190 328/328/191
f 330/330/192 331/331/192 332/332/192
f 333/333/192 330/330/192 332/332/192
f 334/334/193 335/335/193 336/336/193
f 337/337/193 334/334/193 336/336/193
f 338/338/194 339/339/194 340/340/194
f 341/341/194 338/338/194 340/340/194
f 342/342/195 343/343/195 344/344/195
f 345/345/195 342/342/195 344/344/195
f 346/346/196 347/347/196 348/348/196
f 349/349/197 346/346/196 348/348/196
f 350/350/198 351/351/198 352/352/198
f 353/353/198 350/350/198 352/352/198
f 354/354/199 355/355/200 356/356/200
f 357/357/199 354/354/199 356/356/200
f 358/358/201 354/354/199 357/357/199
f 359/359/201 358/358/201 357/357/199
f 360/360/62 358/358/201 359/359/201
f 361/361/62 360/360/62 359/359/201
f 362/362/202 360/360/62 361/361/62
f 363/363/202 362/362/202 361/361/62
f 364/364/203 362/362/202 363/363/202
f 365/365/203 364/364/203 363/363/202
f 366/366/204 364/364/203 365/365/203
f 367/367/204 366/366/204 365/365/203
f 368/368/60 366/366/204 367/367/204
f 369/369/60 368/368/60 367/367/204
f 370/370/205 368/368/60 369/369/60
f 371/371/205 370/370/205 369/369/60
f 372/372/45 373/373/45 374/374/45
f 374/374/45 373/373/45 375/375/45
f 375/375/45 373/373/45 376/376/45
f 376/376/45 373/373/45 377/377/45
f 377/377/45 373/373/45 378/378/45
f 378/378/45 373/373/45 379/379/45
f 380/380/45 373/373/45 372/372/45
f 379/379/45 373/373/45 380/380/45
f 381/381/51 382/382/51 383/383/51
f 384/384/51 382/382/51 381/381/51
f 385/385/51 382/382/51 384/384/51
f 386/386/51 382/382/51 385/385/51
f 387/387/51 382/382/51 386/386/51
f 388/388/51 382/382/51 387/387/51
f 383/383/51 382/382/51 389/389/51
f 389/389/51 382/382/51 388/388/51
f 390/390/206 391/391/207 392/392/207
f 393/393/206 390/390/206 392/392/207
f 394/394/62 390/390/206 393/393/206
f 395/395/62 394/394/62 393/393/206
f 396/396/208 394/394/62 395/395/62
f 397/397/208 396/396/208 395/395/62
f 398/398/209 396/396/208 397/397/208
f 399/399/209 398/398/209 397/397/208
f 400/400/60 398/398/209 399/399/209
f 401/401/60 400/400/60 399/399/209
f 402/402/207 400/400/60 401/401/60
f 403/403/207 402/402/207 401/401/60
f 404/404/45 405/405/45 406/406/45
f 406/406/45 405/405/45 407/407/45
f 407/407/45 405/405/45 408/408/45
f 408/408/45 405/405/45 409/409/45
f 410/410/45 405/405/45 404/404/45
f 409/409/45 405/405/45 410/410/45
f 411/411/51 412/412/51 413/413/51
f 414/414/51 412/412/51 411/411/51
f 415/415/51 412/412/51 414/414/51
f 416/416/51 412/412/51 415/415/51
f 413/413/51 412/412/51 417/417/51
f 417/417/51 412/412/51 416/416/51
f 418/418/199 419/419/200 420/420/200
f 421/421/199 418/418/199 420/420/200
f 422/422/201 418/418/199 421/421/199
f 423/423/201 422/422/201 421/421/199
f 424/424/62 422/422/201 423/423/201
f 425/425/62 424/424/62 423/423/201
f 426/426/202 424/424/62 425/425/62
f 427/427/202 426/426/202 425/425/62
f 428/428/203 426/426/202 427/427/202
f 429/429/203 428/428/203 427/427/202
f 430/430/204 428/428/203 429/429/203
f 431/431/204 430/430/204 429/429/203
f 432/432/60 430/430/204 431/431/204
f 433/433/60 432/432/60 431/431/204
f 434/434/205 432/432/60 433/433/60
f 435/435/205 434/434/205 433/433/60
f 436/436/45 437/437/45 438/438/45
f 438/438/45 437/437/45 439/439/45
f 439/439/45 437/437/45 440/440/45
f 440/440/45 437/437/45 441/441/45
f 441/441/45 437/437/45 442/442/45
f 442/442/45 437/437/45 443/443/45
f 443/443/45 437/437/45 444/444/45
f 444/444/45 437/437/45 436/436/45
f 445/445/51 446/446/51 447/447/51
f 448/448/51 446/446/51 445/445/51
f 449/449/51 446/446/51 448/448/51
f 450/450/51 446/446/51 449/449/51
f 451/451/51 446/446/51 450/450/51
f 452/452/51 446/446/51 451/451/51
f 447/447/51 446/446/51 453/453/51
f 453/453/51 446/446/51 452/452/51
f 454/454/210 455/455/211 456/456/212
f 457/457/213 455/455/211 454/454/210
f 458/458/214 455/455/211 457/457/213
f 459/459/215 458/458/214 457/457/213
f 455/455/211 458/458/214 460/460/216
f 458/458/214 461/461/217 460/460/216
f 460/460/216 461/461/217 462/462/218
f 461/461/217 463/463/219 462/462/218
f 460/460/216 462/462/218 464/464/220
f 462/462/218 465/465/221 464/464/220
f 455/455/211 460/460/216 466/466/222
f 460/460/216 464/464/220 466/466/222
f 456/456/212 455/455/211 467/467/223
f 455/455/211 466/466/222 467/467/223
f 468/468/224 469/469/225 470/470/226
f 471/471/227 468/468/224 470/470/226
f 472/472/228 468/468/224 471/471/227
f 473/473/229 472/472/228 471/471/227
f 474/474/230 472/472/228 473/473/229
f 475/475/231 472/472/228 474/474/230
f 476/476/232 475/475/231 474/474/230
f 476/476/232 477/477/233 475/475/231
f 478/478/234 468/468/224 472/472/228
f 475/475/231 478/478/234 472/472/228
f 468/468/224 478/478/234 469/469/225
f 477/477/233 478/478/234 475/475/231
f 478/478/234 477/477/233 479/479/235
f 478/478/234 479/479/235 469/469/225
f 477/477/233 480/480/236 479/479/235
f 481/481/237 476/476/232 474/474/230
f 474/474/230 473/473/229 482/482/238
f 483/483/239 474/474/230 482/482/238
f 473/473/229 471/471/227 484/484/240
f 482/482/238 473/473/229 484/484/240
f 471/471/227 470/470/226 485/485/241
f 484/484/240 471/471/227 485/485/241
f 480/480/236 486/486/215 479/479/235
f 486/486/215 487/487/213 479/479/235
f 479/479/235 487/487/213 469/469/225
f 477/477/233 488/488/242 480/480/236
f 488/488/242 486/486/215 480/480/236
f 489/489/243 488/488/242 477/477/233
f 476/476/232 489/489/243 477/477/233
f 490/490/244 489/489/243 476/476/232
f 481/481/237 490/490/244 476/476/232
f 474/474/230 491/491/245 481/481/237
f 491/491/245 490/490/244 481/481/237
f 487/487/213 492/492/246 469/469/225
f 469/469/225 492/492/246 470/470/226
f 470/470/226 493/493/212 485/485/241
f 492/492/246 493/493/212 470/470/226
f 483/483/239 494/494/247 474/474/230
f 494/494/247 491/491/245 474/474/230
f 495/495/220 494/494/247 483/483/239
f 482/482/238 495/495/220 483/483/239
f 484/484/240 496/496/248 482/482/238
f 496/496/248 495/495/220 482/482/238
f 493/493/212 497/497/249 485/485/241
f 485/485/241 497/497/249 484/484/240
f 497/497/249 496/496/248 484/484/240
